  0
SECTION
  2
HEADER
  9
$ACADVER
  1
AC1027
  9
$ACADMAINTVER
 70
     8
  9
$DWGCODEPAGE
  3
UNDEFINED
  9
$REQUIREDVERSIONS
160
                 0
  9
$INSBASE
 10
0.0
 20
0.0
 30
0.0
  9
$EXTMIN
 10
1.000000000000000E+20
 20
1.000000000000000E+20
 30
1.000000000000000E+20
  9
$EXTMAX
 10
-1.000000000000000E+20
 20
-1.000000000000000E+20
 30
-1.000000000000000E+20
  9
$LIMMIN
 10
0.0
 20
0.0
  9
$LIMMAX
 10
12.0
 20
9.0
  9
$ORTHOMODE
 70
     0
  9
$REGENMODE
 70
     1
  9
$FILLMODE
 70
     1
  9
$QTEXTMODE
 70
     0
  9
$MIRRTEXT
 70
     1
  9
$LTSCALE
 40
1.0
  9
$ATTMODE
 70
     1
  9
$TEXTSIZE
 40
0.2
  9
$TRACEWID
 40
0.05
  9
$TEXTSTYLE
  7
Standard
  9
$CLAYER
  8
0
  9
$CELTYPE
  6
ByLayer
  9
$CECOLOR
 62
   178
  9
$CELTSCALE
 40
1.0
  9
$DISPSILH
 70
     0
  9
$DIMSCALE
 40
1.0
  9
$DIMASZ
 40
2.5
  9
$DIMEXO
 40
0.625
  9
$DIMDLI
 40
0.38
  9
$DIMRND
 40
0.0
  9
$DIMDLE
 40
0.0
  9
$DIMEXE
 40
1.25
  9
$DIMTP
 40
0.0
  9
$DIMTM
 40
0.0
  9
$DIMTXT
 40
2.5
  9
$DIMCEN
 40
0.09
  9
$DIMTSZ
 40
0.0
  9
$DIMTOL
 70
     0
  9
$DIMLIM
 70
     0
  9
$DIMTIH
 70
     1
  9
$DIMTOH
 70
     1
  9
$DIMSE1
 70
     0
  9
$DIMSE2
 70
     0
  9
$DIMTAD
 70
     0
  9
$DIMZIN
 70
     8
  9
$DIMBLK
  1

  9
$DIMASO
 70
     1
  9
$DIMSHO
 70
     1
  9
$DIMPOST
  1

  9
$DIMAPOST
  1

  9
$DIMALT
 70
     0
  9
$DIMALTD
 70
     2
  9
$DIMALTF
 40
25.4
  9
$DIMLFAC
 40
1.0
  9
$DIMTOFL
 70
     0
  9
$DIMTVP
 40
0.0
  9
$DIMTIX
 70
     0
  9
$DIMSOXD
 70
     0
  9
$DIMSAH
 70
     0
  9
$DIMBLK1
  1

  9
$DIMBLK2
  1

  9
$DIMSTYLE
  2
Standard
  9
$DIMCLRD
 70
   178
  9
$DIMCLRE
 70
   178
  9
$DIMCLRT
 70
   178
  9
$DIMTFAC
 40
1.0
  9
$DIMGAP
 40
0.625
  9
$DIMJUST
 70
     0
  9
$DIMSD1
 70
     0
  9
$DIMSD2
 70
     0
  9
$DIMTOLJ
 70
     1
  9
$DIMTZIN
 70
     0
  9
$DIMALTZ
 70
     0
  9
$DIMALTTZ
 70
     0
  9
$DIMUPT
 70
     0
  9
$DIMDEC
 70
     4
  9
$DIMTDEC
 70
     4
  9
$DIMALTU
 70
     2
  9
$DIMALTTD
 70
     2
  9
$DIMTXSTY
  7
Standard
  9
$DIMAUNIT
 70
     0
  9
$DIMADEC
 70
     0
  9
$DIMALTRND
 40
0.0
  9
$DIMAZIN
 70
     2
  9
$DIMDSEP
 70
    46
  9
$DIMATFIT
 70
     3
  9
$DIMFRAC
 70
     0
  9
$DIMLDRBLK
  1

  9
$DIMLUNIT
 70
     2
  9
$DIMLWD
 70
    -2
  9
$DIMLWE
 70
    -2
  9
$DIMTMOVE
 70
     0
  9
$DIMFXL
 40
1.0
  9
$DIMFXLON
 70
     0
  9
$DIMJOGANG
 40
0.7853981633974483
  9
$DIMTFILL
 70
     0
  9
$DIMTFILLCLR
 70
     0
  9
$DIMARCSYM
 70
     0
  9
$DIMLTYPE
  6

  9
$DIMLTEX1
  6

  9
$DIMLTEX2
  6

  9
$DIMTXTDIRECTION
 70
     0
  9
$LUNITS
 70
     2
  9
$LUPREC
 70
     4
  9
$SKETCHINC
 40
0.1
  9
$FILLETRAD
 40
0.5
  9
$AUNITS
 70
     0
  9
$AUPREC
 70
     0
  9
$MENU
  1
.
  9
$ELEVATION
 40
0.0
  9
$PELEVATION
 40
0.0
  9
$THICKNESS
 40
0.0
  9
$LIMCHECK
 70
     0
  9
$CHAMFERA
 40
0.0
  9
$CHAMFERB
 40
0.0
  9
$CHAMFERC
 40
0.0
  9
$CHAMFERD
 40
0.0
  9
$SKPOLY
 70
     0
  9
$TDCREATE
 40
2456684.975902766
  9
$TDUCREATE
 40
2456685.100902778
  9
$TDUPDATE
 40
2456684.975902766
  9
$TDUUPDATE
 40
2456685.100902778
  9
$TDINDWG
 40
0.0000000116
  9
$TDUSRTIMER
 40
0.0000000116
  9
$USRTIMER
 70
     1
  9
$ANGBASE
 50
0.0
  9
$ANGDIR
 70
     0
  9
$PDMODE
 70
     0
  9
$PDSIZE
 40
0.0
  9
$PLINEWID
 40
0.0
  9
$SPLFRAME
 70
     0
  9
$SPLINETYPE
 70
     6
  9
$SPLINESEGS
 70
     8
  9
$HANDSEED
  5
166E
  9
$SURFTAB1
 70
     6
  9
$SURFTAB2
 70
     6
  9
$SURFTYPE
 70
     6
  9
$SURFU
 70
     6
  9
$SURFV
 70
     6
  9
$UCSBASE
  2

  9
$UCSNAME
  2

  9
$UCSORG
 10
0.0
 20
0.0
 30
0.0
  9
$UCSXDIR
 10
1.0
 20
0.0
 30
0.0
  9
$UCSYDIR
 10
0.0
 20
1.0
 30
0.0
  9
$UCSORTHOREF
  2

  9
$UCSORTHOVIEW
 70
     0
  9
$UCSORGTOP
 10
0.0
 20
0.0
 30
0.0
  9
$UCSORGBOTTOM
 10
0.0
 20
0.0
 30
0.0
  9
$UCSORGLEFT
 10
0.0
 20
0.0
 30
0.0
  9
$UCSORGRIGHT
 10
0.0
 20
0.0
 30
0.0
  9
$UCSORGFRONT
 10
0.0
 20
0.0
 30
0.0
  9
$UCSORGBACK
 10
0.0
 20
0.0
 30
0.0
  9
$PUCSBASE
  2

  9
$PUCSNAME
  2

  9
$PUCSORG
 10
0.0
 20
0.0
 30
0.0
  9
$PUCSXDIR
 10
1.0
 20
0.0
 30
0.0
  9
$PUCSYDIR
 10
0.0
 20
1.0
 30
0.0
  9
$PUCSORTHOREF
  2

  9
$PUCSORTHOVIEW
 70
     0
  9
$PUCSORGTOP
 10
0.0
 20
0.0
 30
0.0
  9
$PUCSORGBOTTOM
 10
0.0
 20
0.0
 30
0.0
  9
$PUCSORGLEFT
 10
0.0
 20
0.0
 30
0.0
  9
$PUCSORGRIGHT
 10
0.0
 20
0.0
 30
0.0
  9
$PUCSORGFRONT
 10
0.0
 20
0.0
 30
0.0
  9
$PUCSORGBACK
 10
0.0
 20
0.0
 30
0.0
  9
$USERI1
 70
     0
  9
$USERI2
 70
     0
  9
$USERI3
 70
     0
  9
$USERI4
 70
     0
  9
$USERI5
 70
     0
  9
$USERR1
 40
0.0
  9
$USERR2
 40
0.0
  9
$USERR3
 40
0.0
  9
$USERR4
 40
0.0
  9
$USERR5
 40
0.0
  9
$WORLDVIEW
 70
     1
  9
$SHADEDGE
 70
     3
  9
$SHADEDIF
 70
    70
  9
$TILEMODE
 70
     1
  9
$MAXACTVP
 70
    64
  9
$PINSBASE
 10
0.0
 20
0.0
 30
0.0
  9
$PLIMCHECK
 70
     0
  9
$PEXTMIN
 10
1.000000000000000E+20
 20
1.000000000000000E+20
 30
1.000000000000000E+20
  9
$PEXTMAX
 10
-1.000000000000000E+20
 20
-1.000000000000000E+20
 30
-1.000000000000000E+20
  9
$PLIMMIN
 10
0.0
 20
0.0
  9
$PLIMMAX
 10
12.0
 20
9.0
  9
$UNITMODE
 70
     0
  9
$VISRETAIN
 70
     1
  9
$PLINEGEN
 70
     0
  9
$PSLTSCALE
 70
     1
  9
$TREEDEPTH
 70
  3020
  9
$CMLSTYLE
  2
Standard
  9
$CMLJUST
 70
     0
  9
$CMLSCALE
 40
1.0
  9
$PROXYGRAPHICS
 70
     1
  9
$MEASUREMENT
 70
     1
  9
$CELWEIGHT
370
    -1
  9
$ENDCAPS
280
     0
  9
$JOINSTYLE
280
     0
  9
$LWDISPLAY
290
     0
  9
$INSUNITS
 70
     4
  9
$HYPERLINKBASE
  1

  9
$STYLESHEET
  1

  9
$XEDIT
290
     1
  9
$CEPSNTYPE
380
     0
  9
$PSTYLEMODE
290
     1
  9
$FINGERPRINTGUID
  2
{163FC64C-A91E-99F4-B0DD-5E19519E2E10}
  9
$VERSIONGUID
  2
{FAEB1C32-E019-11D5-929B-00C0DF256EC4}
  9
$EXTNAMES
290
     1
  9
$PSVPSCALE
 40
0.0
  9
$OLESTARTUP
290
     0
  9
$SORTENTS
280
   127
  9
$INDEXCTL
280
     0
  9
$HIDETEXT
280
     1
  9
$XCLIPFRAME
280
     2
  9
$HALOGAP
280
     0
  9
$OBSCOLOR
 70
   257
  9
$OBSLTYPE
280
     0
  9
$INTERSECTIONDISPLAY
280
     0
  9
$INTERSECTIONCOLOR
 70
   257
  9
$DIMASSOC
280
     2
  9
$PROJECTNAME
  1

  9
$CAMERADISPLAY
290
     0
  9
$LENSLENGTH
 40
50.0
  9
$CAMERAHEIGHT
 40
0.0
  9
$STEPSPERSEC
 40
2.0
  9
$STEPSIZE
 40
6.0
  9
$3DDWFPREC
 40
2.0
  9
$PSOLWIDTH
 40
0.25
  9
$PSOLHEIGHT
 40
4.0
  9
$LOFTANG1
 40
1.570796326794897
  9
$LOFTANG2
 40
1.570796326794897
  9
$LOFTMAG1
 40
0.0
  9
$LOFTMAG2
 40
0.0
  9
$LOFTPARAM
 70
     7
  9
$LOFTNORMALS
280
     1
  9
$LATITUDE
 40
37.795
  9
$LONGITUDE
 40
-122.394
  9
$NORTHDIRECTION
 40
0.0
  9
$TIMEZONE
 70
 -8000
  9
$LIGHTGLYPHDISPLAY
280
     1
  9
$TILEMODELIGHTSYNCH
280
     1
  9
$CMATERIAL
347
1601
  9
$SOLIDHIST
280
     1
  9
$SHOWHIST
280
     1
  9
$DWFFRAME
280
     2
  9
$DGNFRAME
280
     2
  9
$REALWORLDSCALE
290
     1
  9
$INTERFERECOLOR
 62
   256
  9
$CSHADOW
280
     0
  9
$SHADOWPLANELOCATION
 40
0.0
  0
ENDSEC
  0
SECTION
  2
CLASSES
  0
CLASS
  1
ACDBDICTIONARYWDFLT
  2
AcDbDictionaryWithDefault
  3
ObjectDBX Classes
 90
        0
 91
        4
280
     0
281
     0
  0
CLASS
  1
VISUALSTYLE
  2
AcDbVisualStyle
  3
ObjectDBX Classes
 90
     4095
 91
        4
280
     0
281
     0
  0
CLASS
  1
MATERIAL
  2
AcDbMaterial
  3
ObjectDBX Classes
 90
     1153
 91
        4
280
     0
281
     0
  0
CLASS
  1
SCALE
  2
AcDbScale
  3
ObjectDBX Classes
 90
     1153
 91
        4
280
     0
281
     0
  0
CLASS
  1
SUN
  2
AcDbSun
  3
SCENEOE
 90
     1153
 91
        4
280
     0
281
     0
  0
CLASS
  1
DICTIONARYVAR
  2
AcDbDictionaryVar
  3
ObjectDBX Classes
 90
        0
 91
        4
280
     0
281
     0
  0
ENDSEC
  0
SECTION
  2
TABLES
  0
TABLE
  2
VPORT
  5
15C6
330
0
100
AcDbSymbolTable
 70
     1
  0
VPORT
  5
15E6
330
15C6
100
AcDbSymbolTableRecord
100
AcDbViewportTableRecord
  2
*Active
 70
     0
 10
0.0
 20
0.0
 11
1.0
 21
1.0
 12
10.42990654205607
 22
4.5
 13
0.0
 23
0.0
 14
0.5
 24
0.5
 15
0.5
 25
0.5
 16
0.0
 26
0.0
 36
1.0
 17
0.0
 27
0.0
 37
0.0
 40
9.0
 41
1.972972972850329
 42
50.0
 43
0.0
 44
0.0
 50
0.0
 51
0.0
 71
     0
 72
   100
 73
     1
 74
     3
 75
     0
 76
     0
 77
     0
 78
     0
281
     0
 65
     1
110
0.0
120
0.0
130
0.0
111
1.0
121
0.0
131
0.0
112
0.0
122
1.0
132
0.0
 79
     0
146
0.0
 60
     3
 61
     5
292
     1
282
     1
141
0.0
142
0.0
 63
   250
361
1626
  0
ENDTAB
  0
TABLE
  2
LTYPE
  5
15C3
330
0
100
AcDbSymbolTable
 70
    19
  0
LTYPE
  5
15D1
330
15C3
100
AcDbSymbolTableRecord
100
AcDbLinetypeTableRecord
  2
ByBlock
 70
     0
  3

 72
    65
 73
     0
 40
0.0
  0
LTYPE
  5
15D2
330
15C3
100
AcDbSymbolTableRecord
100
AcDbLinetypeTableRecord
  2
ByLayer
 70
     0
  3

 72
    65
 73
     0
 40
0.0
  0
LTYPE
  5
15D3
330
15C3
100
AcDbSymbolTableRecord
100
AcDbLinetypeTableRecord
  2
Continuous
 70
     0
  3
Solid line
 72
    65
 73
     0
 40
0.0
  0
LTYPE
  5
1655
330
15C3
100
AcDbSymbolTableRecord
100
AcDbLinetypeTableRecord
  2
BORDER
 70
     0
  3

 72
    65
 73
     6
 40
42.00000000000001
 49
12.0
 74
     0
 49
-6.0
 74
     0
 49
12.0
 74
     0
 49
-5.95
 74
     0
 49
0.1
 74
     0
 49
-5.95
 74
     0
  0
LTYPE
  5
1656
330
15C3
100
AcDbSymbolTableRecord
100
AcDbLinetypeTableRecord
  2
BORDER2
 70
     0
  3

 72
    65
 73
     6
 40
21.0
 49
6.0
 74
     0
 49
-3.0
 74
     0
 49
6.0
 74
     0
 49
-2.95
 74
     0
 49
0.1
 74
     0
 49
-2.95
 74
     0
  0
LTYPE
  5
1657
330
15C3
100
AcDbSymbolTableRecord
100
AcDbLinetypeTableRecord
  2
BORDERX2
 70
     0
  3

 72
    65
 73
     6
 40
84.0
 49
24.0
 74
     0
 49
-12.0
 74
     0
 49
24.0
 74
     0
 49
-11.95
 74
     0
 49
0.1
 74
     0
 49
-11.95
 74
     0
  0
LTYPE
  5
1658
330
15C3
100
AcDbSymbolTableRecord
100
AcDbLinetypeTableRecord
  2
CENTER
 70
     0
  3

 72
    65
 73
     4
 40
50.0
 49
32.0
 74
     0
 49
-6.0
 74
     0
 49
6.0
 74
     0
 49
-6.0
 74
     0
  0
LTYPE
  5
1659
330
15C3
100
AcDbSymbolTableRecord
100
AcDbLinetypeTableRecord
  2
CENTER2
 70
     0
  3

 72
    65
 73
     4
 40
25.0
 49
16.0
 74
     0
 49
-3.0
 74
     0
 49
3.0
 74
     0
 49
-3.0
 74
     0
  0
LTYPE
  5
165A
330
15C3
100
AcDbSymbolTableRecord
100
AcDbLinetypeTableRecord
  2
CENTERX2
 70
     0
  3

 72
    65
 73
     4
 40
100.0
 49
64.0
 74
     0
 49
-12.0
 74
     0
 49
12.0
 74
     0
 49
-12.0
 74
     0
  0
LTYPE
  5
165B
330
15C3
100
AcDbSymbolTableRecord
100
AcDbLinetypeTableRecord
  2
DASHDOT
 70
     0
  3

 72
    65
 73
     4
 40
24.0
 49
12.0
 74
     0
 49
-5.95
 74
     0
 49
0.1
 74
     0
 49
-5.95
 74
     0
  0
LTYPE
  5
165C
330
15C3
100
AcDbSymbolTableRecord
100
AcDbLinetypeTableRecord
  2
DASHDOT2
 70
     0
  3

 72
    65
 73
     4
 40
12.0
 49
6.0
 74
     0
 49
-2.95
 74
     0
 49
0.1
 74
     0
 49
-2.95
 74
     0
  0
LTYPE
  5
165D
330
15C3
100
AcDbSymbolTableRecord
100
AcDbLinetypeTableRecord
  2
DASHDOTX2
 70
     0
  3

 72
    65
 73
     4
 40
48.0
 49
24.0
 74
     0
 49
-11.95
 74
     0
 49
0.1
 74
     0
 49
-11.95
 74
     0
  0
LTYPE
  5
165E
330
15C3
100
AcDbSymbolTableRecord
100
AcDbLinetypeTableRecord
  2
DASHED
 70
     0
  3

 72
    65
 73
     2
 40
18.0
 49
12.0
 74
     0
 49
-6.0
 74
     0
  0
LTYPE
  5
165F
330
15C3
100
AcDbSymbolTableRecord
100
AcDbLinetypeTableRecord
  2
DASHED2
 70
     0
  3

 72
    65
 73
     2
 40
9.0
 49
6.0
 74
     0
 49
-3.0
 74
     0
  0
LTYPE
  5
1660
330
15C3
100
AcDbSymbolTableRecord
100
AcDbLinetypeTableRecord
  2
DASHEDX2
 70
     0
  3

 72
    65
 73
     2
 40
36.0
 49
24.0
 74
     0
 49
-12.0
 74
     0
  0
LTYPE
  5
1661
330
15C3
100
AcDbSymbolTableRecord
100
AcDbLinetypeTableRecord
  2
DIVIDE
 70
     0
  3

 72
    65
 73
     6
 40
29.99999999999999
 49
12.0
 74
     0
 49
-5.9
 74
     0
 49
0.15
 74
     0
 49
-5.9
 74
     0
 49
0.15
 74
     0
 49
-5.9
 74
     0
  0
LTYPE
  5
1662
330
15C3
100
AcDbSymbolTableRecord
100
AcDbLinetypeTableRecord
  2
DIVIDE2
 70
     0
  3

 72
    65
 73
     6
 40
15.0
 49
6.0
 74
     0
 49
-2.9
 74
     0
 49
0.15
 74
     0
 49
-2.9
 74
     0
 49
0.15
 74
     0
 49
-2.9
 74
     0
  0
LTYPE
  5
1663
330
15C3
100
AcDbSymbolTableRecord
100
AcDbLinetypeTableRecord
  2
DIVIDEX2
 70
     0
  3

 72
    65
 73
     6
 40
59.99999999999999
 49
24.0
 74
     0
 49
-11.9
 74
     0
 49
0.15
 74
     0
 49
-11.9
 74
     0
 49
0.15
 74
     0
 49
-11.9
 74
     0
  0
LTYPE
  5
1664
330
15C3
100
AcDbSymbolTableRecord
100
AcDbLinetypeTableRecord
  2
DOT
 70
     0
  3

 72
    65
 73
     2
 40
6.3
 49
0.1
 74
     0
 49
-6.2
 74
     0
  0
LTYPE
  5
1665
330
15C3
100
AcDbSymbolTableRecord
100
AcDbLinetypeTableRecord
  2
DOT2
 70
     0
  3

 72
    65
 73
     2
 40
3.2
 49
0.1
 74
     0
 49
-3.1
 74
     0
  0
LTYPE
  5
1666
330
15C3
100
AcDbSymbolTableRecord
100
AcDbLinetypeTableRecord
  2
DOTX2
 70
     0
  3

 72
    65
 73
     2
 40
12.5
 49
0.1
 74
     0
 49
-12.4
 74
     0
  0
ENDTAB
  0
TABLE
  2
LAYER
  5
15C0
330
0
100
AcDbSymbolTable
 70
     2
  0
LAYER
  5
15CE
330
15C0
100
AcDbSymbolTableRecord
100
AcDbLayerTableRecord
  2
0
 70
     0
 62
     7
420
 16777215
  6
Continuous
370
    25
390
15CD
347
1603
348
0
  0
LAYER
  5
1667
330
15C0
100
AcDbSymbolTableRecord
100
AcDbLayerTableRecord
  2
OBJECT
 70
     0
 62
   178
420
        0
  6
Continuous
370
    15
390
15CD
347
1603
348
0
  0
ENDTAB
  0
TABLE
  2
STYLE
  5
15C1
330
0
100
AcDbSymbolTable
 70
     1
  0
STYLE
  5
15CF
330
15C1
100
AcDbSymbolTableRecord
100
AcDbTextStyleTableRecord
  2
Standard
 70
     0
 40
0.0
 41
1.0
 50
0.0
 71
     0
 42
0.2
  3
txt
  4

  0
ENDTAB
  0
TABLE
  2
VIEW
  5
15C4
330
0
100
AcDbSymbolTable
 70
     0
  0
ENDTAB
  0
TABLE
  2
UCS
  5
15C5
330
0
100
AcDbSymbolTable
 70
     0
  0
ENDTAB
  0
TABLE
  2
APPID
  5
15C7
330
0
100
AcDbSymbolTable
 70
     2
  0
APPID
  5
15D0
330
15C7
100
AcDbSymbolTableRecord
100
AcDbRegAppTableRecord
  2
ACAD
 70
     0
  0
APPID
  5
1627
330
15C7
100
AcDbSymbolTableRecord
100
AcDbRegAppTableRecord
  2
QCAD
 70
     0
  0
ENDTAB
  0
TABLE
  2
DIMSTYLE
  5
15C8
330
0
100
AcDbSymbolTable
 70
     2
100
AcDbDimStyleTable
  0
DIMSTYLE
105
15E4
330
15C8
100
AcDbSymbolTableRecord
100
AcDbDimStyleTableRecord
  2
Standard
 70
     0
178
     0
340
15CF
  0
DIMSTYLE
105
1654
330
15C8
100
AcDbSymbolTableRecord
100
AcDbDimStyleTableRecord
  2
QCADDimStyle
 70
     0
 41
2.5
 42
0.625
 44
1.25
 73
     0
 77
     1
140
2.5
147
0.625
178
     0
340
15CF
  0
ENDTAB
  0
TABLE
  2
BLOCK_RECORD
  5
15BF
330
0
100
AcDbSymbolTable
 70
     1
  0
BLOCK_RECORD
  5
15DC
330
15BF
100
AcDbSymbolTableRecord
100
AcDbBlockTableRecord
  2
*Model_Space
340
15DF
 70
     0
280
     1
281
     0
  0
BLOCK_RECORD
  5
15D8
330
15BF
100
AcDbSymbolTableRecord
100
AcDbBlockTableRecord
  2
*Paper_Space
340
15DB
 70
     0
280
     1
281
     0
  0
BLOCK_RECORD
  5
15E0
330
15BF
100
AcDbSymbolTableRecord
100
AcDbBlockTableRecord
  2
*Paper_Space0
340
15E3
 70
     0
280
     1
281
     0
  0
ENDTAB
  0
ENDSEC
  0
SECTION
  2
BLOCKS
  0
BLOCK
  5
15DD
330
15DC
100
AcDbEntity
  8
0
100
AcDbBlockBegin
  2
*Model_Space
 70
     0
 10
0.0
 20
0.0
 30
0.0
  3
*Model_Space
  1
*Model_Space
  0
ENDBLK
  5
15DE
330
15DC
100
AcDbEntity
  8
0
100
AcDbBlockEnd
  0
BLOCK
  5
15D9
330
15D8
100
AcDbEntity
 67
     1
  8
0
100
AcDbBlockBegin
  2
*Paper_Space
 70
     0
 10
0.0
 20
0.0
 30
0.0
  3
*Paper_Space
  1
*Paper_Space
  0
ENDBLK
  5
15DA
330
15D8
100
AcDbEntity
 67
     1
  8
0
100
AcDbBlockEnd
  0
BLOCK
  5
15E1
330
15E0
100
AcDbEntity
  8
0
100
AcDbBlockBegin
  2
*Paper_Space0
 70
     0
 10
0.0
 20
0.0
 30
0.0
  3
*Paper_Space0
  1
*Paper_Space0
  0
ENDBLK
  5
15E2
330
15E0
100
AcDbEntity
  8
0
100
AcDbBlockEnd
  0
ENDSEC
  0
SECTION
  2
ENTITIES
  0
LINE
  5
1A
330
15DC
100
AcDbEntity
  8
OBJECT
100
AcDbLine
 10
-37.0175
 20
38.60249999999999
 30
0.0
 11
37.0175
 21
38.60249999999999
 31
0.0
  0
LINE
  5
1B
330
15DC
100
AcDbEntity
  8
OBJECT
100
AcDbLine
 10
37.0175
 20
38.60249999999999
 30
0.0
 11
37.0175
 21
0.0
 31
0.0
  0
LINE
  5
1C
330
15DC
100
AcDbEntity
  8
OBJECT
100
AcDbLine
 10
37.0175
 20
0.0
 30
0.0
 11
-37.0175
 21
0.0
 31
0.0
  0
LINE
  5
1D
330
15DC
100
AcDbEntity
  8
OBJECT
100
AcDbLine
 10
-37.0175
 20
0.0
 30
0.0
 11
-37.0175
 21
38.60249999999999
 31
0.0
  0
LINE
  5
1E
330
15DC
100
AcDbEntity
  8
OBJECT
100
AcDbLine
 10
-36.83
 20
38.41550000000001
 30
0.0
 11
36.8275
 21
38.41550000000001
 31
0.0
  0
LINE
  5
1F
330
15DC
100
AcDbEntity
  8
OBJECT
100
AcDbLine
 10
36.8275
 20
38.41550000000001
 30
0.0
 11
36.8275
 21
0.328000000000003
 31
0.0
  0
LINE
  5
20
330
15DC
100
AcDbEntity
  8
OBJECT
100
AcDbLine
 10
36.8275
 20
0.328000000000003
 30
0.0
 11
-36.83
 21
0.328000000000003
 31
0.0
  0
LINE
  5
21
330
15DC
100
AcDbEntity
  8
OBJECT
100
AcDbLine
 10
-36.83
 20
0.328000000000003
 30
0.0
 11
-36.83
 21
38.41550000000001
 31
0.0
  0
LINE
  5
22
330
15DC
100
AcDbEntity
  8
OBJECT
100
AcDbLine
 10
-33.15249999999999
 20
11.71799999999999
 30
0.0
 11
-33.15249999999999
 21
30.89724999999999
 31
0.0
  0
LINE
  5
23
330
15DC
100
AcDbEntity
  8
OBJECT
100
AcDbLine
 10
-33.15249999999999
 20
30.89724999999999
 30
0.0
 11
-28.94750000000001
 21
35.10374999999999
 31
0.0
  0
LINE
  5
24
330
15DC
100
AcDbEntity
  8
OBJECT
100
AcDbLine
 10
-28.94750000000001
 20
35.10374999999999
 30
0.0
 11
29.38000000000001
 21
35.10374999999999
 31
0.0
  0
LINE
  5
25
330
15DC
100
AcDbEntity
  8
OBJECT
100
AcDbLine
 10
29.38000000000001
 20
35.10374999999999
 30
0.0
 11
33.0425
 21
31.44049999999999
 31
0.0
  0
LINE
  5
26
330
15DC
100
AcDbEntity
  8
OBJECT
100
AcDbLine
 10
33.0425
 20
31.44049999999999
 30
0.0
 11
33.0425
 21
15.40299999999999
 31
0.0
  0
LINE
  5
27
330
15DC
100
AcDbEntity
  8
OBJECT
100
AcDbLine
 10
-35.31249999999999
 20
18.02549999999999
 30
0.0
 11
-36.17999999999999
 21
19.52799999999999
 31
0.0
  0
LINE
  5
28
330
15DC
100
AcDbEntity
  8
OBJECT
100
AcDbLine
 10
-36.17999999999999
 20
19.52799999999999
 30
0.0
 11
-36.17999999999999
 21
29.33574999999999
 31
0.0
  0
LINE
  5
29
330
15DC
100
AcDbEntity
  8
OBJECT
100
AcDbLine
 10
-36.17999999999999
 20
29.33574999999999
 30
0.0
 11
-33.90750000000001
 21
31.60874999999999
 31
0.0
  0
LINE
  5
2A
330
15DC
100
AcDbEntity
  8
OBJECT
100
AcDbLine
 10
-33.90750000000001
 20
31.60874999999999
 30
0.0
 11
-29.4875
 21
36.02825000000001
 31
0.0
  0
LINE
  5
2B
330
15DC
100
AcDbEntity
  8
OBJECT
100
AcDbLine
 10
-29.4875
 20
36.02825000000001
 30
0.0
 11
29.82000000000001
 21
36.02825000000001
 31
0.0
  0
LINE
  5
2C
330
15DC
100
AcDbEntity
  8
OBJECT
100
AcDbLine
 10
29.82000000000001
 20
36.02825000000001
 30
0.0
 11
34.15249999999999
 21
31.697
 31
0.0
  0
LINE
  5
2D
330
15DC
100
AcDbEntity
  8
OBJECT
100
AcDbLine
 10
34.15249999999999
 20
31.697
 30
0.0
 11
34.15249999999999
 21
20.93299999999999
 31
0.0
  0
LINE
  5
2E
330
15DC
100
AcDbEntity
  8
OBJECT
100
AcDbLine
 10
-27.2925
 20
2.965499999999992
 30
0.0
 11
-27.2925
 21
4.840499999999992
 31
0.0
  0
LINE
  5
2F
330
15DC
100
AcDbEntity
  8
OBJECT
100
AcDbLine
 10
-27.2925
 20
4.840499999999992
 30
0.0
 11
-28.87249999999999
 21
7.577999999999975
 31
0.0
  0
LINE
  5
30
330
15DC
100
AcDbEntity
  8
OBJECT
100
AcDbLine
 10
-28.87249999999999
 20
7.577999999999975
 30
0.0
 11
-28.87249999999999
 21
9.387999999999977
 31
0.0
  0
LINE
  5
31
330
15DC
100
AcDbEntity
  8
OBJECT
100
AcDbLine
 10
-24.7925
 20
2.965499999999992
 30
0.0
 11
-24.7925
 21
4.840499999999992
 31
0.0
  0
LINE
  5
32
330
15DC
100
AcDbEntity
  8
OBJECT
100
AcDbLine
 10
-24.7925
 20
4.840499999999992
 30
0.0
 11
-26.40750000000001
 21
7.640499999999975
 31
0.0
  0
LINE
  5
33
330
15DC
100
AcDbEntity
  8
OBJECT
100
AcDbLine
 10
-26.40750000000001
 20
7.640499999999975
 30
0.0
 11
-26.40750000000001
 21
9.325499999999977
 31
0.0
  0
LINE
  5
34
330
15DC
100
AcDbEntity
  8
OBJECT
100
AcDbLine
 10
-22.29000000000001
 20
2.965499999999992
 30
0.0
 11
-22.29000000000001
 21
4.840499999999992
 31
0.0
  0
LINE
  5
35
330
15DC
100
AcDbEntity
  8
OBJECT
100
AcDbLine
 10
-22.29000000000001
 20
4.840499999999992
 30
0.0
 11
-23.85000000000001
 21
7.540500000000009
 31
0.0
  0
LINE
  5
36
330
15DC
100
AcDbEntity
  8
OBJECT
100
AcDbLine
 10
-23.85000000000001
 20
7.540500000000009
 30
0.0
 11
-23.85000000000001
 21
9.340499999999992
 31
0.0
  0
LINE
  5
37
330
15DC
100
AcDbEntity
  8
OBJECT
100
AcDbLine
 10
-19.79000000000001
 20
2.965499999999992
 30
0.0
 11
-19.79000000000001
 21
4.840499999999992
 31
0.0
  0
LINE
  5
38
330
15DC
100
AcDbEntity
  8
OBJECT
100
AcDbLine
 10
-19.79000000000001
 20
4.840499999999992
 30
0.0
 11
-21.33999999999999
 21
7.525499999999994
 31
0.0
  0
LINE
  5
39
330
15DC
100
AcDbEntity
  8
OBJECT
100
AcDbLine
 10
-21.33999999999999
 20
7.525499999999994
 30
0.0
 11
-21.33999999999999
 21
9.245499999999993
 31
0.0
  0
LINE
  5
3A
330
15DC
100
AcDbEntity
  8
OBJECT
100
AcDbLine
 10
-17.28750000000001
 20
2.965499999999992
 30
0.0
 11
-17.28750000000001
 21
4.840499999999992
 31
0.0
  0
LINE
  5
3B
330
15DC
100
AcDbEntity
  8
OBJECT
100
AcDbLine
 10
-17.28750000000001
 20
4.840499999999992
 30
0.0
 11
-18.83749999999999
 21
7.522999999999996
 31
0.0
  0
LINE
  5
3C
330
15DC
100
AcDbEntity
  8
OBJECT
100
AcDbLine
 10
-12.28500000000001
 20
2.965499999999992
 30
0.0
 11
-12.28500000000001
 21
4.840499999999992
 31
0.0
  0
LINE
  5
3D
330
15DC
100
AcDbEntity
  8
OBJECT
100
AcDbLine
 10
-12.28500000000001
 20
4.840499999999992
 30
0.0
 11
-13.85000000000001
 21
7.5505
 31
0.0
  0
LINE
  5
3E
330
15DC
100
AcDbEntity
  8
OBJECT
100
AcDbLine
 10
-9.78500000000001
 20
2.953000000000003
 30
0.0
 11
-9.78500000000001
 21
4.828000000000003
 31
0.0
  0
LINE
  5
3F
330
15DC
100
AcDbEntity
  8
OBJECT
100
AcDbLine
 10
-9.78500000000001
 20
4.828000000000003
 30
0.0
 11
-11.36
 21
7.557999999999993
 31
0.0
  0
LINE
  5
40
330
15DC
100
AcDbEntity
  8
OBJECT
100
AcDbLine
 10
-14.77499999999999
 20
2.920500000000004
 30
0.0
 11
-14.77499999999999
 21
4.795500000000004
 31
0.0
  0
LINE
  5
41
330
15DC
100
AcDbEntity
  8
OBJECT
100
AcDbLine
 10
-14.77499999999999
 20
4.795500000000004
 30
0.0
 11
-16.3575
 21
7.532999999999987
 31
0.0
  0
LINE
  5
42
330
15DC
100
AcDbEntity
  8
OBJECT
100
AcDbLine
 10
0.2399999999999949
 20
2.932999999999993
 30
0.0
 11
0.2399999999999949
 21
7.182999999999993
 31
0.0
  0
LINE
  5
43
330
15DC
100
AcDbEntity
  8
OBJECT
100
AcDbLine
 10
0.2550000000000097
 20
5.120499999999993
 30
0.0
 11
1.597500000000011
 21
5.120499999999993
 31
0.0
  0
LINE
  5
44
330
15DC
100
AcDbEntity
  8
OBJECT
100
AcDbLine
 10
2.75500000000001
 20
2.918000000000006
 30
0.0
 11
2.75500000000001
 21
5.730500000000006
 31
0.0
  0
LINE
  5
45
330
15DC
100
AcDbEntity
  8
OBJECT
100
AcDbLine
 10
2.75500000000001
 20
5.730500000000006
 30
0.0
 11
4.614999999999995
 21
7.590499999999992
 31
0.0
  0
LINE
  5
46
330
15DC
100
AcDbEntity
  8
OBJECT
100
AcDbLine
 10
-7.99499999999999
 20
7.345499999999987
 30
0.0
 11
-2.152499999999989
 21
7.345499999999987
 31
0.0
  0
LINE
  5
47
330
15DC
100
AcDbEntity
  8
OBJECT
100
AcDbLine
 10
10.28500000000001
 20
2.995499999999993
 30
0.0
 11
10.28500000000001
 21
5.402999999999992
 31
0.0
  0
LINE
  5
48
330
15DC
100
AcDbEntity
  8
OBJECT
100
AcDbLine
 10
10.28500000000001
 20
5.402999999999992
 30
0.0
 11
11.81750000000001
 21
5.402999999999992
 31
0.0
  0
LINE
  5
49
330
15DC
100
AcDbEntity
  8
OBJECT
100
AcDbLine
 10
4.535000000000011
 20
6.057999999999993
 30
0.0
 11
6.239999999999995
 21
7.762999999999977
 31
0.0
  0
LINE
  5
4A
330
15DC
100
AcDbEntity
  8
OBJECT
100
AcDbLine
 10
6.239999999999995
 20
7.762999999999977
 30
0.0
 11
16.84750000000001
 21
7.762999999999977
 31
0.0
  0
LINE
  5
4B
330
15DC
100
AcDbEntity
  8
OBJECT
100
AcDbLine
 10
16.84750000000001
 20
7.762999999999977
 30
0.0
 11
20.7325
 21
3.877999999999986
 31
0.0
  0
LINE
  5
4C
330
15DC
100
AcDbEntity
  8
OBJECT
100
AcDbLine
 10
20.94250000000001
 20
9.277999999999992
 30
0.0
 11
20.94250000000001
 21
7.870499999999993
 31
0.0
  0
LINE
  5
4D
330
15DC
100
AcDbEntity
  8
OBJECT
100
AcDbLine
 10
20.94250000000001
 20
7.870499999999993
 30
0.0
 11
21.61499999999999
 21
7.200499999999977
 31
0.0
  0
LINE
  5
4E
330
15DC
100
AcDbEntity
  8
OBJECT
100
AcDbLine
 10
21.61499999999999
 20
7.200499999999977
 30
0.0
 11
29.41000000000001
 21
7.200499999999977
 31
0.0
  0
LINE
  5
4F
330
15DC
100
AcDbEntity
  8
OBJECT
100
AcDbLine
 10
21.78500000000001
 20
9.293000000000006
 30
0.0
 11
21.78500000000001
 21
8.168000000000006
 31
0.0
  0
LINE
  5
50
330
15DC
100
AcDbEntity
  8
OBJECT
100
AcDbLine
 10
21.78500000000001
 20
8.168000000000006
 30
0.0
 11
22.17749999999999
 21
7.777999999999992
 31
0.0
  0
LINE
  5
51
330
15DC
100
AcDbEntity
  8
OBJECT
100
AcDbLine
 10
22.17749999999999
 20
7.777999999999992
 30
0.0
 11
30.69250000000001
 21
7.777999999999992
 31
0.0
  0
LINE
  5
52
330
15DC
100
AcDbEntity
  8
OBJECT
100
AcDbLine
 10
20.06750000000001
 20
9.277999999999992
 30
0.0
 11
20.06750000000001
 21
7.527999999999992
 31
0.0
  0
LINE
  5
53
330
15DC
100
AcDbEntity
  8
OBJECT
100
AcDbLine
 10
20.78500000000001
 20
5.152999999999992
 30
0.0
 11
21.59750000000001
 21
5.965499999999992
 31
0.0
  0
LINE
  5
54
330
15DC
100
AcDbEntity
  8
OBJECT
100
AcDbLine
 10
21.59750000000001
 20
5.965499999999992
 30
0.0
 11
29.34750000000001
 21
5.965499999999992
 31
0.0
  0
LINE
  5
55
330
15DC
100
AcDbEntity
  8
OBJECT
100
AcDbLine
 10
-15.89749999999999
 20
31.85249999999999
 30
0.0
 11
-15.89749999999999
 21
32.869
 31
0.0
  0
LINE
  5
56
330
15DC
100
AcDbEntity
  8
OBJECT
100
AcDbLine
 10
-15.89749999999999
 20
32.869
 30
0.0
 11
-14.61
 21
33.61175
 31
0.0
  0
LINE
  5
57
330
15DC
100
AcDbEntity
  8
OBJECT
100
AcDbLine
 10
-13.89999999999999
 20
31.82374999999999
 30
0.0
 11
-11.45999999999999
 21
33.233
 31
0.0
  0
LINE
  5
58
330
15DC
100
AcDbEntity
  8
OBJECT
100
AcDbLine
 10
-11.45999999999999
 20
33.233
 30
0.0
 11
-7.670000000000002
 21
33.233
 31
0.0
  0
LINE
  5
59
330
15DC
100
AcDbEntity
  8
OBJECT
100
AcDbLine
 10
-5.790000000000006
 20
32.71350000000001
 30
0.0
 11
-4.287500000000009
 21
34.21625
 31
0.0
  0
LINE
  5
5A
330
15DC
100
AcDbEntity
  8
OBJECT
100
AcDbLine
 10
-4.287500000000009
 20
34.21625
 30
0.0
 11
4.595000000000013
 21
34.21625
 31
0.0
  0
LINE
  5
5B
330
15DC
100
AcDbEntity
  8
OBJECT
100
AcDbLine
 10
4.595000000000013
 20
34.21625
 30
0.0
 11
5.722500000000011
 21
33.08924999999999
 31
0.0
  0
LINE
  5
5C
330
15DC
100
AcDbEntity
  8
OBJECT
100
AcDbLine
 10
0.3500000000000085
 20
32.07124999999999
 30
0.0
 11
0.3500000000000085
 21
33.17599999999999
 31
0.0
  0
LINE
  5
5D
330
15DC
100
AcDbEntity
  8
OBJECT
100
AcDbLine
 10
10.9575
 20
31.88675000000001
 30
0.0
 11
12.11499999999999
 21
33.04300000000001
 31
0.0
  0
LINE
  5
5E
330
15DC
100
AcDbEntity
  8
OBJECT
100
AcDbLine
 10
12.11499999999999
 20
33.04300000000001
 30
0.0
 11
27.0825
 21
33.04300000000001
 31
0.0
  0
LINE
  5
5F
330
15DC
100
AcDbEntity
  8
OBJECT
100
AcDbLine
 10
8.302499999999995
 20
31.87125
 30
0.0
 11
9.552499999999995
 21
33.12125
 31
0.0
  0
LINE
  5
60
330
15DC
100
AcDbEntity
  8
OBJECT
100
AcDbLine
 10
-27.68249999999999
 20
33.58349999999999
 30
0.0
 11
-18.86999999999999
 21
33.58349999999999
 31
0.0
  0
LINE
  5
61
330
15DC
100
AcDbEntity
  8
OBJECT
100
AcDbLine
 10
-30.78750000000001
 20
31.92949999999999
 30
0.0
 11
30.78750000000001
 21
31.92949999999999
 31
0.0
  0
LINE
  5
62
330
15DC
100
AcDbEntity
  8
OBJECT
100
AcDbLine
 10
30.78750000000001
 20
31.92949999999999
 30
0.0
 11
30.78750000000001
 21
9.3305
 31
0.0
  0
LINE
  5
63
330
15DC
100
AcDbEntity
  8
OBJECT
100
AcDbLine
 10
30.78750000000001
 20
9.3305
 30
0.0
 11
-30.78750000000001
 21
9.3305
 31
0.0
  0
LINE
  5
64
330
15DC
100
AcDbEntity
  8
OBJECT
100
AcDbLine
 10
-30.78750000000001
 20
9.3305
 30
0.0
 11
-30.78750000000001
 21
31.92949999999999
 31
0.0
  0
LINE
  5
1471
330
15DC
100
AcDbEntity
  8
OBJECT
100
AcDbLine
 10
-28.21499999999999
 20
27.80849999999998
 30
0.0
 11
28.22000000000001
 21
27.80849999999998
 31
0.0
  0
LINE
  5
1472
330
15DC
100
AcDbEntity
  8
OBJECT
100
AcDbLine
 10
28.22000000000001
 20
27.80849999999998
 30
0.0
 11
28.22000000000001
 21
13.45124999999999
 31
0.0
  0
LINE
  5
1473
330
15DC
100
AcDbEntity
  8
OBJECT
100
AcDbLine
 10
28.22000000000001
 20
13.45124999999999
 30
0.0
 11
-28.21499999999999
 21
13.45124999999999
 31
0.0
  0
LINE
  5
1474
330
15DC
100
AcDbEntity
  8
OBJECT
100
AcDbLine
 10
-28.21499999999999
 20
13.45124999999999
 30
0.0
 11
-28.21499999999999
 21
27.80849999999998
 31
0.0
  0
LINE
  5
1475
330
15DC
100
AcDbEntity
  8
OBJECT
100
AcDbLine
 10
-4.774999999999991
 20
2.932999999999993
 30
0.0
 11
-4.774999999999991
 21
7.340499999999992
 31
0.0
  0
LINE
  5
1476
330
15DC
100
AcDbEntity
  8
OBJECT
100
AcDbLine
 10
-7.292500000000004
 20
2.947999999999979
 30
0.0
 11
-7.292500000000004
 21
4.052999999999997
 31
0.0
  0
LINE
  5
1477
330
15DC
100
AcDbEntity
  8
OBJECT
100
AcDbLine
 10
-7.292500000000004
 20
4.052999999999997
 30
0.0
 11
-6.232500000000002
 21
5.115499999999997
 31
0.0
  0
ARC
  5
1478
330
15DC
100
AcDbEntity
  8
OBJECT
100
AcDbCircle
 10
-33.65350867703721
 20
3.354522832422106
 30
0.0
 40
1.091014218085574
100
AcDbArc
 50
0.1826074865452372
 51
90.47219429514209
  0
ARC
  5
1479
330
15DC
100
AcDbEntity
  8
OBJECT
100
AcDbCircle
 10
-33.65932998159214
 20
3.362333963159159
 30
0.0
 40
1.09683854406933
100
AcDbArc
 50
269.834406869099
 51
359.773605290318
  0
ARC
  5
147A
330
15DC
100
AcDbEntity
  8
OBJECT
100
AcDbCircle
 10
-33.6686870891847
 20
3.369353964306612
 30
0.0
 40
1.103871303453437
100
AcDbArc
 50
180.5893311153056
 51
270.3211388435764
  0
ARC
  5
147B
330
15DC
100
AcDbEntity
  8
OBJECT
100
AcDbCircle
 10
-33.67450040295391
 20
3.347515928532317
 30
0.0
 40
1.098049648635166
100
AcDbArc
 50
89.37381143874835
 51
179.4529371462312
  0
ARC
  5
147D
330
15DC
100
AcDbEntity
  8
OBJECT
100
AcDbCircle
 10
33.67552670820571
 20
3.351095687370332
 30
0.0
 40
1.089482194211007
100
AcDbArc
 50
0.2316230719620487
 51
90.68508984403795
  0
ARC
  5
147E
330
15DC
100
AcDbEntity
  8
OBJECT
100
AcDbCircle
 10
33.66921311752198
 20
3.358771201768462
 30
0.0
 40
1.095791765150646
100
AcDbArc
 50
269.6489883209425
 51
359.8289580743239
  0
ARC
  5
147F
330
15DC
100
AcDbEntity
  8
OBJECT
100
AcDbCircle
 10
33.65665867932377
 20
3.364681452952937
 30
0.0
 40
1.101696938730309
100
AcDbArc
 50
180.4775039080112
 51
270.3037900695805
  0
ARC
  5
1480
330
15DC
100
AcDbEntity
  8
OBJECT
100
AcDbCircle
 10
33.65032641997674
 20
3.345192732604374
 30
0.0
 40
1.095374915752702
100
AcDbArc
 50
89.3632233987749
 51
179.4608497719665
  0
ARC
  5
1482
330
15DC
100
AcDbEntity
  8
OBJECT
100
AcDbCircle
 10
-35.14438452101662
 20
35.23640141858118
 30
0.0
 40
1.091900184604953
100
AcDbArc
 50
0.306896764494929
 51
90.5570396759124
  0
ARC
  5
1483
330
15DC
100
AcDbEntity
  8
OBJECT
100
AcDbCircle
 10
-35.1510947840339
 20
35.24709854230616
 30
0.0
 40
1.098605483269131
100
AcDbArc
 50
269.7963301043243
 51
359.7471322353696
  0
ARC
  5
1484
330
15DC
100
AcDbEntity
  8
OBJECT
100
AcDbCircle
 10
-35.16156878459047
 20
35.25195433632419
 30
0.0
 40
1.103473887902953
100
AcDbArc
 50
180.5038856721658
 51
270.3410736407408
  0
ARC
  5
1485
330
15DC
100
AcDbEntity
  8
OBJECT
100
AcDbCircle
 10
-35.16826064474866
 20
35.23153850430111
 30
0.0
 40
1.096791661847054
100
AcDbArc
 50
89.30725449889758
 51
179.440428594032
  0
ARC
  5
1487
330
15DC
100
AcDbEntity
  8
OBJECT
100
AcDbCircle
 10
35.15968769389163
 20
35.23774752073251
 30
0.0
 40
1.090320598920923
100
AcDbArc
 50
0.2234661368916797
 51
90.64047030351564
  0
ARC
  5
1488
330
15DC
100
AcDbEntity
  8
OBJECT
100
AcDbCircle
 10
35.15299709836633
 20
35.24524392484676
 30
0.0
 40
1.097007697895105
100
AcDbArc
 50
269.7128900237518
 51
359.8305723159421
  0
ARC
  5
1489
330
15DC
100
AcDbEntity
  8
OBJECT
100
AcDbCircle
 10
35.14287899228732
 20
35.25115732819035
 30
0.0
 40
1.102917008794529
100
AcDbArc
 50
180.4757223627781
 51
270.2400588725732
  0
ARC
  5
148A
330
15DC
100
AcDbEntity
  8
OBJECT
100
AcDbCircle
 10
35.13616792120668
 20
35.23184360245267
 30
0.0
 40
1.096214971569772
100
AcDbArc
 50
89.40769660205517
 51
179.4691487936074
  0
LINE
  5
148C
330
15DC
100
AcDbEntity
  8
OBJECT
100
AcDbLine
 10
-37.2025
 20
36.3015
 30
0.0
 11
-35.05957500000001
 21
36.3015
 31
0.0
  0
LINE
  5
148D
330
15DC
100
AcDbEntity
  8
OBJECT
100
AcDbLine
 10
-35.05957500000001
 20
36.3015
 30
0.0
 11
-35.05957500000001
 21
34.177425
 31
0.0
  0
LINE
  5
148E
330
15DC
100
AcDbEntity
  8
OBJECT
100
AcDbLine
 10
-35.05957500000001
 20
34.177425
 30
0.0
 11
-37.2025
 21
34.177425
 31
0.0
  0
LINE
  5
148F
330
15DC
100
AcDbEntity
  8
OBJECT
100
AcDbLine
 10
-37.2025
 20
34.177425
 30
0.0
 11
-37.2025
 21
36.3015
 31
0.0
  0
LINE
  5
1490
330
15DC
100
AcDbEntity
  8
OBJECT
100
AcDbLine
 10
35.06250000000001
 20
36.30275
 30
0.0
 11
37.20575000000001
 21
36.30275
 31
0.0
  0
LINE
  5
1491
330
15DC
100
AcDbEntity
  8
OBJECT
100
AcDbLine
 10
37.20575000000001
 20
36.30275
 30
0.0
 11
37.20575000000001
 21
34.178675
 31
0.0
  0
LINE
  5
1492
330
15DC
100
AcDbEntity
  8
OBJECT
100
AcDbLine
 10
37.20575000000001
 20
34.178675
 30
0.0
 11
35.06250000000001
 21
34.178675
 31
0.0
  0
LINE
  5
1493
330
15DC
100
AcDbEntity
  8
OBJECT
100
AcDbLine
 10
35.06250000000001
 20
34.178675
 30
0.0
 11
35.06250000000001
 21
36.30275
 31
0.0
  0
ARC
  5
1494
330
15DC
100
AcDbEntity
  8
OBJECT
100
AcDbCircle
 10
-34.55480082058322
 20
15.57318085115077
 30
0.0
 40
0.4348275264693864
100
AcDbArc
 50
0.6350162443983347
 51
90.35566419447443
  0
ARC
  5
1495
330
15DC
100
AcDbEntity
  8
OBJECT
100
AcDbCircle
 10
-34.55480082058322
 20
15.58281914884924
 30
0.0
 40
0.4348275264693943
100
AcDbArc
 50
269.6443358055265
 51
359.3649837556011
  0
ARC
  5
1496
330
15DC
100
AcDbEntity
  8
OBJECT
100
AcDbCircle
 10
-34.56283308279255
 20
15.58774250734257
 30
0.0
 40
0.4397748452742835
100
AcDbArc
 50
181.2694000744155
 51
270.6948342520307
  0
ARC
  5
1497
330
15DC
100
AcDbEntity
  8
OBJECT
100
AcDbCircle
 10
-34.56283308279255
 20
15.56825749265741
 30
0.0
 40
0.4397748452742729
100
AcDbArc
 50
89.3051657479693
 51
178.7305999255839
  0
ARC
  5
1499
330
15DC
100
AcDbEntity
  8
OBJECT
100
AcDbCircle
 10
-34.55571802415763
 20
18.54729125449077
 30
0.0
 40
0.4332299072118546
100
AcDbArc
 50
0.4243688006882781
 51
90.56631163818389
  0
ARC
  5
149A
330
15DC
100
AcDbEntity
  8
OBJECT
100
AcDbCircle
 10
-34.55571802415763
 20
18.5537087455092
 30
0.0
 40
0.4332299072118477
100
AcDbArc
 50
269.4336883618151
 51
359.5756311993134
  0
ARC
  5
149B
330
15DC
100
AcDbEntity
  8
OBJECT
100
AcDbCircle
 10
-34.56374989403186
 20
18.56188092361816
 30
0.0
 40
0.4413968525480166
100
AcDbArc
 50
181.4774712583579
 51
270.4867630680899
  0
ARC
  5
149C
330
15DC
100
AcDbEntity
  8
OBJECT
100
AcDbCircle
 10
-34.56374989403189
 20
18.53911907638184
 30
0.0
 40
0.4413968525479973
100
AcDbArc
 50
89.51323693190731
 51
178.5225287416441
  0
ARC
  5
149E
330
15DC
100
AcDbEntity
  8
OBJECT
100
AcDbCircle
 10
-34.55480082058322
 20
24.74318085115078
 30
0.0
 40
0.4348275264693793
100
AcDbArc
 50
0.6350162443983347
 51
90.35566419447537
  0
ARC
  5
149F
330
15DC
100
AcDbEntity
  8
OBJECT
100
AcDbCircle
 10
-34.55480082058322
 20
24.7528191488492
 30
0.0
 40
0.4348275264693838
100
AcDbArc
 50
269.6443358055246
 51
359.3649837556028
  0
ARC
  5
14A0
330
15DC
100
AcDbEntity
  8
OBJECT
100
AcDbCircle
 10
-34.56283308279255
 20
24.75774250734258
 30
0.0
 40
0.4397748452742835
100
AcDbArc
 50
181.2694000744158
 51
270.6948342520307
  0
ARC
  5
14A1
330
15DC
100
AcDbEntity
  8
OBJECT
100
AcDbCircle
 10
-34.56283308279255
 20
24.7382574926574
 30
0.0
 40
0.4397748452742799
100
AcDbArc
 50
89.30516574797021
 51
178.7305999255828
  0
ARC
  5
14A3
330
15DC
100
AcDbEntity
  8
OBJECT
100
AcDbCircle
 10
-34.55453766508221
 20
27.71194300704664
 30
0.0
 40
0.4345670898179353
100
AcDbArc
 50
0.6667575612482395
 51
90.39057399144275
  0
ARC
  5
14A4
330
15DC
100
AcDbEntity
  8
OBJECT
100
AcDbCircle
 10
-34.55458907292375
 20
27.72185645876473
 30
0.0
 40
0.4346162071258632
100
AcDbArc
 50
269.6162474381024
 51
359.3597560861818
  0
ARC
  5
14A5
330
15DC
100
AcDbEntity
  8
OBJECT
100
AcDbCircle
 10
-34.56338686964249
 20
27.72898654935426
 30
0.0
 40
0.4417757737468039
100
AcDbArc
 50
181.5547773853437
 51
270.7635157651815
  0
ARC
  5
14A6
330
15DC
100
AcDbEntity
  8
OBJECT
100
AcDbCircle
 10
-34.56343580579077
 20
27.70480738787279
 30
0.0
 40
0.4417324952934033
100
AcDbArc
 50
89.2300614979265
 51
178.4183324569788
  0
ARC
  5
14A8
330
15DC
100
AcDbEntity
  8
OBJECT
100
AcDbCircle
 10
-27.29821802415763
 20
2.109791254490744
 30
0.0
 40
0.4332299072118618
100
AcDbArc
 50
0.4243688006899959
 51
90.56631163818292
  0
ARC
  5
14A9
330
15DC
100
AcDbEntity
  8
OBJECT
100
AcDbCircle
 10
-27.29821802415763
 20
2.116208745509198
 30
0.0
 40
0.4332299072118405
100
AcDbArc
 50
269.4336883618161
 51
359.5756311993134
  0
LINE
  5
14AA
330
15DC
100
AcDbEntity
  8
OBJECT
100
AcDbLine
 10
-27.30249999999999
 20
1.682999999999993
 30
0.0
 11
-27.30249999999999
 21
2.543000000000006
 31
0.0
  0
ARC
  5
14AB
330
15DC
100
AcDbEntity
  8
OBJECT
100
AcDbCircle
 10
-24.79321802415767
 20
2.109791254490744
 30
0.0
 40
0.4332299072118759
100
AcDbArc
 50
0.4243688006882781
 51
90.56631163818108
  0
ARC
  5
14AC
330
15DC
100
AcDbEntity
  8
OBJECT
100
AcDbCircle
 10
-24.79321802415764
 20
2.116208745509198
 30
0.0
 40
0.4332299072118476
100
AcDbArc
 50
269.4336883618161
 51
359.5756311993126
  0
LINE
  5
14AD
330
15DC
100
AcDbEntity
  8
OBJECT
100
AcDbLine
 10
-24.7975
 20
1.682999999999993
 30
0.0
 11
-24.7975
 21
2.543000000000006
 31
0.0
  0
ARC
  5
14AE
330
15DC
100
AcDbEntity
  8
OBJECT
100
AcDbCircle
 10
-22.28980082058324
 20
2.108180851150763
 30
0.0
 40
0.4348275264693935
100
AcDbArc
 50
0.6350162443989087
 51
90.35566419447349
  0
ARC
  5
14AF
330
15DC
100
AcDbEntity
  8
OBJECT
100
AcDbCircle
 10
-22.28980082058324
 20
2.117819148849208
 30
0.0
 40
0.4348275264693944
100
AcDbArc
 50
269.6443358055246
 51
359.3649837556011
  0
ARC
  5
14B0
330
15DC
100
AcDbEntity
  8
OBJECT
100
AcDbCircle
 10
-22.29783308279256
 20
2.122742507342593
 30
0.0
 40
0.4397748452742837
100
AcDbArc
 50
181.2694000744172
 51
270.6948342520307
  0
ARC
  5
14B1
330
15DC
100
AcDbEntity
  8
OBJECT
100
AcDbCircle
 10
-22.29783308279256
 20
2.103257492657406
 30
0.0
 40
0.43977484527428
100
AcDbArc
 50
89.30516574796931
 51
178.7305999255828
  0
ARC
  5
14B3
330
15DC
100
AcDbEntity
  8
OBJECT
100
AcDbCircle
 10
-17.28071802415762
 20
2.109791254490801
 30
0.0
 40
0.43322990721184
100
AcDbArc
 50
0.4243688006814074
 51
90.56631163818582
  0
ARC
  5
14B4
330
15DC
100
AcDbEntity
  8
OBJECT
100
AcDbCircle
 10
-17.28071802415759
 20
2.116208745509169
 30
0.0
 40
0.4332299072118055
100
AcDbArc
 50
269.4336883618085
 51
359.5756311993187
  0
ARC
  5
14B5
330
15DC
100
AcDbEntity
  8
OBJECT
100
AcDbCircle
 10
-17.28874989403188
 20
2.124380923618162
 30
0.0
 40
0.4413968525480095
100
AcDbArc
 50
181.4774712583579
 51
270.4867630680908
  0
ARC
  5
14B6
330
15DC
100
AcDbEntity
  8
OBJECT
100
AcDbCircle
 10
-17.28874989403188
 20
2.101619076381837
 30
0.0
 40
0.4413968525479972
100
AcDbArc
 50
89.51323693190915
 51
178.5225287416441
  0
ARC
  5
14B8
330
15DC
100
AcDbEntity
  8
OBJECT
100
AcDbCircle
 10
-19.78480082058324
 20
2.108180851150763
 30
0.0
 40
0.4348275264693864
100
AcDbArc
 50
0.6350162443989087
 51
90.35566419447443
  0
ARC
  5
14B9
330
15DC
100
AcDbEntity
  8
OBJECT
100
AcDbCircle
 10
-19.78480082058324
 20
2.117819148849208
 30
0.0
 40
0.4348275264693943
100
AcDbArc
 50
269.6443358055274
 51
359.3649837556011
  0
ARC
  5
14BA
330
15DC
100
AcDbEntity
  8
OBJECT
100
AcDbCircle
 10
-19.79317658088196
 20
2.124948500128625
 30
0.0
 40
0.4419849548757027
100
AcDbArc
 50
181.5491071255391
 51
270.7358917205462
  0
ARC
  5
14BB
330
15DC
100
AcDbEntity
  8
OBJECT
100
AcDbCircle
 10
-19.79317658088196
 20
2.101051499871346
 30
0.0
 40
0.4419849548756872
100
AcDbArc
 50
89.26410827945196
 51
178.4508928744599
  0
ARC
  5
14BD
330
15DC
100
AcDbEntity
  8
OBJECT
100
AcDbCircle
 10
-14.77571802415763
 20
2.109791254490744
 30
0.0
 40
0.4332299072118547
100
AcDbArc
 50
0.4243688006899959
 51
90.56631163818388
  0
ARC
  5
14BE
330
15DC
100
AcDbEntity
  8
OBJECT
100
AcDbCircle
 10
-14.77571802415765
 20
2.116208745509226
 30
0.0
 40
0.4332299072118615
100
AcDbArc
 50
269.4336883618199
 51
359.57563119931
  0
ARC
  5
14BF
330
15DC
100
AcDbEntity
  8
OBJECT
100
AcDbCircle
 10
-14.78374989403189
 20
2.124380923618162
 30
0.0
 40
0.4413968525479732
100
AcDbArc
 50
181.4774712583542
 51
270.4867630680946
  0
ARC
  5
14C0
330
15DC
100
AcDbEntity
  8
OBJECT
100
AcDbCircle
 10
-14.78374989403189
 20
2.101619076381837
 30
0.0
 40
0.4413968525479831
100
AcDbArc
 50
89.51323693190729
 51
178.5225287416458
  0
ARC
  5
14C2
330
15DC
100
AcDbEntity
  8
OBJECT
100
AcDbCircle
 10
-12.27071802415766
 20
2.109791254490744
 30
0.0
 40
0.4332299072118688
100
AcDbArc
 50
0.4243688006882781
 51
90.56631163818201
  0
ARC
  5
14C3
330
15DC
100
AcDbEntity
  8
OBJECT
100
AcDbCircle
 10
-12.27071802415766
 20
2.116208745509226
 30
0.0
 40
0.4332299072118617
100
AcDbArc
 50
269.433688361818
 51
359.5756311993118
  0
LINE
  5
14C4
330
15DC
100
AcDbEntity
  8
OBJECT
100
AcDbLine
 10
-12.27499999999999
 20
1.682999999999993
 30
0.0
 11
-12.27499999999999
 21
2.543000000000006
 31
0.0
  0
ARC
  5
14C5
330
15DC
100
AcDbEntity
  8
OBJECT
100
AcDbCircle
 10
-9.765718024157664
 20
2.109791254490744
 30
0.0
 40
0.4332299072118831
100
AcDbArc
 50
0.4243688006899959
 51
90.56631163818014
  0
ARC
  5
14C6
330
15DC
100
AcDbEntity
  8
OBJECT
100
AcDbCircle
 10
-9.765718024157664
 20
2.116208745509226
 30
0.0
 40
0.4332299072118615
100
AcDbArc
 50
269.4336883618199
 51
359.57563119931
  0
LINE
  5
14C7
330
15DC
100
AcDbEntity
  8
OBJECT
100
AcDbLine
 10
-9.769999999999996
 20
1.682999999999993
 30
0.0
 11
-9.769999999999996
 21
2.543000000000006
 31
0.0
  0
ARC
  5
14C8
330
15DC
100
AcDbEntity
  8
OBJECT
100
AcDbCircle
 10
-7.262300820583235
 20
2.108180851150735
 30
0.0
 40
0.4348275264693867
100
AcDbArc
 50
0.6350162444017784
 51
90.35566419447441
  0
ARC
  5
14C9
330
15DC
100
AcDbEntity
  8
OBJECT
100
AcDbCircle
 10
-7.262300820583235
 20
2.117819148849236
 30
0.0
 40
0.4348275264694086
100
AcDbArc
 50
269.6443358055256
 51
359.3649837555988
  0
ARC
  5
14CA
330
15DC
100
AcDbEntity
  8
OBJECT
100
AcDbCircle
 10
-7.270333082792561
 20
2.122742507342537
 30
0.0
 40
0.4397748452742547
100
AcDbArc
 50
181.2694000744135
 51
270.6948342520335
  0
ARC
  5
14CB
330
15DC
100
AcDbEntity
  8
OBJECT
100
AcDbCircle
 10
-7.270333082792533
 20
2.103257492657406
 30
0.0
 40
0.439774845274287
100
AcDbArc
 50
89.30516574797024
 51
178.7305999255819
  0
ARC
  5
14CD
330
15DC
100
AcDbEntity
  8
OBJECT
100
AcDbCircle
 10
-4.757300820583239
 20
2.108180851150735
 30
0.0
 40
0.4348275264693868
100
AcDbArc
 50
0.6350162444029263
 51
90.35566419447441
  0
ARC
  5
14CE
330
15DC
100
AcDbEntity
  8
OBJECT
100
AcDbCircle
 10
-4.757300820583239
 20
2.117819148849236
 30
0.0
 40
0.4348275264694085
100
AcDbArc
 50
269.6443358055275
 51
359.3649837555994
  0
ARC
  5
14CF
330
15DC
100
AcDbEntity
  8
OBJECT
100
AcDbCircle
 10
-4.765676580881987
 20
2.124948500128625
 30
0.0
 40
0.4419849548756885
100
AcDbArc
 50
181.5491071255394
 51
270.735891720549
  0
ARC
  5
14D0
330
15DC
100
AcDbEntity
  8
OBJECT
100
AcDbCircle
 10
-4.765676580881987
 20
2.101051499871346
 30
0.0
 40
0.4419849548756803
100
AcDbArc
 50
89.26410827944919
 51
178.4508928744606
  0
ARC
  5
14D2
330
15DC
100
AcDbEntity
  8
OBJECT
100
AcDbCircle
 10
-2.253218024157647
 20
2.109791254490801
 30
0.0
 40
0.4332299072118544
100
AcDbArc
 50
0.4243688006848427
 51
90.56631163818393
  0
ARC
  5
14D3
330
15DC
100
AcDbEntity
  8
OBJECT
100
AcDbCircle
 10
-2.25321802415759
 20
2.116208745509198
 30
0.0
 40
0.4332299072118196
100
AcDbArc
 50
269.4336883618104
 51
359.575631199316
  0
ARC
  5
14D4
330
15DC
100
AcDbEntity
  8
OBJECT
100
AcDbCircle
 10
-2.261249894031849
 20
2.12438092361819
 30
0.0
 40
0.4413968525480313
100
AcDbArc
 50
181.4774712583604
 51
270.4867630680872
  0
ARC
  5
14D5
330
15DC
100
AcDbEntity
  8
OBJECT
100
AcDbCircle
 10
-2.26124989403182
 20
2.10161907638178
 30
0.0
 40
0.4413968525480323
100
AcDbArc
 50
89.51323693191472
 51
178.5225287416396
  0
ARC
  5
14D7
330
15DC
100
AcDbEntity
  8
OBJECT
100
AcDbCircle
 10
0.2517819758423485
 20
2.109791254490773
 30
0.0
 40
0.4332299072118688
100
AcDbArc
 50
0.4243688006874193
 51
90.56631163818201
  0
ARC
  5
14D8
330
15DC
100
AcDbEntity
  8
OBJECT
100
AcDbCircle
 10
0.2517819758423485
 20
2.116208745509226
 30
0.0
 40
0.4332299072118617
100
AcDbArc
 50
269.433688361818
 51
359.5756311993118
  0
ARC
  5
14D9
330
15DC
100
AcDbEntity
  8
OBJECT
100
AcDbCircle
 10
0.2437501059681182
 20
2.124380923618162
 30
0.0
 40
0.4413968525479736
100
AcDbArc
 50
181.4774712583561
 51
270.4867630680944
  0
ARC
  5
14DA
330
15DC
100
AcDbEntity
  8
OBJECT
100
AcDbCircle
 10
0.2437501059681182
 20
2.101619076381837
 30
0.0
 40
0.4413968525479831
100
AcDbArc
 50
89.51323693190729
 51
178.5225287416458
  0
ARC
  5
14DC
330
15DC
100
AcDbEntity
  8
OBJECT
100
AcDbCircle
 10
2.756781975842344
 20
2.109791254490744
 30
0.0
 40
0.4332299072118689
100
AcDbArc
 50
0.4243688006908547
 51
90.56631163818199
  0
ARC
  5
14DD
330
15DC
100
AcDbEntity
  8
OBJECT
100
AcDbCircle
 10
2.756781975842344
 20
2.116208745509226
 30
0.0
 40
0.4332299072118617
100
AcDbArc
 50
269.433688361818
 51
359.5756311993118
  0
LINE
  5
14DE
330
15DC
100
AcDbEntity
  8
OBJECT
100
AcDbLine
 10
2.752500000000012
 20
1.682999999999993
 30
0.0
 11
2.752500000000012
 21
2.543000000000006
 31
0.0
  0
ARC
  5
14DF
330
15DC
100
AcDbEntity
  8
OBJECT
100
AcDbCircle
 10
5.261781975842339
 20
2.109791254490744
 30
0.0
 40
0.4332299072118689
100
AcDbArc
 50
0.4243688006908547
 51
90.56631163818199
  0
ARC
  5
14E0
330
15DC
100
AcDbEntity
  8
OBJECT
100
AcDbCircle
 10
5.261781975842339
 20
2.116208745509226
 30
0.0
 40
0.4332299072118686
100
AcDbArc
 50
269.4336883618199
 51
359.5756311993092
  0
LINE
  5
14E1
330
15DC
100
AcDbEntity
  8
OBJECT
100
AcDbLine
 10
5.257500000000007
 20
1.682999999999993
 30
0.0
 11
5.257500000000007
 21
2.543000000000006
 31
0.0
  0
ARC
  5
14E2
330
15DC
100
AcDbEntity
  8
OBJECT
100
AcDbCircle
 10
7.765199179416769
 20
2.108180851150792
 30
0.0
 40
0.4348275264693721
100
AcDbArc
 50
0.6350162443971866
 51
90.3556641944763
  0
ARC
  5
14E3
330
15DC
100
AcDbEntity
  8
OBJECT
100
AcDbCircle
 10
7.765199179416769
 20
2.117819148849208
 30
0.0
 40
0.4348275264693803
100
AcDbArc
 50
269.6443358055237
 51
359.3649837556028
  0
ARC
  5
14E4
330
15DC
100
AcDbEntity
  8
OBJECT
100
AcDbCircle
 10
7.757166917207442
 20
2.122742507342565
 30
0.0
 40
0.4397748452742835
100
AcDbArc
 50
181.2694000744155
 51
270.6948342520298
  0
ARC
  5
14E5
330
15DC
100
AcDbEntity
  8
OBJECT
100
AcDbCircle
 10
7.757166917207442
 20
2.103257492657406
 30
0.0
 40
0.4397748452742729
100
AcDbArc
 50
89.30516574797021
 51
178.7305999255839
  0
ARC
  5
14E7
330
15DC
100
AcDbEntity
  8
OBJECT
100
AcDbCircle
 10
10.27019917941676
 20
2.108180851150735
 30
0.0
 40
0.4348275264694009
100
AcDbArc
 50
0.6350162444017784
 51
90.35566419447252
  0
ARC
  5
14E8
330
15DC
100
AcDbEntity
  8
OBJECT
100
AcDbCircle
 10
10.27019917941676
 20
2.117819148849208
 30
0.0
 40
0.4348275264693943
100
AcDbArc
 50
269.6443358055274
 51
359.3649837556011
  0
ARC
  5
14E9
330
15DC
100
AcDbEntity
  8
OBJECT
100
AcDbCircle
 10
10.26182341911802
 20
2.124948500128596
 30
0.0
 40
0.4419849548756737
100
AcDbArc
 50
181.5491071255365
 51
270.7358917205509
  0
ARC
  5
14EA
330
15DC
100
AcDbEntity
  8
OBJECT
100
AcDbCircle
 10
10.26182341911802
 20
2.101051499871375
 30
0.0
 40
0.4419849548756732
100
AcDbArc
 50
89.26410827944918
 51
178.4508928744616
  0
LINE
  5
14EB
330
15DC
100
AcDbEntity
  8
0
 62
     9
420
 12632256
100
AcDbLine
 10
-24.65178749999975
 20
25.49254999999993
 30
0.0
 11
-21.99321249999977
 21
25.49254999999993
 31
0.0
  0
LINE
  5
14EC
330
15DC
100
AcDbEntity
  8
0
 62
     9
420
 12632256
100
AcDbLine
 10
-24.65178749999975
 20
25.49254999999993
 30
0.0
 11
-24.65178749999975
 21
20.85969999999994
 31
0.0
  0
LINE
  5
14ED
330
15DC
100
AcDbEntity
  8
0
 62
     9
420
 12632256
100
AcDbLine
 10
-24.65178749999976
 20
20.85969999999994
 30
0.0
 11
-21.99321249999978
 21
20.85969999999994
 31
0.0
  0
LINE
  5
14EE
330
15DC
100
AcDbEntity
  8
0
 62
     9
420
 12632256
100
AcDbLine
 10
-21.99321249999977
 20
25.49254999999993
 30
0.0
 11
-21.99321249999978
 21
20.85969999999994
 31
0.0
  0
LINE
  5
14EF
330
15DC
100
AcDbEntity
  8
0
 62
     9
420
 12632256
100
AcDbLine
 10
-24.65178749999975
 20
20.40004999999993
 30
0.0
 11
-24.65178749999975
 21
15.76719999999994
 31
0.0
  0
LINE
  5
14F1
330
15DC
100
AcDbEntity
  8
0
 62
     9
420
 12632256
100
AcDbLine
 10
-21.99321249999978
 20
20.40004999999993
 30
0.0
 11
-21.99321249999978
 21
15.76719999999995
 31
0.0
  0
LINE
  5
14F3
330
15DC
100
AcDbEntity
  8
0
 62
     9
420
 12632256
100
AcDbLine
 10
-21.54178749999978
 20
25.49254999999993
 30
0.0
 11
-18.88321249999979
 21
25.49254999999993
 31
0.0
  0
LINE
  5
14F4
330
15DC
100
AcDbEntity
  8
0
 62
     9
420
 12632256
100
AcDbLine
 10
-21.54178749999978
 20
20.85969999999995
 30
0.0
 11
-18.8832124999998
 21
20.85969999999995
 31
0.0
  0
LINE
  5
14F6
330
15DC
100
AcDbEntity
  8
0
 62
     9
420
 12632256
100
AcDbLine
 10
-21.54178749999978
 20
25.49254999999993
 30
0.0
 11
-21.54178749999978
 21
20.85969999999995
 31
0.0
  0
LINE
  5
14FF
330
15DC
100
AcDbEntity
  8
0
 62
     9
420
 12632256
100
AcDbLine
 10
-18.8832124999998
 20
25.49254999999993
 30
0.0
 11
-18.88321249999981
 21
20.85969999999995
 31
0.0
  0
LINE
  5
1501
330
15DC
100
AcDbEntity
  8
0
 62
     9
420
 12632256
100
AcDbLine
 10
-18.43178749999981
 20
25.49254999999994
 30
0.0
 11
-15.77321249999983
 21
25.49254999999994
 31
0.0
  0
LINE
  5
1502
330
15DC
100
AcDbEntity
  8
0
 62
     9
420
 12632256
100
AcDbLine
 10
-18.43178749999981
 20
25.49254999999994
 30
0.0
 11
-18.43178749999981
 21
20.85969999999995
 31
0.0
  0
LINE
  5
1503
330
15DC
100
AcDbEntity
  8
0
 62
     9
420
 12632256
100
AcDbLine
 10
-18.43178749999982
 20
20.85969999999995
 30
0.0
 11
-15.77321249999983
 21
20.85969999999995
 31
0.0
  0
LINE
  5
1504
330
15DC
100
AcDbEntity
  8
0
 62
     9
420
 12632256
100
AcDbLine
 10
-15.77321249999983
 20
25.49254999999994
 30
0.0
 11
-15.77321249999983
 21
20.85969999999995
 31
0.0
  0
LINE
  5
1506
330
15DC
100
AcDbEntity
  8
0
 62
     9
420
 12632256
100
AcDbLine
 10
-15.32178749999984
 20
25.49254999999994
 30
0.0
 11
-12.66321249999986
 21
25.49254999999994
 31
0.0
  0
LINE
  5
1507
330
15DC
100
AcDbEntity
  8
0
 62
     9
420
 12632256
100
AcDbLine
 10
-15.32178749999984
 20
25.49254999999994
 30
0.0
 11
-15.32178749999984
 21
20.85969999999995
 31
0.0
  0
LINE
  5
1508
330
15DC
100
AcDbEntity
  8
0
 62
     9
420
 12632256
100
AcDbLine
 10
-15.32178749999984
 20
20.85969999999996
 30
0.0
 11
-12.66321249999986
 21
20.85969999999996
 31
0.0
  0
LINE
  5
1509
330
15DC
100
AcDbEntity
  8
0
 62
     9
420
 12632256
100
AcDbLine
 10
-12.66321249999986
 20
25.49254999999994
 30
0.0
 11
-12.66321249999986
 21
20.85969999999996
 31
0.0
  0
LINE
  5
150B
330
15DC
100
AcDbEntity
  8
0
 62
     9
420
 12632256
100
AcDbLine
 10
-12.21178749999987
 20
25.49254999999996
 30
0.0
 11
-9.553212499999894
 21
25.49254999999996
 31
0.0
  0
LINE
  5
150C
330
15DC
100
AcDbEntity
  8
0
 62
     9
420
 12632256
100
AcDbLine
 10
-12.21178749999987
 20
25.49254999999996
 30
0.0
 11
-12.21178749999987
 21
20.85969999999996
 31
0.0
  0
LINE
  5
150D
330
15DC
100
AcDbEntity
  8
0
 62
     9
420
 12632256
100
AcDbLine
 10
-12.21178749999987
 20
20.85969999999996
 30
0.0
 11
-9.553212499999894
 21
20.85969999999996
 31
0.0
  0
LINE
  5
150E
330
15DC
100
AcDbEntity
  8
0
 62
     9
420
 12632256
100
AcDbLine
 10
-9.553212499999894
 20
25.49254999999996
 30
0.0
 11
-9.553212499999894
 21
20.85969999999996
 31
0.0
  0
LINE
  5
1510
330
15DC
100
AcDbEntity
  8
0
 62
     9
420
 12632256
100
AcDbLine
 10
-9.101787499999903
 20
25.49254999999997
 30
0.0
 11
-6.443212499999921
 21
25.49254999999997
 31
0.0
  0
LINE
  5
1511
330
15DC
100
AcDbEntity
  8
0
 62
     9
420
 12632256
100
AcDbLine
 10
-9.101787499999899
 20
25.49254999999997
 30
0.0
 11
-9.101787499999899
 21
20.85969999999998
 31
0.0
  0
LINE
  5
1512
330
15DC
100
AcDbEntity
  8
0
 62
     9
420
 12632256
100
AcDbLine
 10
-9.101787499999906
 20
20.85969999999998
 30
0.0
 11
-6.443212499999925
 21
20.85969999999998
 31
0.0
  0
LINE
  5
1513
330
15DC
100
AcDbEntity
  8
0
 62
     9
420
 12632256
100
AcDbLine
 10
-6.443212499999921
 20
25.49254999999997
 30
0.0
 11
-6.443212499999925
 21
20.85969999999998
 31
0.0
  0
LINE
  5
1515
330
15DC
100
AcDbEntity
  8
0
 62
     9
420
 12632256
100
AcDbLine
 10
-5.991787499999932
 20
25.49254999999997
 30
0.0
 11
-3.33321249999995
 21
25.49254999999997
 31
0.0
  0
LINE
  5
1516
330
15DC
100
AcDbEntity
  8
0
 62
     9
420
 12632256
100
AcDbLine
 10
-5.991787499999928
 20
25.49254999999997
 30
0.0
 11
-5.991787499999928
 21
20.85969999999998
 31
0.0
  0
LINE
  5
1517
330
15DC
100
AcDbEntity
  8
0
 62
     9
420
 12632256
100
AcDbLine
 10
-5.991787499999935
 20
20.85969999999999
 30
0.0
 11
-3.333212499999954
 21
20.85969999999999
 31
0.0
  0
LINE
  5
1518
330
15DC
100
AcDbEntity
  8
0
 62
     9
420
 12632256
100
AcDbLine
 10
-3.33321249999995
 20
25.49254999999997
 30
0.0
 11
-3.333212499999954
 21
20.85969999999999
 31
0.0
  0
LINE
  5
151A
330
15DC
100
AcDbEntity
  8
0
 62
     9
420
 12632256
100
AcDbLine
 10
-2.881787499999961
 20
25.49254999999998
 30
0.0
 11
-0.2232124999999792
 21
25.49254999999998
 31
0.0
  0
LINE
  5
151B
330
15DC
100
AcDbEntity
  8
0
 62
     9
420
 12632256
100
AcDbLine
 10
-2.881787499999956
 20
25.49254999999998
 30
0.0
 11
-2.881787499999956
 21
20.85969999999999
 31
0.0
  0
LINE
  5
151C
330
15DC
100
AcDbEntity
  8
0
 62
     9
420
 12632256
100
AcDbLine
 10
-2.881787499999963
 20
20.85969999999999
 30
0.0
 11
-0.2232124999999827
 21
20.85969999999999
 31
0.0
  0
LINE
  5
151D
330
15DC
100
AcDbEntity
  8
0
 62
     9
420
 12632256
100
AcDbLine
 10
-0.2232124999999792
 20
25.49254999999998
 30
0.0
 11
-0.2232124999999827
 21
20.85969999999999
 31
0.0
  0
LINE
  5
151F
330
15DC
100
AcDbEntity
  8
0
 62
     9
420
 12632256
100
AcDbLine
 10
0.2282125000000106
 20
25.49254999999998
 30
0.0
 11
2.886787499999992
 21
25.49254999999998
 31
0.0
  0
LINE
  5
1520
330
15DC
100
AcDbEntity
  8
0
 62
     9
420
 12632256
100
AcDbLine
 10
0.2282125000000141
 20
25.49254999999998
 30
0.0
 11
0.2282125000000141
 21
20.8597
 31
0.0
  0
LINE
  5
1521
330
15DC
100
AcDbEntity
  8
0
 62
     9
420
 12632256
100
AcDbLine
 10
0.228212500000007
 20
20.8597
 30
0.0
 11
2.886787499999988
 21
20.8597
 31
0.0
  0
LINE
  5
1522
330
15DC
100
AcDbEntity
  8
0
 62
     9
420
 12632256
100
AcDbLine
 10
2.886787499999992
 20
25.49254999999998
 30
0.0
 11
2.886787499999988
 21
20.8597
 31
0.0
  0
LINE
  5
1524
330
15DC
100
AcDbEntity
  8
0
 62
     9
420
 12632256
100
AcDbLine
 10
3.338212499999981
 20
25.49254999999999
 30
0.0
 11
5.996787499999962
 21
25.49254999999999
 31
0.0
  0
LINE
  5
1525
330
15DC
100
AcDbEntity
  8
0
 62
     9
420
 12632256
100
AcDbLine
 10
3.338212499999986
 20
25.49254999999999
 30
0.0
 11
3.338212499999986
 21
20.8597
 31
0.0
  0
LINE
  5
1526
330
15DC
100
AcDbEntity
  8
0
 62
     9
420
 12632256
100
AcDbLine
 10
3.338212499999979
 20
20.8597
 30
0.0
 11
5.996787499999959
 21
20.8597
 31
0.0
  0
LINE
  5
1527
330
15DC
100
AcDbEntity
  8
0
 62
     9
420
 12632256
100
AcDbLine
 10
5.996787499999962
 20
25.49254999999999
 30
0.0
 11
5.996787499999959
 21
20.8597
 31
0.0
  0
LINE
  5
1529
330
15DC
100
AcDbEntity
  8
0
 62
     9
420
 12632256
100
AcDbLine
 10
6.448212499999952
 20
25.49254999999999
 30
0.0
 11
9.106787499999934
 21
25.49254999999999
 31
0.0
  0
LINE
  5
152A
330
15DC
100
AcDbEntity
  8
0
 62
     9
420
 12632256
100
AcDbLine
 10
6.448212499999956
 20
25.49254999999999
 30
0.0
 11
6.448212499999956
 21
20.8597
 31
0.0
  0
LINE
  5
152B
330
15DC
100
AcDbEntity
  8
0
 62
     9
420
 12632256
100
AcDbLine
 10
6.448212499999949
 20
20.85970000000001
 30
0.0
 11
9.10678749999993
 21
20.85970000000001
 31
0.0
  0
LINE
  5
152C
330
15DC
100
AcDbEntity
  8
0
 62
     9
420
 12632256
100
AcDbLine
 10
9.106787499999934
 20
25.49254999999999
 30
0.0
 11
9.10678749999993
 21
20.85970000000001
 31
0.0
  0
LINE
  5
152E
330
15DC
100
AcDbEntity
  8
0
 62
     9
420
 12632256
100
AcDbLine
 10
9.558212499999923
 20
25.49255
 30
0.0
 11
12.21678749999991
 21
25.49255
 31
0.0
  0
LINE
  5
152F
330
15DC
100
AcDbEntity
  8
0
 62
     9
420
 12632256
100
AcDbLine
 10
9.558212499999927
 20
25.49255
 30
0.0
 11
9.558212499999927
 21
20.85970000000001
 31
0.0
  0
LINE
  5
1530
330
15DC
100
AcDbEntity
  8
0
 62
     9
420
 12632256
100
AcDbLine
 10
9.55821249999992
 20
20.85970000000001
 30
0.0
 11
12.2167874999999
 21
20.85970000000001
 31
0.0
  0
LINE
  5
1531
330
15DC
100
AcDbEntity
  8
0
 62
     9
420
 12632256
100
AcDbLine
 10
12.21678749999991
 20
25.49255
 30
0.0
 11
12.2167874999999
 21
20.85970000000001
 31
0.0
  0
LINE
  5
1533
330
15DC
100
AcDbEntity
  8
0
 62
     9
420
 12632256
100
AcDbLine
 10
12.6682124999999
 20
25.49255000000002
 30
0.0
 11
15.32678749999988
 21
25.49255000000002
 31
0.0
  0
LINE
  5
1534
330
15DC
100
AcDbEntity
  8
0
 62
     9
420
 12632256
100
AcDbLine
 10
12.6682124999999
 20
25.49255000000002
 30
0.0
 11
12.6682124999999
 21
20.85970000000002
 31
0.0
  0
LINE
  5
1535
330
15DC
100
AcDbEntity
  8
0
 62
     9
420
 12632256
100
AcDbLine
 10
12.66821249999989
 20
20.85970000000002
 30
0.0
 11
15.32678749999988
 21
20.85970000000002
 31
0.0
  0
LINE
  5
1536
330
15DC
100
AcDbEntity
  8
0
 62
     9
420
 12632256
100
AcDbLine
 10
15.32678749999988
 20
25.49255000000002
 30
0.0
 11
15.32678749999988
 21
20.85970000000002
 31
0.0
  0
LINE
  5
1538
330
15DC
100
AcDbEntity
  8
0
 62
     9
420
 12632256
100
AcDbLine
 10
15.77821249999987
 20
25.49255000000002
 30
0.0
 11
18.43678749999985
 21
25.49255000000002
 31
0.0
  0
LINE
  5
1539
330
15DC
100
AcDbEntity
  8
0
 62
     9
420
 12632256
100
AcDbLine
 10
15.77821249999987
 20
25.49255000000002
 30
0.0
 11
15.77821249999987
 21
20.85970000000002
 31
0.0
  0
LINE
  5
153A
330
15DC
100
AcDbEntity
  8
0
 62
     9
420
 12632256
100
AcDbLine
 10
15.77821249999987
 20
20.85970000000004
 30
0.0
 11
18.43678749999985
 21
20.85970000000004
 31
0.0
  0
LINE
  5
153B
330
15DC
100
AcDbEntity
  8
0
 62
     9
420
 12632256
100
AcDbLine
 10
18.43678749999985
 20
25.49255000000002
 30
0.0
 11
18.43678749999985
 21
20.85970000000004
 31
0.0
  0
LINE
  5
153D
330
15DC
100
AcDbEntity
  8
0
 62
     9
420
 12632256
100
AcDbLine
 10
18.88821249999984
 20
25.49255000000003
 30
0.0
 11
21.54678749999982
 21
25.49255000000003
 31
0.0
  0
LINE
  5
153E
330
15DC
100
AcDbEntity
  8
0
 62
     9
420
 12632256
100
AcDbLine
 10
18.88821249999984
 20
25.49255000000003
 30
0.0
 11
18.88821249999984
 21
20.85970000000004
 31
0.0
  0
LINE
  5
153F
330
15DC
100
AcDbEntity
  8
0
 62
     9
420
 12632256
100
AcDbLine
 10
18.88821249999984
 20
20.85970000000004
 30
0.0
 11
21.54678749999982
 21
20.85970000000004
 31
0.0
  0
LINE
  5
1540
330
15DC
100
AcDbEntity
  8
0
 62
     9
420
 12632256
100
AcDbLine
 10
21.54678749999982
 20
25.49255000000003
 30
0.0
 11
21.54678749999982
 21
20.85970000000004
 31
0.0
  0
LINE
  5
1542
330
15DC
100
AcDbEntity
  8
0
 62
     9
420
 12632256
100
AcDbLine
 10
21.99821249999981
 20
25.49255000000004
 30
0.0
 11
24.65678749999979
 21
25.49255000000004
 31
0.0
  0
LINE
  5
1543
330
15DC
100
AcDbEntity
  8
0
 62
     9
420
 12632256
100
AcDbLine
 10
21.99821249999981
 20
25.49255000000004
 30
0.0
 11
21.99821249999981
 21
20.85970000000005
 31
0.0
  0
LINE
  5
1544
330
15DC
100
AcDbEntity
  8
0
 62
     9
420
 12632256
100
AcDbLine
 10
21.99821249999981
 20
20.85970000000005
 30
0.0
 11
24.65678749999979
 21
20.85970000000005
 31
0.0
  0
LINE
  5
1545
330
15DC
100
AcDbEntity
  8
0
 62
     9
420
 12632256
100
AcDbLine
 10
24.65678749999979
 20
25.49255000000004
 30
0.0
 11
24.65678749999979
 21
20.85970000000005
 31
0.0
  0
LINE
  5
1548
330
15DC
100
AcDbEntity
  8
0
 62
     9
420
 12632256
100
AcDbLine
 10
-5.991787499999935
 20
20.40004999999998
 30
0.0
 11
-3.333212499999954
 21
20.40004999999998
 31
0.0
  0
LINE
  5
1549
330
15DC
100
AcDbEntity
  8
0
 62
     9
420
 12632256
100
AcDbLine
 10
-5.991787499999932
 20
20.40004999999998
 30
0.0
 11
-5.991787499999932
 21
15.76719999999998
 31
0.0
  0
LINE
  5
154A
330
15DC
100
AcDbEntity
  8
0
 62
     9
420
 12632256
100
AcDbLine
 10
-5.991787499999939
 20
15.76719999999998
 30
0.0
 11
-3.333212499999958
 21
15.76719999999998
 31
0.0
  0
LINE
  5
154B
330
15DC
100
AcDbEntity
  8
0
 62
     9
420
 12632256
100
AcDbLine
 10
-3.333212499999954
 20
20.40004999999998
 30
0.0
 11
-3.333212499999958
 21
15.76719999999998
 31
0.0
  0
LINE
  5
154D
330
15DC
100
AcDbEntity
  8
0
 62
     9
420
 12632256
100
AcDbLine
 10
-2.881787499999963
 20
20.40004999999999
 30
0.0
 11
-0.2232124999999827
 21
20.40004999999999
 31
0.0
  0
LINE
  5
154E
330
15DC
100
AcDbEntity
  8
0
 62
     9
420
 12632256
100
AcDbLine
 10
-2.881787499999961
 20
20.40004999999999
 30
0.0
 11
-2.881787499999961
 21
15.7672
 31
0.0
  0
LINE
  5
154F
330
15DC
100
AcDbEntity
  8
0
 62
     9
420
 12632256
100
AcDbLine
 10
-2.881787499999968
 20
15.7672
 30
0.0
 11
-0.2232124999999863
 21
15.7672
 31
0.0
  0
LINE
  5
1550
330
15DC
100
AcDbEntity
  8
0
 62
     9
420
 12632256
100
AcDbLine
 10
-0.2232124999999827
 20
20.40004999999999
 30
0.0
 11
-0.2232124999999863
 21
15.7672
 31
0.0
  0
LINE
  5
1552
330
15DC
100
AcDbEntity
  8
0
 62
     9
420
 12632256
100
AcDbLine
 10
0.228212500000007
 20
20.40004999999999
 30
0.0
 11
2.886787499999988
 21
20.40004999999999
 31
0.0
  0
LINE
  5
1553
330
15DC
100
AcDbEntity
  8
0
 62
     9
420
 12632256
100
AcDbLine
 10
0.2282125000000106
 20
20.40004999999999
 30
0.0
 11
0.2282125000000106
 21
15.7672
 31
0.0
  0
LINE
  5
1554
330
15DC
100
AcDbEntity
  8
0
 62
     9
420
 12632256
100
AcDbLine
 10
0.2282125000000035
 20
15.76720000000001
 30
0.0
 11
2.886787499999985
 21
15.76720000000001
 31
0.0
  0
LINE
  5
1555
330
15DC
100
AcDbEntity
  8
0
 62
     9
420
 12632256
100
AcDbLine
 10
2.886787499999988
 20
20.40004999999999
 30
0.0
 11
2.886787499999985
 21
15.76720000000001
 31
0.0
  0
LINE
  5
1557
330
15DC
100
AcDbEntity
  8
0
 62
     9
420
 12632256
100
AcDbLine
 10
3.338212499999979
 20
20.40005
 30
0.0
 11
5.996787499999959
 21
20.40005
 31
0.0
  0
LINE
  5
1558
330
15DC
100
AcDbEntity
  8
0
 62
     9
420
 12632256
100
AcDbLine
 10
3.338212499999981
 20
20.40005
 30
0.0
 11
3.338212499999981
 21
15.76720000000001
 31
0.0
  0
LINE
  5
1559
330
15DC
100
AcDbEntity
  8
0
 62
     9
420
 12632256
100
AcDbLine
 10
3.338212499999974
 20
15.76720000000001
 30
0.0
 11
5.996787499999956
 21
15.76720000000001
 31
0.0
  0
LINE
  5
155A
330
15DC
100
AcDbEntity
  8
0
 62
     9
420
 12632256
100
AcDbLine
 10
5.996787499999959
 20
20.40005
 30
0.0
 11
5.996787499999956
 21
15.76720000000001
 31
0.0
  0
LINE
  5
155C
330
15DC
100
AcDbEntity
  8
0
 62
     9
420
 12632256
100
AcDbLine
 10
6.448212499999949
 20
20.40005
 30
0.0
 11
9.10678749999993
 21
20.40005
 31
0.0
  0
LINE
  5
155D
330
15DC
100
AcDbEntity
  8
0
 62
     9
420
 12632256
100
AcDbLine
 10
6.448212499999952
 20
20.40005
 30
0.0
 11
6.448212499999952
 21
15.76720000000001
 31
0.0
  0
LINE
  5
155E
330
15DC
100
AcDbEntity
  8
0
 62
     9
420
 12632256
100
AcDbLine
 10
6.448212499999945
 20
15.76720000000001
 30
0.0
 11
9.106787499999927
 21
15.76720000000001
 31
0.0
  0
LINE
  5
155F
330
15DC
100
AcDbEntity
  8
0
 62
     9
420
 12632256
100
AcDbLine
 10
9.10678749999993
 20
20.40005
 30
0.0
 11
9.106787499999927
 21
15.76720000000001
 31
0.0
  0
LINE
  5
1561
330
15DC
100
AcDbEntity
  8
0
 62
     9
420
 12632256
100
AcDbLine
 10
9.55821249999992
 20
20.40005000000001
 30
0.0
 11
12.2167874999999
 21
20.40005000000001
 31
0.0
  0
LINE
  5
1562
330
15DC
100
AcDbEntity
  8
0
 62
     9
420
 12632256
100
AcDbLine
 10
9.558212499999923
 20
20.40005000000001
 30
0.0
 11
9.558212499999923
 21
15.76720000000001
 31
0.0
  0
LINE
  5
1563
330
15DC
100
AcDbEntity
  8
0
 62
     9
420
 12632256
100
AcDbLine
 10
9.558212499999916
 20
15.76720000000003
 30
0.0
 11
12.2167874999999
 21
15.76720000000003
 31
0.0
  0
LINE
  5
1564
330
15DC
100
AcDbEntity
  8
0
 62
     9
420
 12632256
100
AcDbLine
 10
12.2167874999999
 20
20.40005000000001
 30
0.0
 11
12.2167874999999
 21
15.76720000000003
 31
0.0
  0
LINE
  5
1566
330
15DC
100
AcDbEntity
  8
0
 62
     9
420
 12632256
100
AcDbLine
 10
12.66821249999989
 20
20.40005000000001
 30
0.0
 11
15.32678749999988
 21
20.40005000000001
 31
0.0
  0
LINE
  5
1567
330
15DC
100
AcDbEntity
  8
0
 62
     9
420
 12632256
100
AcDbLine
 10
12.6682124999999
 20
20.40005000000001
 30
0.0
 11
12.6682124999999
 21
15.76720000000003
 31
0.0
  0
LINE
  5
1568
330
15DC
100
AcDbEntity
  8
0
 62
     9
420
 12632256
100
AcDbLine
 10
12.66821249999989
 20
15.76720000000003
 30
0.0
 11
15.32678749999987
 21
15.76720000000003
 31
0.0
  0
LINE
  5
1569
330
15DC
100
AcDbEntity
  8
0
 62
     9
420
 12632256
100
AcDbLine
 10
15.32678749999988
 20
20.40005000000001
 30
0.0
 11
15.32678749999987
 21
15.76720000000003
 31
0.0
  0
LINE
  5
156B
330
15DC
100
AcDbEntity
  8
0
 62
     9
420
 12632256
100
AcDbLine
 10
15.77821249999987
 20
20.40005000000003
 30
0.0
 11
18.43678749999985
 21
20.40005000000003
 31
0.0
  0
LINE
  5
156C
330
15DC
100
AcDbEntity
  8
0
 62
     9
420
 12632256
100
AcDbLine
 10
15.77821249999987
 20
20.40005000000003
 30
0.0
 11
15.77821249999987
 21
15.76720000000003
 31
0.0
  0
LINE
  5
156D
330
15DC
100
AcDbEntity
  8
0
 62
     9
420
 12632256
100
AcDbLine
 10
15.77821249999986
 20
15.76720000000003
 30
0.0
 11
18.43678749999984
 21
15.76720000000003
 31
0.0
  0
LINE
  5
156E
330
15DC
100
AcDbEntity
  8
0
 62
     9
420
 12632256
100
AcDbLine
 10
18.43678749999985
 20
20.40005000000003
 30
0.0
 11
18.43678749999984
 21
15.76720000000003
 31
0.0
  0
LINE
  5
1570
330
15DC
100
AcDbEntity
  8
0
 62
     9
420
 12632256
100
AcDbLine
 10
18.88821249999984
 20
20.40005000000004
 30
0.0
 11
21.54678749999982
 21
20.40005000000004
 31
0.0
  0
LINE
  5
1571
330
15DC
100
AcDbEntity
  8
0
 62
     9
420
 12632256
100
AcDbLine
 10
18.88821249999984
 20
20.40005000000004
 30
0.0
 11
18.88821249999984
 21
15.76720000000005
 31
0.0
  0
LINE
  5
1572
330
15DC
100
AcDbEntity
  8
0
 62
     9
420
 12632256
100
AcDbLine
 10
18.88821249999983
 20
15.76720000000005
 30
0.0
 11
21.54678749999981
 21
15.76720000000005
 31
0.0
  0
LINE
  5
1573
330
15DC
100
AcDbEntity
  8
0
 62
     9
420
 12632256
100
AcDbLine
 10
21.54678749999982
 20
20.40005000000004
 30
0.0
 11
21.54678749999981
 21
15.76720000000005
 31
0.0
  0
LINE
  5
1575
330
15DC
100
AcDbEntity
  8
0
 62
     9
420
 12632256
100
AcDbLine
 10
21.99821249999981
 20
20.40005000000004
 30
0.0
 11
24.65678749999979
 21
20.40005000000004
 31
0.0
  0
LINE
  5
1576
330
15DC
100
AcDbEntity
  8
0
 62
     9
420
 12632256
100
AcDbLine
 10
21.99821249999981
 20
20.40005000000004
 30
0.0
 11
21.99821249999981
 21
15.76720000000005
 31
0.0
  0
LINE
  5
1577
330
15DC
100
AcDbEntity
  8
0
 62
     9
420
 12632256
100
AcDbLine
 10
21.9982124999998
 20
15.76720000000006
 30
0.0
 11
24.65678749999979
 21
15.76720000000006
 31
0.0
  0
LINE
  5
1578
330
15DC
100
AcDbEntity
  8
0
 62
     9
420
 12632256
100
AcDbLine
 10
24.65678749999979
 20
20.40005000000004
 30
0.0
 11
24.65678749999979
 21
15.76720000000006
 31
0.0
  0
LINE
  5
157B
330
15DC
100
AcDbEntity
  8
0
 62
     9
420
 12632256
100
AcDbLine
 10
-24.65178749999976
 20
20.40004999999994
 30
0.0
 11
-21.99321249999978
 21
20.40004999999994
 31
0.0
  0
LINE
  5
157D
330
15DC
100
AcDbEntity
  8
0
 62
     9
420
 12632256
100
AcDbLine
 10
-24.65178749999976
 20
15.76719999999995
 30
0.0
 11
-21.99321249999978
 21
15.76719999999995
 31
0.0
  0
LINE
  5
157F
330
15DC
100
AcDbEntity
  8
0
 62
     9
420
 12632256
100
AcDbLine
 10
-21.54178749999978
 20
20.40004999999994
 30
0.0
 11
-18.8832124999998
 21
20.40004999999994
 31
0.0
  0
LINE
  5
1580
330
15DC
100
AcDbEntity
  8
0
 62
     9
420
 12632256
100
AcDbLine
 10
-21.54178749999978
 20
15.76719999999995
 30
0.0
 11
-18.8832124999998
 21
15.76719999999995
 31
0.0
  0
LINE
  5
1581
330
15DC
100
AcDbEntity
  8
0
 62
     9
420
 12632256
100
AcDbLine
 10
-21.54178749999978
 20
20.40004999999994
 30
0.0
 11
-21.54178749999978
 21
15.76719999999995
 31
0.0
  0
LINE
  5
1582
330
15DC
100
AcDbEntity
  8
0
 62
     9
420
 12632256
100
AcDbLine
 10
-18.88321249999981
 20
20.40004999999994
 30
0.0
 11
-18.88321249999981
 21
15.76719999999995
 31
0.0
  0
LINE
  5
1584
330
15DC
100
AcDbEntity
  8
0
 62
     9
420
 12632256
100
AcDbLine
 10
-18.43178749999982
 20
20.40004999999995
 30
0.0
 11
-15.77321249999983
 21
20.40004999999995
 31
0.0
  0
LINE
  5
1585
330
15DC
100
AcDbEntity
  8
0
 62
     9
420
 12632256
100
AcDbLine
 10
-18.43178749999981
 20
20.40004999999995
 30
0.0
 11
-18.43178749999981
 21
15.76719999999995
 31
0.0
  0
LINE
  5
1586
330
15DC
100
AcDbEntity
  8
0
 62
     9
420
 12632256
100
AcDbLine
 10
-18.43178749999982
 20
15.76719999999995
 30
0.0
 11
-15.77321249999985
 21
15.76719999999995
 31
0.0
  0
LINE
  5
1587
330
15DC
100
AcDbEntity
  8
0
 62
     9
420
 12632256
100
AcDbLine
 10
-15.77321249999983
 20
20.40004999999995
 30
0.0
 11
-15.77321249999985
 21
15.76719999999995
 31
0.0
  0
LINE
  5
1589
330
15DC
100
AcDbEntity
  8
0
 62
     9
420
 12632256
100
AcDbLine
 10
-15.32178749999984
 20
20.40004999999995
 30
0.0
 11
-12.66321249999986
 21
20.40004999999995
 31
0.0
  0
LINE
  5
158A
330
15DC
100
AcDbEntity
  8
0
 62
     9
420
 12632256
100
AcDbLine
 10
-15.32178749999984
 20
20.40004999999995
 30
0.0
 11
-15.32178749999984
 21
15.76719999999997
 31
0.0
  0
LINE
  5
158B
330
15DC
100
AcDbEntity
  8
0
 62
     9
420
 12632256
100
AcDbLine
 10
-15.32178749999985
 20
15.76719999999997
 30
0.0
 11
-12.66321249999987
 21
15.76719999999997
 31
0.0
  0
LINE
  5
158C
330
15DC
100
AcDbEntity
  8
0
 62
     9
420
 12632256
100
AcDbLine
 10
-12.66321249999986
 20
20.40004999999995
 30
0.0
 11
-12.66321249999987
 21
15.76719999999997
 31
0.0
  0
LINE
  5
158E
330
15DC
100
AcDbEntity
  8
0
 62
     9
420
 12632256
100
AcDbLine
 10
-12.21178749999987
 20
20.40004999999996
 30
0.0
 11
-9.553212499999894
 21
20.40004999999996
 31
0.0
  0
LINE
  5
158F
330
15DC
100
AcDbEntity
  8
0
 62
     9
420
 12632256
100
AcDbLine
 10
-12.21178749999987
 20
20.40004999999996
 30
0.0
 11
-12.21178749999987
 21
15.76719999999998
 31
0.0
  0
LINE
  5
1590
330
15DC
100
AcDbEntity
  8
0
 62
     9
420
 12632256
100
AcDbLine
 10
-12.21178749999988
 20
15.76719999999998
 30
0.0
 11
-9.553212499999903
 21
15.76719999999998
 31
0.0
  0
LINE
  5
1591
330
15DC
100
AcDbEntity
  8
0
 62
     9
420
 12632256
100
AcDbLine
 10
-9.553212499999894
 20
20.40004999999996
 30
0.0
 11
-9.553212499999903
 21
15.76719999999998
 31
0.0
  0
LINE
  5
1593
330
15DC
100
AcDbEntity
  8
0
 62
     9
420
 12632256
100
AcDbLine
 10
-9.101787499999906
 20
20.40004999999996
 30
0.0
 11
-6.443212499999925
 21
20.40004999999996
 31
0.0
  0
LINE
  5
1594
330
15DC
100
AcDbEntity
  8
0
 62
     9
420
 12632256
100
AcDbLine
 10
-9.101787499999903
 20
20.40004999999996
 30
0.0
 11
-9.101787499999903
 21
15.76719999999998
 31
0.0
  0
LINE
  5
1595
330
15DC
100
AcDbEntity
  8
0
 62
     9
420
 12632256
100
AcDbLine
 10
-9.10178749999991
 20
15.76719999999998
 30
0.0
 11
-6.443212499999929
 21
15.76719999999998
 31
0.0
  0
LINE
  5
1596
330
15DC
100
AcDbEntity
  8
0
 62
     9
420
 12632256
100
AcDbLine
 10
-6.443212499999925
 20
20.40004999999996
 30
0.0
 11
-6.443212499999929
 21
15.76719999999998
 31
0.0
  0
HATCH
  5
159E
330
15DC
100
AcDbEntity
  8
0
 62
     9
420
 12632256
100
AcDbHatch
 10
0.0
 20
0.0
 30
0.0
210
0.0
220
0.0
230
1.0
  2
ANGLE
 70
     0
 71
     0
 91
        1
 92
        0
 93
        4
 72
     1
 10
9.558212499999923
 20
25.49255
 11
12.21678749999991
 21
25.49255
 72
     1
 10
12.21678749999991
 20
25.49255
 11
12.2167874999999
 21
20.85970000000001
 72
     1
 10
12.2167874999999
 20
20.85970000000001
 11
9.55821249999992
 21
20.85970000000001
 72
     1
 10
9.55821249999992
 20
20.85970000000001
 11
9.558212499999923
 21
25.49255
 97
        0
 75
     0
 76
     1
 52
0.0
 41
0.1
 77
     0
 78
     2
 53
0.0
 43
0.0
 44
0.0
 45
0.0
 46
0.6985000000000001
 79
     2
 49
0.508
 49
-0.1905
 53
90.0
 43
0.0
 44
0.0
 45
-0.6985000000000001
 46
0.0
 79
     2
 49
0.508
 49
-0.1905
 98
        0
1001
ACAD
1010
0.0
1020
0.0
1030
0.0
  0
HATCH
  5
159F
330
15DC
100
AcDbEntity
  8
0
 62
     9
420
 12632256
100
AcDbHatch
 10
0.0
 20
0.0
 30
0.0
210
0.0
220
0.0
230
1.0
  2
ANGLE
 70
     0
 71
     0
 91
        1
 92
        0
 93
        4
 72
     1
 10
12.6682124999999
 20
25.49255000000002
 11
15.32678749999988
 21
25.49255000000002
 72
     1
 10
15.32678749999988
 20
25.49255000000002
 11
15.32678749999988
 21
20.85970000000002
 72
     1
 10
15.32678749999988
 20
20.85970000000002
 11
12.66821249999989
 21
20.85970000000002
 72
     1
 10
12.66821249999989
 20
20.85970000000002
 11
12.6682124999999
 21
25.49255000000002
 97
        0
 75
     0
 76
     1
 52
0.0
 41
0.1
 77
     0
 78
     2
 53
0.0
 43
0.0
 44
0.0
 45
0.0
 46
0.6985000000000001
 79
     2
 49
0.508
 49
-0.1905
 53
90.0
 43
0.0
 44
0.0
 45
-0.6985000000000001
 46
0.0
 79
     2
 49
0.508
 49
-0.1905
 98
        0
1001
ACAD
1010
0.0
1020
0.0
1030
0.0
  0
HATCH
  5
15A0
330
15DC
100
AcDbEntity
  8
0
 62
     9
420
 12632256
100
AcDbHatch
 10
0.0
 20
0.0
 30
0.0
210
0.0
220
0.0
230
1.0
  2
ANGLE
 70
     0
 71
     0
 91
        1
 92
        0
 93
        4
 72
     1
 10
15.77821249999987
 20
25.49255000000002
 11
18.43678749999985
 21
25.49255000000002
 72
     1
 10
18.43678749999985
 20
25.49255000000002
 11
18.43678749999985
 21
20.85970000000004
 72
     1
 10
18.43678749999985
 20
20.85970000000004
 11
15.77821249999987
 21
20.85970000000004
 72
     1
 10
15.77821249999987
 20
20.85970000000004
 11
15.77821249999987
 21
25.49255000000002
 97
        0
 75
     0
 76
     1
 52
0.0
 41
0.1
 77
     0
 78
     2
 53
0.0
 43
0.0
 44
0.0
 45
0.0
 46
0.6985000000000001
 79
     2
 49
0.508
 49
-0.1905
 53
90.0
 43
0.0
 44
0.0
 45
-0.6985000000000001
 46
0.0
 79
     2
 49
0.508
 49
-0.1905
 98
        0
1001
ACAD
1010
0.0
1020
0.0
1030
0.0
  0
HATCH
  5
15A1
330
15DC
100
AcDbEntity
  8
0
 62
     9
420
 12632256
100
AcDbHatch
 10
0.0
 20
0.0
 30
0.0
210
0.0
220
0.0
230
1.0
  2
ANGLE
 70
     0
 71
     0
 91
        1
 92
        0
 93
        4
 72
     1
 10
18.88821249999984
 20
25.49255000000003
 11
21.54678749999982
 21
25.49255000000003
 72
     1
 10
21.54678749999982
 20
25.49255000000003
 11
21.54678749999982
 21
20.85970000000004
 72
     1
 10
21.54678749999982
 20
20.85970000000004
 11
18.88821249999984
 21
20.85970000000004
 72
     1
 10
18.88821249999984
 20
20.85970000000004
 11
18.88821249999984
 21
25.49255000000003
 97
        0
 75
     0
 76
     1
 52
0.0
 41
0.1
 77
     0
 78
     2
 53
0.0
 43
0.0
 44
0.0
 45
0.0
 46
0.6985000000000001
 79
     2
 49
0.508
 49
-0.1905
 53
90.0
 43
0.0
 44
0.0
 45
-0.6985000000000001
 46
0.0
 79
     2
 49
0.508
 49
-0.1905
 98
        0
1001
ACAD
1010
0.0
1020
0.0
1030
0.0
  0
HATCH
  5
15A2
330
15DC
100
AcDbEntity
  8
0
 62
     9
420
 12632256
100
AcDbHatch
 10
0.0
 20
0.0
 30
0.0
210
0.0
220
0.0
230
1.0
  2
ANGLE
 70
     0
 71
     0
 91
        1
 92
        0
 93
        4
 72
     1
 10
21.99821249999981
 20
25.49255000000004
 11
24.65678749999979
 21
25.49255000000004
 72
     1
 10
24.65678749999979
 20
25.49255000000004
 11
24.65678749999979
 21
20.85970000000005
 72
     1
 10
24.65678749999979
 20
20.85970000000005
 11
21.99821249999981
 21
20.85970000000005
 72
     1
 10
21.99821249999981
 20
20.85970000000005
 11
21.99821249999981
 21
25.49255000000004
 97
        0
 75
     0
 76
     1
 52
0.0
 41
0.1
 77
     0
 78
     2
 53
0.0
 43
0.0
 44
0.0
 45
0.0
 46
0.6985000000000001
 79
     2
 49
0.508
 49
-0.1905
 53
90.0
 43
0.0
 44
0.0
 45
-0.6985000000000001
 46
0.0
 79
     2
 49
0.508
 49
-0.1905
 98
        0
1001
ACAD
1010
0.0
1020
0.0
1030
0.0
  0
HATCH
  5
15A3
330
15DC
100
AcDbEntity
  8
0
 62
     9
420
 12632256
100
AcDbHatch
 10
0.0
 20
0.0
 30
0.0
210
0.0
220
0.0
230
1.0
  2
ANGLE
 70
     0
 71
     0
 91
        1
 92
        0
 93
        4
 72
     1
 10
-24.65178749999975
 20
25.49254999999992
 11
-21.99321249999977
 21
25.49254999999992
 72
     1
 10
-21.99321249999977
 20
25.49254999999992
 11
-21.99321249999978
 21
20.85969999999994
 72
     1
 10
-21.99321249999978
 20
20.85969999999994
 11
-24.65178749999976
 21
20.85969999999994
 72
     1
 10
-24.65178749999976
 20
20.85969999999994
 11
-24.65178749999975
 21
25.49254999999992
 97
        0
 75
     0
 76
     1
 52
0.0
 41
0.1
 77
     0
 78
     2
 53
0.0
 43
0.0
 44
0.0
 45
0.0
 46
0.6985000000000001
 79
     2
 49
0.508
 49
-0.1905
 53
90.0
 43
0.0
 44
0.0
 45
-0.6985000000000001
 46
0.0
 79
     2
 49
0.508
 49
-0.1905
 98
        0
1001
ACAD
1010
0.0
1020
0.0
1030
0.0
  0
HATCH
  5
15A4
330
15DC
100
AcDbEntity
  8
0
 62
     9
420
 12632256
100
AcDbHatch
 10
0.0
 20
0.0
 30
0.0
210
0.0
220
0.0
230
1.0
  2
ANGLE
 70
     0
 71
     0
 91
        1
 92
        0
 93
        4
 72
     1
 10
-21.54178749999978
 20
20.85969999999995
 11
-18.8832124999998
 21
20.85969999999995
 72
     1
 10
-18.8832124999998
 20
20.85969999999995
 11
-18.8832124999998
 21
25.49254999999993
 72
     1
 10
-18.8832124999998
 20
25.49254999999993
 11
-21.54178749999978
 21
25.49254999999993
 72
     1
 10
-21.54178749999978
 20
25.49254999999993
 11
-21.54178749999978
 21
20.85969999999995
 97
        0
 75
     0
 76
     1
 52
0.0
 41
0.1
 77
     0
 78
     2
 53
0.0
 43
0.0
 44
0.0
 45
0.0
 46
0.6985000000000001
 79
     2
 49
0.508
 49
-0.1905
 53
90.0
 43
0.0
 44
0.0
 45
-0.6985000000000001
 46
0.0
 79
     2
 49
0.508
 49
-0.1905
 98
        0
1001
ACAD
1010
0.0
1020
0.0
1030
0.0
  0
HATCH
  5
15A5
330
15DC
100
AcDbEntity
  8
0
 62
     9
420
 12632256
100
AcDbHatch
 10
0.0
 20
0.0
 30
0.0
210
0.0
220
0.0
230
1.0
  2
ANGLE
 70
     0
 71
     0
 91
        1
 92
        0
 93
        4
 72
     1
 10
-2.881787499999963
 20
20.40004999999999
 11
-0.2232124999999829
 21
20.40004999999999
 72
     1
 10
-0.2232124999999827
 20
20.40004999999999
 11
-0.2232124999999863
 21
15.7672
 72
     1
 10
-0.2232124999999863
 20
15.7672
 11
-2.881787499999968
 21
15.7672
 72
     1
 10
-2.881787499999968
 20
15.7672
 11
-2.881787499999963
 21
20.40004999999999
 97
        0
 75
     0
 76
     1
 52
0.0
 41
0.1
 77
     0
 78
     2
 53
0.0
 43
0.0
 44
0.0
 45
0.0
 46
0.6985000000000001
 79
     2
 49
0.508
 49
-0.1905
 53
90.0
 43
0.0
 44
0.0
 45
-0.6985000000000001
 46
0.0
 79
     2
 49
0.508
 49
-0.1905
 98
        0
1001
ACAD
1010
0.0
1020
0.0
1030
0.0
  0
HATCH
  5
15A6
330
15DC
100
AcDbEntity
  8
0
 62
     9
420
 12632256
100
AcDbHatch
 10
0.0
 20
0.0
 30
0.0
210
0.0
220
0.0
230
1.0
  2
ANGLE
 70
     0
 71
     0
 91
        1
 92
        0
 93
        4
 72
     1
 10
0.228212500000007
 20
20.40004999999999
 11
2.886787499999988
 21
20.40004999999999
 72
     1
 10
2.886787499999988
 20
20.40004999999999
 11
2.886787499999985
 21
15.76720000000001
 72
     1
 10
2.886787499999985
 20
15.76720000000001
 11
0.2282125000000033
 21
15.76720000000001
 72
     1
 10
0.2282125000000035
 20
15.76720000000001
 11
0.228212500000007
 21
20.40004999999999
 97
        0
 75
     0
 76
     1
 52
0.0
 41
0.1
 77
     0
 78
     2
 53
0.0
 43
0.0
 44
0.0
 45
0.0
 46
0.6985000000000001
 79
     2
 49
0.508
 49
-0.1905
 53
90.0
 43
0.0
 44
0.0
 45
-0.6985000000000001
 46
0.0
 79
     2
 49
0.508
 49
-0.1905
 98
        0
1001
ACAD
1010
0.0
1020
0.0
1030
0.0
  0
HATCH
  5
15A7
330
15DC
100
AcDbEntity
  8
0
 62
     9
420
 12632256
100
AcDbHatch
 10
0.0
 20
0.0
 30
0.0
210
0.0
220
0.0
230
1.0
  2
ANGLE
 70
     0
 71
     0
 91
        1
 92
        0
 93
        4
 72
     1
 10
3.338212499999979
 20
20.40005
 11
5.996787499999959
 21
20.40005
 72
     1
 10
5.996787499999959
 20
20.40005
 11
5.996787499999956
 21
15.76720000000001
 72
     1
 10
5.996787499999956
 20
15.76720000000001
 11
3.338212499999974
 21
15.76720000000001
 72
     1
 10
3.338212499999974
 20
15.76720000000001
 11
3.338212499999979
 21
20.40005
 97
        0
 75
     0
 76
     1
 52
0.0
 41
0.1
 77
     0
 78
     2
 53
0.0
 43
0.0
 44
0.0
 45
0.0
 46
0.6985000000000001
 79
     2
 49
0.508
 49
-0.1905
 53
90.0
 43
0.0
 44
0.0
 45
-0.6985000000000001
 46
0.0
 79
     2
 49
0.508
 49
-0.1905
 98
        0
1001
ACAD
1010
0.0
1020
0.0
1030
0.0
  0
HATCH
  5
15A8
330
15DC
100
AcDbEntity
  8
0
 62
     9
420
 12632256
100
AcDbHatch
 10
0.0
 20
0.0
 30
0.0
210
0.0
220
0.0
230
1.0
  2
ANGLE
 70
     0
 71
     0
 91
        1
 92
        0
 93
        4
 72
     1
 10
6.448212499999949
 20
20.40005
 11
9.10678749999993
 21
20.40005
 72
     1
 10
9.10678749999993
 20
20.40005
 11
9.106787499999927
 21
15.76720000000001
 72
     1
 10
9.106787499999927
 20
15.76720000000001
 11
6.448212499999945
 21
15.76720000000001
 72
     1
 10
6.448212499999945
 20
15.76720000000001
 11
6.448212499999949
 21
20.40005
 97
        0
 75
     0
 76
     1
 52
0.0
 41
0.1
 77
     0
 78
     2
 53
0.0
 43
0.0
 44
0.0
 45
0.0
 46
0.6985000000000001
 79
     2
 49
0.508
 49
-0.1905
 53
90.0
 43
0.0
 44
0.0
 45
-0.6985000000000001
 46
0.0
 79
     2
 49
0.508
 49
-0.1905
 98
        0
1001
ACAD
1010
0.0
1020
0.0
1030
0.0
  0
HATCH
  5
15A9
330
15DC
100
AcDbEntity
  8
0
 62
     9
420
 12632256
100
AcDbHatch
 10
0.0
 20
0.0
 30
0.0
210
0.0
220
0.0
230
1.0
  2
ANGLE
 70
     0
 71
     0
 91
        1
 92
        0
 93
        4
 72
     1
 10
9.55821249999992
 20
20.40005000000001
 11
12.2167874999999
 21
20.40005000000001
 72
     1
 10
12.2167874999999
 20
20.40005000000001
 11
12.2167874999999
 21
15.76720000000003
 72
     1
 10
12.2167874999999
 20
15.76720000000003
 11
9.558212499999916
 21
15.76720000000003
 72
     1
 10
9.558212499999916
 20
15.76720000000003
 11
9.55821249999992
 21
20.40005000000001
 97
        0
 75
     0
 76
     1
 52
0.0
 41
0.1
 77
     0
 78
     2
 53
0.0
 43
0.0
 44
0.0
 45
0.0
 46
0.6985000000000001
 79
     2
 49
0.508
 49
-0.1905
 53
90.0
 43
0.0
 44
0.0
 45
-0.6985000000000001
 46
0.0
 79
     2
 49
0.508
 49
-0.1905
 98
        0
1001
ACAD
1010
0.0
1020
0.0
1030
0.0
  0
HATCH
  5
15AA
330
15DC
100
AcDbEntity
  8
0
 62
     9
420
 12632256
100
AcDbHatch
 10
0.0
 20
0.0
 30
0.0
210
0.0
220
0.0
230
1.0
  2
ANGLE
 70
     0
 71
     0
 91
        1
 92
        0
 93
        4
 72
     1
 10
12.66821249999989
 20
20.40005000000001
 11
15.32678749999988
 21
20.40005000000001
 72
     1
 10
15.32678749999988
 20
20.40005000000001
 11
15.32678749999987
 21
15.76720000000003
 72
     1
 10
15.32678749999987
 20
15.76720000000003
 11
12.66821249999989
 21
15.76720000000003
 72
     1
 10
12.66821249999989
 20
15.76720000000003
 11
12.66821249999989
 21
20.40005000000001
 97
        0
 75
     0
 76
     1
 52
0.0
 41
0.1
 77
     0
 78
     2
 53
0.0
 43
0.0
 44
0.0
 45
0.0
 46
0.6985000000000001
 79
     2
 49
0.508
 49
-0.1905
 53
90.0
 43
0.0
 44
0.0
 45
-0.6985000000000001
 46
0.0
 79
     2
 49
0.508
 49
-0.1905
 98
        0
1001
ACAD
1010
0.0
1020
0.0
1030
0.0
  0
HATCH
  5
15AB
330
15DC
100
AcDbEntity
  8
0
 62
     9
420
 12632256
100
AcDbHatch
 10
0.0
 20
0.0
 30
0.0
210
0.0
220
0.0
230
1.0
  2
ANGLE
 70
     0
 71
     0
 91
        1
 92
        0
 93
        4
 72
     1
 10
15.77821249999987
 20
20.40005000000003
 11
18.43678749999985
 21
20.40005000000003
 72
     1
 10
18.43678749999985
 20
20.40005000000003
 11
18.43678749999984
 21
15.76720000000003
 72
     1
 10
18.43678749999984
 20
15.76720000000003
 11
15.77821249999986
 21
15.76720000000003
 72
     1
 10
15.77821249999986
 20
15.76720000000003
 11
15.77821249999987
 21
20.40005000000003
 97
        0
 75
     0
 76
     1
 52
0.0
 41
0.1
 77
     0
 78
     2
 53
0.0
 43
0.0
 44
0.0
 45
0.0
 46
0.6985000000000001
 79
     2
 49
0.508
 49
-0.1905
 53
90.0
 43
0.0
 44
0.0
 45
-0.6985000000000001
 46
0.0
 79
     2
 49
0.508
 49
-0.1905
 98
        0
1001
ACAD
1010
0.0
1020
0.0
1030
0.0
  0
HATCH
  5
15AC
330
15DC
100
AcDbEntity
  8
0
 62
     9
420
 12632256
100
AcDbHatch
 10
0.0
 20
0.0
 30
0.0
210
0.0
220
0.0
230
1.0
  2
ANGLE
 70
     0
 71
     0
 91
        1
 92
        0
 93
        4
 72
     1
 10
18.88821249999984
 20
20.40005000000004
 11
21.54678749999982
 21
20.40005000000004
 72
     1
 10
21.54678749999982
 20
20.40005000000004
 11
21.54678749999981
 21
15.76720000000005
 72
     1
 10
21.54678749999981
 20
15.76720000000005
 11
18.88821249999983
 21
15.76720000000005
 72
     1
 10
18.88821249999983
 20
15.76720000000005
 11
18.88821249999984
 21
20.40005000000004
 97
        0
 75
     0
 76
     1
 52
0.0
 41
0.1
 77
     0
 78
     2
 53
0.0
 43
0.0
 44
0.0
 45
0.0
 46
0.6985000000000001
 79
     2
 49
0.508
 49
-0.1905
 53
90.0
 43
0.0
 44
0.0
 45
-0.6985000000000001
 46
0.0
 79
     2
 49
0.508
 49
-0.1905
 98
        0
1001
ACAD
1010
0.0
1020
0.0
1030
0.0
  0
HATCH
  5
15AD
330
15DC
100
AcDbEntity
  8
0
 62
     9
420
 12632256
100
AcDbHatch
 10
0.0
 20
0.0
 30
0.0
210
0.0
220
0.0
230
1.0
  2
ANGLE
 70
     0
 71
     0
 91
        1
 92
        0
 93
        4
 72
     1
 10
21.99821249999981
 20
20.40005000000004
 11
24.65678749999979
 21
20.40005000000004
 72
     1
 10
24.65678749999979
 20
20.40005000000004
 11
24.65678749999979
 21
15.76720000000006
 72
     1
 10
24.65678749999979
 20
15.76720000000006
 11
21.9982124999998
 21
15.76720000000006
 72
     1
 10
21.9982124999998
 20
15.76720000000006
 11
21.99821249999981
 21
20.40005000000004
 97
        0
 75
     0
 76
     1
 52
0.0
 41
0.1
 77
     0
 78
     2
 53
0.0
 43
0.0
 44
0.0
 45
0.0
 46
0.6985000000000001
 79
     2
 49
0.508
 49
-0.1905
 53
90.0
 43
0.0
 44
0.0
 45
-0.6985000000000001
 46
0.0
 79
     2
 49
0.508
 49
-0.1905
 98
        0
1001
ACAD
1010
0.0
1020
0.0
1030
0.0
  0
HATCH
  5
15AE
330
15DC
100
AcDbEntity
  8
0
 62
     9
420
 12632256
100
AcDbHatch
 10
0.0
 20
0.0
 30
0.0
210
0.0
220
0.0
230
1.0
  2
ANGLE
 70
     0
 71
     0
 91
        1
 92
        0
 93
        4
 72
     1
 10
-24.65178749999976
 20
20.40004999999993
 11
-21.99321249999978
 21
20.40004999999993
 72
     1
 10
-21.99321249999978
 20
20.40004999999993
 11
-21.99321249999978
 21
15.76719999999994
 72
     1
 10
-21.99321249999978
 20
15.76719999999994
 11
-24.65178749999976
 21
15.76719999999994
 72
     1
 10
-24.65178749999976
 20
15.76719999999994
 11
-24.65178749999976
 21
20.40004999999993
 97
        0
 75
     0
 76
     1
 52
0.0
 41
0.1
 77
     0
 78
     2
 53
0.0
 43
0.0
 44
0.0
 45
0.0
 46
0.6985000000000001
 79
     2
 49
0.508
 49
-0.1905
 53
90.0
 43
0.0
 44
0.0
 45
-0.6985000000000001
 46
0.0
 79
     2
 49
0.508
 49
-0.1905
 98
        0
1001
ACAD
1010
0.0
1020
0.0
1030
0.0
  0
HATCH
  5
15AF
330
15DC
100
AcDbEntity
  8
0
 62
     9
420
 12632256
100
AcDbHatch
 10
0.0
 20
0.0
 30
0.0
210
0.0
220
0.0
230
1.0
  2
ANGLE
 70
     0
 71
     0
 91
        1
 92
        0
 93
        4
 72
     1
 10
-21.54178749999978
 20
15.76719999999995
 11
-18.8832124999998
 21
15.76719999999995
 72
     1
 10
-18.8832124999998
 20
15.76719999999995
 11
-18.88321249999981
 21
20.40004999999994
 72
     1
 10
-18.88321249999981
 20
20.40004999999994
 11
-21.54178749999979
 21
20.40004999999994
 72
     1
 10
-21.54178749999979
 20
20.40004999999994
 11
-21.54178749999978
 21
15.76719999999995
 97
        0
 75
     0
 76
     1
 52
0.0
 41
0.1
 77
     0
 78
     2
 53
0.0
 43
0.0
 44
0.0
 45
0.0
 46
0.6985000000000001
 79
     2
 49
0.508
 49
-0.1905
 53
90.0
 43
0.0
 44
0.0
 45
-0.6985000000000001
 46
0.0
 79
     2
 49
0.508
 49
-0.1905
 98
        0
1001
ACAD
1010
0.0
1020
0.0
1030
0.0
  0
HATCH
  5
15B0
330
15DC
100
AcDbEntity
  8
0
 62
     9
420
 12632256
100
AcDbHatch
 10
0.0
 20
0.0
 30
0.0
210
0.0
220
0.0
230
1.0
  2
ANGLE
 70
     0
 71
     0
 91
        1
 92
        0
 93
        4
 72
     1
 10
-18.43178749999982
 20
20.40004999999995
 11
-15.77321249999983
 21
20.40004999999995
 72
     1
 10
-15.77321249999983
 20
20.40004999999995
 11
-15.77321249999985
 21
15.76719999999995
 72
     1
 10
-15.77321249999985
 20
15.76719999999995
 11
-18.43178749999982
 21
15.76719999999995
 72
     1
 10
-18.43178749999982
 20
15.76719999999995
 11
-18.43178749999982
 21
20.40004999999995
 97
        0
 75
     0
 76
     1
 52
0.0
 41
0.1
 77
     0
 78
     2
 53
0.0
 43
0.0
 44
0.0
 45
0.0
 46
0.6985000000000001
 79
     2
 49
0.508
 49
-0.1905
 53
90.0
 43
0.0
 44
0.0
 45
-0.6985000000000001
 46
0.0
 79
     2
 49
0.508
 49
-0.1905
 98
        0
1001
ACAD
1010
0.0
1020
0.0
1030
0.0
  0
HATCH
  5
15B1
330
15DC
100
AcDbEntity
  8
0
 62
     9
420
 12632256
100
AcDbHatch
 10
0.0
 20
0.0
 30
0.0
210
0.0
220
0.0
230
1.0
  2
ANGLE
 70
     0
 71
     0
 91
        1
 92
        0
 93
        4
 72
     1
 10
-15.32178749999984
 20
20.40004999999995
 11
-12.66321249999986
 21
20.40004999999995
 72
     1
 10
-12.66321249999986
 20
20.40004999999995
 11
-12.66321249999987
 21
15.76719999999997
 72
     1
 10
-12.66321249999987
 20
15.76719999999997
 11
-15.32178749999985
 21
15.76719999999997
 72
     1
 10
-15.32178749999985
 20
15.76719999999997
 11
-15.32178749999984
 21
20.40004999999995
 97
        0
 75
     0
 76
     1
 52
0.0
 41
0.1
 77
     0
 78
     2
 53
0.0
 43
0.0
 44
0.0
 45
0.0
 46
0.6985000000000001
 79
     2
 49
0.508
 49
-0.1905
 53
90.0
 43
0.0
 44
0.0
 45
-0.6985000000000001
 46
0.0
 79
     2
 49
0.508
 49
-0.1905
 98
        0
1001
ACAD
1010
0.0
1020
0.0
1030
0.0
  0
HATCH
  5
15B2
330
15DC
100
AcDbEntity
  8
0
 62
     9
420
 12632256
100
AcDbHatch
 10
0.0
 20
0.0
 30
0.0
210
0.0
220
0.0
230
1.0
  2
ANGLE
 70
     0
 71
     0
 91
        1
 92
        0
 93
        4
 72
     1
 10
-12.21178749999987
 20
20.40004999999996
 11
-9.553212499999894
 21
20.40004999999996
 72
     1
 10
-9.553212499999894
 20
20.40004999999996
 11
-9.553212499999903
 21
15.76719999999998
 72
     1
 10
-9.553212499999903
 20
15.76719999999998
 11
-12.21178749999988
 21
15.76719999999998
 72
     1
 10
-12.21178749999988
 20
15.76719999999998
 11
-12.21178749999987
 21
20.40004999999996
 97
        0
 75
     0
 76
     1
 52
0.0
 41
0.1
 77
     0
 78
     2
 53
0.0
 43
0.0
 44
0.0
 45
0.0
 46
0.6985000000000001
 79
     2
 49
0.508
 49
-0.1905
 53
90.0
 43
0.0
 44
0.0
 45
-0.6985000000000001
 46
0.0
 79
     2
 49
0.508
 49
-0.1905
 98
        0
1001
ACAD
1010
0.0
1020
0.0
1030
0.0
  0
HATCH
  5
15B3
330
15DC
100
AcDbEntity
  8
0
 62
     9
420
 12632256
100
AcDbHatch
 10
0.0
 20
0.0
 30
0.0
210
0.0
220
0.0
230
1.0
  2
ANGLE
 70
     0
 71
     0
 91
        1
 92
        0
 93
        4
 72
     1
 10
-9.101787499999906
 20
20.40004999999996
 11
-6.443212499999925
 21
20.40004999999996
 72
     1
 10
-6.443212499999925
 20
20.40004999999996
 11
-6.443212499999929
 21
15.76719999999998
 72
     1
 10
-6.443212499999929
 20
15.76719999999998
 11
-9.10178749999991
 21
15.76719999999998
 72
     1
 10
-9.10178749999991
 20
15.76719999999998
 11
-9.101787499999906
 21
20.40004999999996
 97
        0
 75
     0
 76
     1
 52
0.0
 41
0.1
 77
     0
 78
     2
 53
0.0
 43
0.0
 44
0.0
 45
0.0
 46
0.6985000000000001
 79
     2
 49
0.508
 49
-0.1905
 53
90.0
 43
0.0
 44
0.0
 45
-0.6985000000000001
 46
0.0
 79
     2
 49
0.508
 49
-0.1905
 98
        0
1001
ACAD
1010
0.0
1020
0.0
1030
0.0
  0
HATCH
  5
15B4
330
15DC
100
AcDbEntity
  8
0
 62
     9
420
 12632256
100
AcDbHatch
 10
0.0
 20
0.0
 30
0.0
210
0.0
220
0.0
230
1.0
  2
ANGLE
 70
     0
 71
     0
 91
        1
 92
        0
 93
        4
 72
     1
 10
-5.991787499999935
 20
20.40004999999998
 11
-3.333212499999954
 21
20.40004999999998
 72
     1
 10
-3.333212499999954
 20
20.40004999999998
 11
-3.333212499999958
 21
15.76719999999998
 72
     1
 10
-3.333212499999958
 20
15.76719999999998
 11
-5.991787499999939
 21
15.76719999999998
 72
     1
 10
-5.991787499999939
 20
15.76719999999998
 11
-5.991787499999935
 21
20.40004999999998
 97
        0
 75
     0
 76
     1
 52
0.0
 41
0.1
 77
     0
 78
     2
 53
0.0
 43
0.0
 44
0.0
 45
0.0
 46
0.6985000000000001
 79
     2
 49
0.508
 49
-0.1905
 53
90.0
 43
0.0
 44
0.0
 45
-0.6985000000000001
 46
0.0
 79
     2
 49
0.508
 49
-0.1905
 98
        0
1001
ACAD
1010
0.0
1020
0.0
1030
0.0
  0
HATCH
  5
15B5
330
15DC
100
AcDbEntity
  8
0
 62
     9
420
 12632256
100
AcDbHatch
 10
0.0
 20
0.0
 30
0.0
210
0.0
220
0.0
230
1.0
  2
ANGLE
 70
     0
 71
     0
 91
        1
 92
        0
 93
        4
 72
     1
 10
-2.881787499999961
 20
25.49254999999998
 11
-0.2232124999999794
 21
25.49254999999998
 72
     1
 10
-0.2232124999999792
 20
25.49254999999998
 11
-0.2232124999999827
 21
20.85969999999999
 72
     1
 10
-0.2232124999999827
 20
20.85969999999999
 11
-2.881787499999963
 21
20.85969999999999
 72
     1
 10
-2.881787499999963
 20
20.85969999999999
 11
-2.881787499999961
 21
25.49254999999998
 97
        0
 75
     0
 76
     1
 52
0.0
 41
0.1
 77
     0
 78
     2
 53
0.0
 43
0.0
 44
0.0
 45
0.0
 46
0.6985000000000001
 79
     2
 49
0.508
 49
-0.1905
 53
90.0
 43
0.0
 44
0.0
 45
-0.6985000000000001
 46
0.0
 79
     2
 49
0.508
 49
-0.1905
 98
        0
1001
ACAD
1010
0.0
1020
0.0
1030
0.0
  0
HATCH
  5
15B6
330
15DC
100
AcDbEntity
  8
0
 62
     9
420
 12632256
100
AcDbHatch
 10
0.0
 20
0.0
 30
0.0
210
0.0
220
0.0
230
1.0
  2
ANGLE
 70
     0
 71
     0
 91
        1
 92
        0
 93
        4
 72
     1
 10
-18.43178749999981
 20
25.49254999999994
 11
-15.77321249999983
 21
25.49254999999994
 72
     1
 10
-15.77321249999983
 20
25.49254999999994
 11
-15.77321249999983
 21
20.85969999999995
 72
     1
 10
-15.77321249999983
 20
20.85969999999995
 11
-18.43178749999982
 21
20.85969999999995
 72
     1
 10
-18.43178749999982
 20
20.85969999999995
 11
-18.43178749999981
 21
25.49254999999994
 97
        0
 75
     0
 76
     1
 52
0.0
 41
0.1
 77
     0
 78
     2
 53
0.0
 43
0.0
 44
0.0
 45
0.0
 46
0.6985000000000001
 79
     2
 49
0.508
 49
-0.1905
 53
90.0
 43
0.0
 44
0.0
 45
-0.6985000000000001
 46
0.0
 79
     2
 49
0.508
 49
-0.1905
 98
        0
1001
ACAD
1010
0.0
1020
0.0
1030
0.0
  0
HATCH
  5
15B7
330
15DC
100
AcDbEntity
  8
0
 62
     9
420
 12632256
100
AcDbHatch
 10
0.0
 20
0.0
 30
0.0
210
0.0
220
0.0
230
1.0
  2
ANGLE
 70
     0
 71
     0
 91
        1
 92
        0
 93
        4
 72
     1
 10
-15.32178749999984
 20
25.49254999999994
 11
-12.66321249999986
 21
25.49254999999994
 72
     1
 10
-12.66321249999986
 20
25.49254999999994
 11
-12.66321249999986
 21
20.85969999999996
 72
     1
 10
-12.66321249999986
 20
20.85969999999996
 11
-15.32178749999984
 21
20.85969999999996
 72
     1
 10
-15.32178749999984
 20
20.85969999999996
 11
-15.32178749999984
 21
25.49254999999994
 97
        0
 75
     0
 76
     1
 52
0.0
 41
0.1
 77
     0
 78
     2
 53
0.0
 43
0.0
 44
0.0
 45
0.0
 46
0.6985000000000001
 79
     2
 49
0.508
 49
-0.1905
 53
90.0
 43
0.0
 44
0.0
 45
-0.6985000000000001
 46
0.0
 79
     2
 49
0.508
 49
-0.1905
 98
        0
1001
ACAD
1010
0.0
1020
0.0
1030
0.0
  0
HATCH
  5
15B8
330
15DC
100
AcDbEntity
  8
0
 62
     9
420
 12632256
100
AcDbHatch
 10
0.0
 20
0.0
 30
0.0
210
0.0
220
0.0
230
1.0
  2
ANGLE
 70
     0
 71
     0
 91
        1
 92
        0
 93
        4
 72
     1
 10
-12.21178749999987
 20
25.49254999999996
 11
-9.553212499999894
 21
25.49254999999996
 72
     1
 10
-9.553212499999894
 20
25.49254999999996
 11
-9.553212499999894
 21
20.85969999999996
 72
     1
 10
-9.553212499999894
 20
20.85969999999996
 11
-12.21178749999987
 21
20.85969999999996
 72
     1
 10
-12.21178749999987
 20
20.85969999999996
 11
-12.21178749999987
 21
25.49254999999996
 97
        0
 75
     0
 76
     1
 52
0.0
 41
0.1
 77
     0
 78
     2
 53
0.0
 43
0.0
 44
0.0
 45
0.0
 46
0.6985000000000001
 79
     2
 49
0.508
 49
-0.1905
 53
90.0
 43
0.0
 44
0.0
 45
-0.6985000000000001
 46
0.0
 79
     2
 49
0.508
 49
-0.1905
 98
        0
1001
ACAD
1010
0.0
1020
0.0
1030
0.0
  0
HATCH
  5
15B9
330
15DC
100
AcDbEntity
  8
0
 62
     9
420
 12632256
100
AcDbHatch
 10
0.0
 20
0.0
 30
0.0
210
0.0
220
0.0
230
1.0
  2
ANGLE
 70
     0
 71
     0
 91
        1
 92
        0
 93
        4
 72
     1
 10
-9.101787499999903
 20
25.49254999999997
 11
-6.443212499999921
 21
25.49254999999997
 72
     1
 10
-6.443212499999921
 20
25.49254999999997
 11
-6.443212499999925
 21
20.85969999999998
 72
     1
 10
-6.443212499999925
 20
20.85969999999998
 11
-9.101787499999906
 21
20.85969999999998
 72
     1
 10
-9.101787499999906
 20
20.85969999999998
 11
-9.101787499999903
 21
25.49254999999997
 97
        0
 75
     0
 76
     1
 52
0.0
 41
0.1
 77
     0
 78
     2
 53
0.0
 43
0.0
 44
0.0
 45
0.0
 46
0.6985000000000001
 79
     2
 49
0.508
 49
-0.1905
 53
90.0
 43
0.0
 44
0.0
 45
-0.6985000000000001
 46
0.0
 79
     2
 49
0.508
 49
-0.1905
 98
        0
1001
ACAD
1010
0.0
1020
0.0
1030
0.0
  0
HATCH
  5
15BA
330
15DC
100
AcDbEntity
  8
0
 62
     9
420
 12632256
100
AcDbHatch
 10
0.0
 20
0.0
 30
0.0
210
0.0
220
0.0
230
1.0
  2
ANGLE
 70
     0
 71
     0
 91
        1
 92
        0
 93
        4
 72
     1
 10
-5.991787499999932
 20
25.49254999999997
 11
-3.33321249999995
 21
25.49254999999997
 72
     1
 10
-3.33321249999995
 20
25.49254999999997
 11
-3.333212499999954
 21
20.85969999999999
 72
     1
 10
-3.333212499999954
 20
20.85969999999999
 11
-5.991787499999935
 21
20.85969999999999
 72
     1
 10
-5.991787499999935
 20
20.85969999999999
 11
-5.991787499999932
 21
25.49254999999997
 97
        0
 75
     0
 76
     1
 52
0.0
 41
0.1
 77
     0
 78
     2
 53
0.0
 43
0.0
 44
0.0
 45
0.0
 46
0.6985000000000001
 79
     2
 49
0.508
 49
-0.1905
 53
90.0
 43
0.0
 44
0.0
 45
-0.6985000000000001
 46
0.0
 79
     2
 49
0.508
 49
-0.1905
 98
        0
1001
ACAD
1010
0.0
1020
0.0
1030
0.0
  0
HATCH
  5
15BB
330
15DC
100
AcDbEntity
  8
0
 62
     9
420
 12632256
100
AcDbHatch
 10
0.0
 20
0.0
 30
0.0
210
0.0
220
0.0
230
1.0
  2
ANGLE
 70
     0
 71
     0
 91
        1
 92
        0
 93
        4
 72
     1
 10
0.2282125000000106
 20
25.49254999999998
 11
2.886787499999992
 21
25.49254999999998
 72
     1
 10
2.886787499999992
 20
25.49254999999998
 11
2.886787499999988
 21
20.8597
 72
     1
 10
2.886787499999988
 20
20.8597
 11
0.2282125000000068
 21
20.8597
 72
     1
 10
0.228212500000007
 20
20.8597
 11
0.2282125000000106
 21
25.49254999999998
 97
        0
 75
     0
 76
     1
 52
0.0
 41
0.1
 77
     0
 78
     2
 53
0.0
 43
0.0
 44
0.0
 45
0.0
 46
0.6985000000000001
 79
     2
 49
0.508
 49
-0.1905
 53
90.0
 43
0.0
 44
0.0
 45
-0.6985000000000001
 46
0.0
 79
     2
 49
0.508
 49
-0.1905
 98
        0
1001
ACAD
1010
0.0
1020
0.0
1030
0.0
  0
HATCH
  5
15BC
330
15DC
100
AcDbEntity
  8
0
 62
     9
420
 12632256
100
AcDbHatch
 10
0.0
 20
0.0
 30
0.0
210
0.0
220
0.0
230
1.0
  2
ANGLE
 70
     0
 71
     0
 91
        1
 92
        0
 93
        4
 72
     1
 10
3.338212499999981
 20
25.49254999999999
 11
5.996787499999962
 21
25.49254999999999
 72
     1
 10
5.996787499999962
 20
25.49254999999999
 11
5.996787499999959
 21
20.8597
 72
     1
 10
5.996787499999959
 20
20.8597
 11
3.338212499999979
 21
20.8597
 72
     1
 10
3.338212499999979
 20
20.8597
 11
3.338212499999981
 21
25.49254999999999
 97
        0
 75
     0
 76
     1
 52
0.0
 41
0.1
 77
     0
 78
     2
 53
0.0
 43
0.0
 44
0.0
 45
0.0
 46
0.6985000000000001
 79
     2
 49
0.508
 49
-0.1905
 53
90.0
 43
0.0
 44
0.0
 45
-0.6985000000000001
 46
0.0
 79
     2
 49
0.508
 49
-0.1905
 98
        0
1001
ACAD
1010
0.0
1020
0.0
1030
0.0
  0
HATCH
  5
15BD
330
15DC
100
AcDbEntity
  8
0
 62
     9
420
 12632256
100
AcDbHatch
 10
0.0
 20
0.0
 30
0.0
210
0.0
220
0.0
230
1.0
  2
ANGLE
 70
     0
 71
     0
 91
        1
 92
        0
 93
        4
 72
     1
 10
6.448212499999952
 20
25.49254999999999
 11
9.106787499999934
 21
25.49254999999999
 72
     1
 10
9.106787499999934
 20
25.49254999999999
 11
9.10678749999993
 21
20.85970000000001
 72
     1
 10
9.10678749999993
 20
20.85970000000001
 11
6.448212499999949
 21
20.85970000000001
 72
     1
 10
6.448212499999949
 20
20.85970000000001
 11
6.448212499999952
 21
25.49254999999999
 97
        0
 75
     0
 76
     1
 52
0.0
 41
0.1
 77
     0
 78
     2
 53
0.0
 43
0.0
 44
0.0
 45
0.0
 46
0.6985000000000001
 79
     2
 49
0.508
 49
-0.1905
 53
90.0
 43
0.0
 44
0.0
 45
-0.6985000000000001
 46
0.0
 79
     2
 49
0.508
 49
-0.1905
 98
        0
1001
ACAD
1010
0.0
1020
0.0
1030
0.0
  0
ENDSEC
  0
SECTION
  2
OBJECTS
  0
DICTIONARY
  5
15CA
330
0
100
AcDbDictionary
281
     1
  3
ACAD_DETAILVIEWSTYLE
350
166C
  3
ACAD_GROUP
350
15CB
  3
ACAD_LAYOUT
350
15D7
  3
ACAD_MATERIAL
350
1600
  3
ACAD_MLEADERSTYLE
350
166B
  3
ACAD_MLINESTYLE
350
15D4
  3
ACAD_PLOTSETTINGS
350
15D6
  3
ACAD_PLOTSTYLENAME
350
15CC
  3
ACAD_SCALELIST
350
1604
  3
ACAD_SECTIONVIEWSTYLE
350
166D
  3
ACAD_TABLESTYLE
350
166A
  3
ACAD_VISUALSTYLE
350
15E7
  3
AcDbVariableDictionary
350
1668
  3
QCAD_OBJECTS
350
1628
  0
SUN
  5
1626
330
15E6
100
AcDbSun
 90
        1
290
     0
 63
     7
421
 16777215
 40
1.0
291
     1
 91
  2455826
 92
 54000000
292
     0
 70
     2
 71
   256
280
     1
  0
DICTIONARY
  5
166C
102
{ACAD_REACTORS
330
15CA
102
}
330
15CA
100
AcDbDictionary
281
     1
  0
DICTIONARY
  5
15CB
102
{ACAD_REACTORS
330
15CA
102
}
330
15CA
100
AcDbDictionary
281
     1
  0
DICTIONARY
  5
15D7
102
{ACAD_REACTORS
330
15CA
102
}
330
15CA
100
AcDbDictionary
281
     1
  3
Layout1
350
15DB
  3
Layout2
350
15E3
  3
Model
350
15DF
  0
DICTIONARY
  5
1600
102
{ACAD_REACTORS
330
15CA
102
}
330
15CA
100
AcDbDictionary
281
     1
  3
ByBlock
350
1602
  3
ByLayer
350
1601
  3
Global
350
1603
  0
DICTIONARY
  5
166B
102
{ACAD_REACTORS
330
15CA
102
}
330
15CA
100
AcDbDictionary
281
     1
  0
DICTIONARY
  5
15D4
102
{ACAD_REACTORS
330
15CA
102
}
330
15CA
100
AcDbDictionary
281
     1
  3
Standard
350
15D5
  0
DICTIONARY
  5
15D6
102
{ACAD_REACTORS
330
15CA
102
}
330
15CA
100
AcDbDictionary
281
     1
  0
ACDBDICTIONARYWDFLT
  5
15CC
102
{ACAD_REACTORS
330
15CA
102
}
330
15CA
100
AcDbDictionary
281
     1
  3
Normal
350
15CD
100
AcDbDictionaryWithDefault
340
15CD
  0
DICTIONARY
  5
1604
102
{ACAD_REACTORS
330
15CA
102
}
330
15CA
100
AcDbDictionary
281
     1
  3
A0
350
1605
  3
A1
350
1606
  3
A2
350
1607
  3
A3
350
1608
  3
A4
350
1609
  3
A5
350
160A
  3
A6
350
160B
  3
A7
350
160C
  3
A8
350
160D
  3
A9
350
160E
  3
B0
350
160F
  3
B1
350
1610
  3
B2
350
1611
  3
B3
350
1612
  3
B4
350
1613
  3
B5
350
1614
  3
B6
350
1615
  3
B7
350
1616
  3
B8
350
1617
  3
B9
350
1618
  3
C0
350
1619
  3
C1
350
161A
  3
C2
350
161B
  3
C3
350
161C
  3
C4
350
161D
  3
C5
350
161E
  3
C6
350
161F
  3
C7
350
1620
  3
C8
350
1621
  3
C9
350
1622
  3
D0
350
1623
  3
D1
350
1624
  3
D2
350
1625
  0
DICTIONARY
  5
166D
102
{ACAD_REACTORS
330
15CA
102
}
330
15CA
100
AcDbDictionary
281
     1
  0
DICTIONARY
  5
166A
102
{ACAD_REACTORS
330
15CA
102
}
330
15CA
100
AcDbDictionary
281
     1
  0
DICTIONARY
  5
15E7
102
{ACAD_REACTORS
330
15CA
102
}
330
15CA
100
AcDbDictionary
281
     1
  3
2dWireframe
350
15EC
  3
Basic
350
15EF
  3
Brighten
350
15F3
  3
ColorChange
350
15F7
  3
Conceptual
350
15F1
  3
Dim
350
15F2
  3
EdgeColorOff
350
15FA
  3
Facepattern
350
15F6
  3
Flat
350
15E8
  3
FlatWithEdges
350
15E9
  3
Gouraud
350
15EA
  3
GouraudWithEdges
350
15EB
  3
Hidden
350
15EE
  3
JitterOff
350
15F8
  3
Linepattern
350
15F5
  3
OverhangOff
350
15F9
  3
Realistic
350
15F0
  3
Shaded
350
15FF
  3
Shaded with edges
350
15FE
  3
Shades of Gray
350
15FB
  3
Sketchy
350
15FC
  3
Thicken
350
15F4
  3
Wireframe
350
15ED
  3
X-Ray
350
15FD
  0
DICTIONARY
  5
1668
102
{ACAD_REACTORS
330
15CA
102
}
330
15CA
100
AcDbDictionary
281
     1
  3
CANNOSCALE
350
1669
  0
DICTIONARY
  5
1628
102
{ACAD_REACTORS
330
15CA
102
}
330
15CA
100
AcDbDictionary
281
     1
  3
Grid/DisplayGrid00
350
1629
  3
Grid/DisplayGrid01
350
162A
  3
Grid/DisplayGrid02
350
162B
  3
Grid/DisplayGrid03
350
162C
  3
Grid/GridSpacingX00
350
162D
  3
Grid/GridSpacingX01
350
162E
  3
Grid/GridSpacingX02
350
162F
  3
Grid/GridSpacingX03
350
1630
  3
Grid/GridSpacingY00
350
1631
  3
Grid/GridSpacingY01
350
1632
  3
Grid/GridSpacingY02
350
1633
  3
Grid/GridSpacingY03
350
1634
  3
Grid/IsometricGrid00
350
1635
  3
Grid/IsometricGrid01
350
1636
  3
Grid/IsometricGrid02
350
1637
  3
Grid/IsometricGrid03
350
1638
  3
Grid/IsometricProjection00
350
1639
  3
Grid/IsometricProjection01
350
163A
  3
Grid/IsometricProjection02
350
163B
  3
Grid/IsometricProjection03
350
163C
  3
Grid/MetaGridSpacingX00
350
163D
  3
Grid/MetaGridSpacingX01
350
163E
  3
Grid/MetaGridSpacingX02
350
163F
  3
Grid/MetaGridSpacingX03
350
1640
  3
Grid/MetaGridSpacingY00
350
1641
  3
Grid/MetaGridSpacingY01
350
1642
  3
Grid/MetaGridSpacingY02
350
1643
  3
Grid/MetaGridSpacingY03
350
1644
  3
MultiPageSettings/Columns
350
1645
  3
MultiPageSettings/GlueMarginsBottom
350
1646
  3
MultiPageSettings/GlueMarginsLeft
350
1647
  3
MultiPageSettings/GlueMarginsRight
350
1648
  3
MultiPageSettings/GlueMarginsTop
350
1649
  3
MultiPageSettings/PrintCropMarks
350
164A
  3
MultiPageSettings/Rows
350
164B
  3
PageSettings/OffsetX
350
164C
  3
PageSettings/OffsetY
350
164D
  3
PageSettings/PageOrientation
350
164E
  3
PageSettings/PaperHeight
350
164F
  3
PageSettings/PaperWidth
350
1650
  3
PageSettings/Scale
350
1651
  3
PageSettings/ShowPaperBorders
350
1652
  3
UnitSettings/PaperUnit
350
1653
  0
LAYOUT
  5
15DB
102
{ACAD_REACTORS
330
15D7
102
}
330
15D7
100
AcDbPlotSettings
  1

  2
none_device
  4

  6

 40
0.0
 41
0.0
 42
0.0
 43
0.0
 44
0.0
 45
0.0
 46
0.0
 47
0.0
 48
0.0
 49
0.0
140
0.0
141
0.0
142
1.0
143
1.0
 70
   688
 72
     0
 73
     0
 74
     5
  7

 75
    16
 76
     0
 77
     2
 78
   300
147
1.0
148
0.0
149
0.0
100
AcDbLayout
  1
Layout1
 70
     1
 71
     1
 10
0.0
 20
0.0
 11
12.0
 21
9.0
 12
0.0
 22
0.0
 32
0.0
 14
1.000000000000000E+20
 24
1.000000000000000E+20
 34
1.000000000000000E+20
 15
-1.000000000000000E+20
 25
-1.000000000000000E+20
 35
-1.000000000000000E+20
146
0.0
 13
0.0
 23
0.0
 33
0.0
 16
1.0
 26
0.0
 36
0.0
 17
0.0
 27
1.0
 37
0.0
 76
     0
330
15D8
  0
LAYOUT
  5
15E3
102
{ACAD_REACTORS
330
15D7
102
}
330
15D7
100
AcDbPlotSettings
  1

  2
none_device
  4

  6

 40
0.0
 41
0.0
 42
0.0
 43
0.0
 44
0.0
 45
0.0
 46
0.0
 47
0.0
 48
0.0
 49
0.0
140
0.0
141
0.0
142
1.0
143
1.0
 70
   688
 72
     0
 73
     0
 74
     5
  7

 75
    16
 76
     0
 77
     2
 78
   300
147
1.0
148
0.0
149
0.0
100
AcDbLayout
  1
Layout2
 70
     1
 71
     2
 10
0.0
 20
0.0
 11
0.0
 21
0.0
 12
0.0
 22
0.0
 32
0.0
 14
0.0
 24
0.0
 34
0.0
 15
0.0
 25
0.0
 35
0.0
146
0.0
 13
0.0
 23
0.0
 33
0.0
 16
1.0
 26
0.0
 36
0.0
 17
0.0
 27
1.0
 37
0.0
 76
     0
330
15E0
  0
LAYOUT
  5
15DF
102
{ACAD_REACTORS
330
15D7
102
}
330
15D7
100
AcDbPlotSettings
  1

  2
none_device
  4
Letter_(8.50_x_11.00_Inches)
  6

 40
6.35
 41
6.35
 42
6.35000508
 43
6.35000508
 44
215.9
 45
279.4
 46
0.0
 47
0.0
 48
0.0
 49
0.0
140
0.0
141
0.0
142
1.0
143
1.0
 70
  1712
 72
     0
 73
     0
 74
     0
  7

 75
     0
 76
     0
 77
     2
 78
   300
147
1.0
148
0.0
149
0.0
100
AcDbLayout
  1
Model
 70
     1
 71
     0
 10
0.0
 20
0.0
 11
12.0
 21
9.0
 12
0.0
 22
0.0
 32
0.0
 14
1.000000000000000E+20
 24
1.000000000000000E+20
 34
1.000000000000000E+20
 15
-1.000000000000000E+20
 25
-1.000000000000000E+20
 35
-1.000000000000000E+20
146
0.0
 13
0.0
 23
0.0
 33
0.0
 16
1.0
 26
0.0
 36
0.0
 17
0.0
 27
1.0
 37
0.0
 76
     0
330
15DC
331
15E6
  0
MATERIAL
  5
1602
102
{ACAD_REACTORS
330
1600
102
}
330
1600
100
AcDbMaterial
  1
ByBlock
 72
     1
 94
      127
  0
MATERIAL
  5
1601
102
{ACAD_REACTORS
330
1600
102
}
330
1600
100
AcDbMaterial
  1
ByLayer
 72
     1
 94
      127
  0
MATERIAL
  5
1603
102
{ACAD_REACTORS
330
1600
102
}
330
1600
100
AcDbMaterial
  1
Global
 72
     1
 94
      127
  0
MLINESTYLE
  5
15D5
102
{ACAD_REACTORS
330
15D4
102
}
330
15D4
100
AcDbMlineStyle
  2
Standard
 70
     0
  3

 62
   256
 51
90.0
 52
90.0
 71
     2
 49
0.5
 62
   256
  6
BYLAYER
 49
-0.5
 62
   256
  6
BYLAYER
  0
ACDBPLACEHOLDER
  5
15CD
102
{ACAD_REACTORS
330
15CC
102
}
330
15CC
  0
SCALE
  5
1605
102
{ACAD_REACTORS
330
1604
102
}
330
1604
100
AcDbScale
 70
     0
300
1:1
140
1.0
141
1.0
290
     1
  0
SCALE
  5
1606
102
{ACAD_REACTORS
330
1604
102
}
330
1604
100
AcDbScale
 70
     0
300
1:2
140
1.0
141
2.0
290
     0
  0
SCALE
  5
1607
102
{ACAD_REACTORS
330
1604
102
}
330
1604
100
AcDbScale
 70
     0
300
1:4
140
1.0
141
4.0
290
     0
  0
SCALE
  5
1608
102
{ACAD_REACTORS
330
1604
102
}
330
1604
100
AcDbScale
 70
     0
300
1:5
140
1.0
141
5.0
290
     0
  0
SCALE
  5
1609
102
{ACAD_REACTORS
330
1604
102
}
330
1604
100
AcDbScale
 70
     0
300
1:8
140
1.0
141
8.0
290
     0
  0
SCALE
  5
160A
102
{ACAD_REACTORS
330
1604
102
}
330
1604
100
AcDbScale
 70
     0
300
1:10
140
1.0
141
10.0
290
     0
  0
SCALE
  5
160B
102
{ACAD_REACTORS
330
1604
102
}
330
1604
100
AcDbScale
 70
     0
300
1:16
140
1.0
141
16.0
290
     0
  0
SCALE
  5
160C
102
{ACAD_REACTORS
330
1604
102
}
330
1604
100
AcDbScale
 70
     0
300
1:20
140
1.0
141
20.0
290
     0
  0
SCALE
  5
160D
102
{ACAD_REACTORS
330
1604
102
}
330
1604
100
AcDbScale
 70
     0
300
1:30
140
1.0
141
30.0
290
     0
  0
SCALE
  5
160E
102
{ACAD_REACTORS
330
1604
102
}
330
1604
100
AcDbScale
 70
     0
300
1:40
140
1.0
141
40.0
290
     0
  0
SCALE
  5
160F
102
{ACAD_REACTORS
330
1604
102
}
330
1604
100
AcDbScale
 70
     0
300
1:50
140
1.0
141
50.0
290
     0
  0
SCALE
  5
1610
102
{ACAD_REACTORS
330
1604
102
}
330
1604
100
AcDbScale
 70
     0
300
1:100
140
1.0
141
100.0
290
     0
  0
SCALE
  5
1611
102
{ACAD_REACTORS
330
1604
102
}
330
1604
100
AcDbScale
 70
     0
300
2:1
140
2.0
141
1.0
290
     0
  0
SCALE
  5
1612
102
{ACAD_REACTORS
330
1604
102
}
330
1604
100
AcDbScale
 70
     0
300
4:1
140
4.0
141
1.0
290
     0
  0
SCALE
  5
1613
102
{ACAD_REACTORS
330
1604
102
}
330
1604
100
AcDbScale
 70
     0
300
8:1
140
8.0
141
1.0
290
     0
  0
SCALE
  5
1614
102
{ACAD_REACTORS
330
1604
102
}
330
1604
100
AcDbScale
 70
     0
300
10:1
140
10.0
141
1.0
290
     0
  0
SCALE
  5
1615
102
{ACAD_REACTORS
330
1604
102
}
330
1604
100
AcDbScale
 70
     0
300
100:1
140
100.0
141
1.0
290
     0
  0
SCALE
  5
1616
102
{ACAD_REACTORS
330
1604
102
}
330
1604
100
AcDbScale
 70
     0
300
1/128" = 1'-0"
140
0.0078125
141
12.0
290
     0
  0
SCALE
  5
1617
102
{ACAD_REACTORS
330
1604
102
}
330
1604
100
AcDbScale
 70
     0
300
1/64" = 1'-0"
140
0.015625
141
12.0
290
     0
  0
SCALE
  5
1618
102
{ACAD_REACTORS
330
1604
102
}
330
1604
100
AcDbScale
 70
     0
300
1/32" = 1'-0"
140
0.03125
141
12.0
290
     0
  0
SCALE
  5
1619
102
{ACAD_REACTORS
330
1604
102
}
330
1604
100
AcDbScale
 70
     0
300
1/16" = 1'-0"
140
0.0625
141
12.0
290
     0
  0
SCALE
  5
161A
102
{ACAD_REACTORS
330
1604
102
}
330
1604
100
AcDbScale
 70
     0
300
3/32" = 1'-0"
140
0.09375
141
12.0
290
     0
  0
SCALE
  5
161B
102
{ACAD_REACTORS
330
1604
102
}
330
1604
100
AcDbScale
 70
     0
300
1/8" = 1'-0"
140
0.125
141
12.0
290
     0
  0
SCALE
  5
161C
102
{ACAD_REACTORS
330
1604
102
}
330
1604
100
AcDbScale
 70
     0
300
3/16" = 1'-0"
140
0.1875
141
12.0
290
     0
  0
SCALE
  5
161D
102
{ACAD_REACTORS
330
1604
102
}
330
1604
100
AcDbScale
 70
     0
300
1/4" = 1'-0"
140
0.25
141
12.0
290
     0
  0
SCALE
  5
161E
102
{ACAD_REACTORS
330
1604
102
}
330
1604
100
AcDbScale
 70
     0
300
3/8" = 1'-0"
140
0.375
141
12.0
290
     0
  0
SCALE
  5
161F
102
{ACAD_REACTORS
330
1604
102
}
330
1604
100
AcDbScale
 70
     0
300
1/2" = 1'-0"
140
0.5
141
12.0
290
     0
  0
SCALE
  5
1620
102
{ACAD_REACTORS
330
1604
102
}
330
1604
100
AcDbScale
 70
     0
300
3/4" = 1'-0"
140
0.75
141
12.0
290
     0
  0
SCALE
  5
1621
102
{ACAD_REACTORS
330
1604
102
}
330
1604
100
AcDbScale
 70
     0
300
1" = 1'-0"
140
1.0
141
12.0
290
     0
  0
SCALE
  5
1622
102
{ACAD_REACTORS
330
1604
102
}
330
1604
100
AcDbScale
 70
     0
300
1-1/2" = 1'-0"
140
1.5
141
12.0
290
     0
  0
SCALE
  5
1623
102
{ACAD_REACTORS
330
1604
102
}
330
1604
100
AcDbScale
 70
     0
300
3" = 1'-0"
140
3.0
141
12.0
290
     0
  0
SCALE
  5
1624
102
{ACAD_REACTORS
330
1604
102
}
330
1604
100
AcDbScale
 70
     0
300
6" = 1'-0"
140
6.0
141
12.0
290
     0
  0
SCALE
  5
1625
102
{ACAD_REACTORS
330
1604
102
}
330
1604
100
AcDbScale
 70
     0
300
1'-0" = 1'-0"
140
12.0
141
12.0
290
     0
  0
VISUALSTYLE
  5
15EC
102
{ACAD_REACTORS
330
15E7
102
}
330
15E7
100
AcDbVisualStyle
  2
2dWireframe
 70
     4
177
     3
291
     0
 70
    58
 90
        0
176
     1
 90
        2
176
     1
 90
        0
176
     1
 90
        0
176
     1
 40
0.6
176
     1
 40
30.0
176
     1
 62
     7
420
 16777215
176
     1
 90
        1
176
     1
 90
        4
176
     1
 62
     7
176
     1
 62
   257
176
     1
 90
        1
176
     1
 90
        1
176
     1
 40
1.0
176
     1
 90
        0
176
     1
 62
   257
176
     1
 40
1.0
176
     1
 90
        1
176
     1
 90
        6
176
     1
 90
        2
176
     1
 62
     7
176
     1
 90
        5
176
     1
 90
        0
176
     1
 90
        0
176
     1
290
     0
176
     1
 90
        1
176
     1
 40
0.0
176
     1
 90
        0
176
     1
290
     1
176
     1
290
     1
176
     1
290
     0
176
     1
290
     0
176
     1
290
     0
176
     1
290
     0
176
     1
290
     0
176
     1
290
     0
176
     1
290
     0
176
     1
 90
       50
176
     1
 40
0.0
176
     1
 40
1.0
176
     1
 90
        0
176
     1
 62
   178
420
        0
176
     1
 90
       50
176
     1
 90
        3
176
     1
 62
     5
420
      255
176
     1
290
     0
176
     1
 90
       50
176
     1
 90
       50
176
     1
 90
       50
176
     1
290
     0
176
     1
 90
       50
176
     1
 62
   256
176
     0
 40
1.0
176
     0
 90
        2
176
     1
  1
strokes_ogs.tif
176
     1
290
     0
176
     1
 40
1.0
176
     1
 40
1.0
176
     1
  0
VISUALSTYLE
  5
15EF
102
{ACAD_REACTORS
330
15E7
102
}
330
15E7
100
AcDbVisualStyle
  2
Basic
 70
     7
177
     3
291
     1
 70
    58
 90
        1
176
     1
 90
        0
176
     1
 90
        1
176
     1
 90
        0
176
     1
 40
0.6
176
     1
 40
30.0
176
     1
 62
     7
420
 16777215
176
     1
 90
        0
176
     1
 90
        4
176
     1
 62
     7
176
     1
 62
   257
176
     1
 90
        1
176
     1
 90
        1
176
     1
 40
1.0
176
     1
 90
        8
176
     1
 62
     7
176
     1
 40
1.0
176
     1
 90
        1
176
     1
 90
        6
176
     1
 90
        2
176
     1
 62
     7
176
     1
 90
        5
176
     1
 90
        0
176
     1
 90
        0
176
     1
290
     0
176
     1
 90
        1
176
     1
 40
0.0
176
     1
 90
        0
176
     1
290
     0
176
     1
290
     1
176
     1
290
     1
176
     1
290
     0
176
     1
290
     0
176
     1
290
     0
176
     1
290
     0
176
     1
290
     0
176
     1
290
     0
176
     1
 90
       50
176
     1
 40
0.0
176
     1
 40
1.0
176
     1
 90
        0
176
     1
 62
   178
420
        0
176
     1
 90
       50
176
     1
 90
        3
176
     1
 62
     5
420
      255
176
     1
290
     0
176
     1
 90
       50
176
     1
 90
       50
176
     1
 90
       50
176
     1
290
     0
176
     1
 90
       50
176
     1
 62
   256
176
     0
 40
1.0
176
     0
 90
        2
176
     1
  1
strokes_ogs.tif
176
     1
290
     0
176
     1
 40
1.0
176
     1
 40
1.0
176
     1
  0
VISUALSTYLE
  5
15F3
102
{ACAD_REACTORS
330
15E7
102
}
330
15E7
100
AcDbVisualStyle
  2
Brighten
 70
    12
177
     3
291
     1
 70
    58
 90
        2
176
     1
 90
        2
176
     1
 90
        0
176
     1
 90
        0
176
     1
 40
0.6
176
     1
 40
30.0
176
     1
 62
     7
420
 16777215
176
     1
 90
        1
176
     1
 90
        4
176
     1
 62
     7
176
     1
 62
   257
176
     1
 90
        1
176
     1
 90
        1
176
     1
 40
1.0
176
     1
 90
        8
176
     1
 62
     7
176
     1
 40
1.0
176
     1
 90
        1
176
     1
 90
        6
176
     1
 90
        2
176
     1
 62
     7
176
     1
 90
        5
176
     1
 90
        0
176
     1
 90
        0
176
     1
290
     0
176
     1
 90
        1
176
     1
 40
50.0
176
     1
 90
        0
176
     1
290
     0
176
     1
290
     1
176
     1
290
     1
176
     1
290
     0
176
     1
290
     0
176
     1
290
     0
176
     1
290
     0
176
     1
290
     0
176
     1
290
     0
176
     1
 90
       50
176
     1
 40
0.0
176
     1
 40
1.0
176
     1
 90
        0
176
     1
 62
   178
420
        0
176
     1
 90
       50
176
     1
 90
        3
176
     1
 62
     5
420
      255
176
     1
290
     0
176
     1
 90
       50
176
     1
 90
       50
176
     1
 90
       50
176
     1
290
     0
176
     1
 90
       50
176
     1
 62
   256
176
     0
 40
1.0
176
     0
 90
        2
176
     1
  1
strokes_ogs.tif
176
     1
290
     0
176
     1
 40
1.0
176
     1
 40
1.0
176
     1
  0
VISUALSTYLE
  5
15F7
102
{ACAD_REACTORS
330
15E7
102
}
330
15E7
100
AcDbVisualStyle
  2
ColorChange
 70
    16
177
     3
291
     1
 70
    58
 90
        2
176
     1
 90
        2
176
     1
 90
        3
176
     1
 90
        0
176
     1
 40
0.6
176
     1
 40
30.0
176
     1
 62
     8
420
  8421504
176
     1
 90
        1
176
     1
 90
        4
176
     1
 62
     7
176
     1
 62
   257
176
     1
 90
        1
176
     1
 90
        1
176
     1
 40
1.0
176
     1
 90
        8
176
     1
 62
     8
420
  8421504
176
     1
 40
1.0
176
     1
 90
        1
176
     1
 90
        6
176
     1
 90
        2
176
     1
 62
     7
176
     1
 90
        5
176
     1
 90
        0
176
     1
 90
        0
176
     1
290
     0
176
     1
 90
        1
176
     1
 40
0.0
176
     1
 90
        0
176
     1
290
     0
176
     1
290
     1
176
     1
290
     1
176
     1
290
     0
176
     1
290
     0
176
     1
290
     0
176
     1
290
     0
176
     1
290
     0
176
     1
290
     0
176
     1
 90
       50
176
     1
 40
0.0
176
     1
 40
1.0
176
     1
 90
        0
176
     1
 62
   178
420
        0
176
     1
 90
       50
176
     1
 90
        3
176
     1
 62
     5
420
      255
176
     1
290
     0
176
     1
 90
       50
176
     1
 90
       50
176
     1
 90
       50
176
     1
290
     0
176
     1
 90
       50
176
     1
 62
   256
176
     0
 40
1.0
176
     0
 90
        2
176
     1
  1
strokes_ogs.tif
176
     1
290
     0
176
     1
 40
1.0
176
     1
 40
1.0
176
     1
  0
VISUALSTYLE
  5
15F1
102
{ACAD_REACTORS
330
15E7
102
}
330
15E7
100
AcDbVisualStyle
  2
Conceptual
 70
     9
177
     3
291
     0
 70
    58
 90
        3
176
     1
 90
        2
176
     1
 90
        0
176
     1
 90
        0
176
     1
 40
0.6
176
     1
 40
30.0
176
     1
 62
     7
420
 16777215
176
     1
 90
        2
176
     1
 90
        2
176
     1
 62
     7
176
     1
 62
   257
176
     1
 90
        1
176
     1
 90
        1
176
     1
 40
179.0
176
     1
 90
        8
176
     1
 62
     7
176
     1
 40
1.0
176
     1
 90
        1
176
     1
 90
        6
176
     1
 90
        2
176
     1
 62
     7
176
     1
 90
        3
176
     1
 90
        0
176
     1
 90
        0
176
     1
290
     0
176
     1
 90
        1
176
     1
 40
0.0
176
     1
 90
        0
176
     1
290
     0
176
     1
290
     1
176
     1
290
     1
176
     1
290
     0
176
     1
290
     0
176
     1
290
     0
176
     1
290
     0
176
     1
290
     0
176
     1
290
     0
176
     1
 90
       50
176
     1
 40
0.0
176
     1
 40
1.0
176
     1
 90
        0
176
     1
 62
   178
420
        0
176
     1
 90
       50
176
     1
 90
        3
176
     1
 62
     5
420
      255
176
     1
290
     0
176
     1
 90
       50
176
     1
 90
       50
176
     1
 90
       50
176
     1
290
     0
176
     1
 90
       50
176
     1
 62
   256
176
     0
 40
1.0
176
     0
 90
        2
176
     1
  1
strokes_ogs.tif
176
     1
290
     0
176
     1
 40
1.0
176
     1
 40
1.0
176
     1
  0
VISUALSTYLE
  5
15F2
102
{ACAD_REACTORS
330
15E7
102
}
330
15E7
100
AcDbVisualStyle
  2
Dim
 70
    11
177
     3
291
     1
 70
    58
 90
        2
176
     1
 90
        2
176
     1
 90
        0
176
     1
 90
        0
176
     1
 40
0.6
176
     1
 40
30.0
176
     1
 62
     7
420
 16777215
176
     1
 90
        1
176
     1
 90
        4
176
     1
 62
     7
176
     1
 62
   257
176
     1
 90
        1
176
     1
 90
        1
176
     1
 40
1.0
176
     1
 90
        8
176
     1
 62
     7
176
     1
 40
1.0
176
     1
 90
        1
176
     1
 90
        6
176
     1
 90
        2
176
     1
 62
     7
176
     1
 90
        5
176
     1
 90
        0
176
     1
 90
        0
176
     1
290
     0
176
     1
 90
        1
176
     1
 40
-50.0
176
     1
 90
        0
176
     1
290
     0
176
     1
290
     1
176
     1
290
     1
176
     1
290
     0
176
     1
290
     0
176
     1
290
     0
176
     1
290
     0
176
     1
290
     0
176
     1
290
     0
176
     1
 90
       50
176
     1
 40
0.0
176
     1
 40
1.0
176
     1
 90
        0
176
     1
 62
   178
420
        0
176
     1
 90
       50
176
     1
 90
        3
176
     1
 62
     5
420
      255
176
     1
290
     0
176
     1
 90
       50
176
     1
 90
       50
176
     1
 90
       50
176
     1
290
     0
176
     1
 90
       50
176
     1
 62
   256
176
     0
 40
1.0
176
     0
 90
        2
176
     1
  1
strokes_ogs.tif
176
     1
290
     0
176
     1
 40
1.0
176
     1
 40
1.0
176
     1
  0
VISUALSTYLE
  5
15FA
102
{ACAD_REACTORS
330
15E7
102
}
330
15E7
100
AcDbVisualStyle
  2
EdgeColorOff
 70
    22
177
     3
291
     1
 70
    58
 90
        2
176
     0
 90
        2
176
     0
 90
        0
176
     0
 90
        0
176
     0
 40
0.6
176
     0
 40
30.0
176
     0
 62
     7
420
 16777215
176
     0
 90
        1
176
     0
 90
        4
176
     0
 62
     7
176
     0
 62
   257
176
     0
 90
        1
176
     0
 90
        1
176
     0
 40
1.0
176
     0
 90
        8
176
     2
 62
     7
176
     0
 40
1.0
176
     0
 90
        1
176
     0
 90
        6
176
     0
 90
        2
176
     0
 62
     7
176
     0
 90
        5
176
     0
 90
        0
176
     0
 90
        0
176
     0
290
     0
176
     0
 90
        1
176
     0
 40
0.0
176
     0
 90
        0
176
     0
290
     0
176
     0
290
     1
176
     0
290
     1
176
     0
290
     0
176
     0
290
     0
176
     0
290
     0
176
     0
290
     0
176
     0
290
     0
176
     0
290
     0
176
     0
 90
       50
176
     0
 40
0.0
176
     0
 40
1.0
176
     0
 90
        0
176
     0
 62
   178
420
        0
176
     0
 90
       50
176
     0
 90
        3
176
     0
 62
     5
420
      255
176
     0
290
     0
176
     0
 90
       50
176
     0
 90
       50
176
     0
 90
       50
176
     0
290
     0
176
     0
 90
       50
176
     0
 62
   256
176
     0
 40
1.0
176
     0
 90
        2
176
     0
  1
strokes_ogs.tif
176
     0
290
     0
176
     0
 40
1.0
176
     0
 40
1.0
176
     0
  0
VISUALSTYLE
  5
15F6
102
{ACAD_REACTORS
330
15E7
102
}
330
15E7
100
AcDbVisualStyle
  2
Facepattern
 70
    15
177
     3
291
     1
 70
    58
 90
        2
176
     1
 90
        2
176
     1
 90
        0
176
     1
 90
        0
176
     1
 40
0.6
176
     1
 40
30.0
176
     1
 62
     7
420
 16777215
176
     1
 90
        1
176
     1
 90
        4
176
     1
 62
     7
176
     1
 62
   257
176
     1
 90
        1
176
     1
 90
        1
176
     1
 40
1.0
176
     1
 90
        8
176
     1
 62
     7
176
     1
 40
1.0
176
     1
 90
        1
176
     1
 90
        6
176
     1
 90
        2
176
     1
 62
     7
176
     1
 90
        5
176
     1
 90
        0
176
     1
 90
        0
176
     1
290
     0
176
     1
 90
        1
176
     1
 40
0.0
176
     1
 90
        0
176
     1
290
     0
176
     1
290
     1
176
     1
290
     1
176
     1
290
     0
176
     1
290
     0
176
     1
290
     0
176
     1
290
     0
176
     1
290
     0
176
     1
290
     0
176
     1
 90
       50
176
     1
 40
0.0
176
     1
 40
1.0
176
     1
 90
        0
176
     1
 62
   178
420
        0
176
     1
 90
       50
176
     1
 90
        3
176
     1
 62
     5
420
      255
176
     1
290
     0
176
     1
 90
       50
176
     1
 90
       50
176
     1
 90
       50
176
     1
290
     0
176
     1
 90
       50
176
     1
 62
   256
176
     0
 40
1.0
176
     0
 90
        2
176
     1
  1
strokes_ogs.tif
176
     1
290
     0
176
     1
 40
1.0
176
     1
 40
1.0
176
     1
  0
VISUALSTYLE
  5
15E8
102
{ACAD_REACTORS
330
15E7
102
}
330
15E7
100
AcDbVisualStyle
  2
Flat
 70
     0
177
     3
291
     1
 70
    58
 90
        2
176
     1
 90
        1
176
     1
 90
        1
176
     1
 90
        2
176
     1
 40
0.6
176
     1
 40
30.0
176
     1
 62
     7
420
 16777215
176
     1
 90
        0
176
     1
 90
        0
176
     1
 62
     7
176
     1
 62
   257
176
     1
 90
        1
176
     1
 90
        1
176
     1
 40
1.0
176
     1
 90
        8
176
     1
 62
     7
176
     1
 40
1.0
176
     1
 90
        1
176
     1
 90
        6
176
     1
 90
        2
176
     1
 62
     7
176
     1
 90
        5
176
     1
 90
        0
176
     1
 90
        0
176
     1
290
     0
176
     1
 90
       13
176
     1
 40
0.0
176
     1
 90
        0
176
     1
290
     0
176
     1
290
     1
176
     1
290
     1
176
     1
290
     0
176
     1
290
     0
176
     1
290
     0
176
     1
290
     0
176
     1
290
     0
176
     1
290
     0
176
     1
 90
       50
176
     1
 40
0.0
176
     1
 40
1.0
176
     1
 90
        0
176
     1
 62
   178
420
        0
176
     1
 90
       50
176
     1
 90
        3
176
     1
 62
     5
420
      255
176
     1
290
     0
176
     1
 90
       50
176
     1
 90
       50
176
     1
 90
       50
176
     1
290
     0
176
     1
 90
       50
176
     1
 62
   256
176
     0
 40
1.0
176
     0
 90
        2
176
     1
  1
strokes_ogs.tif
176
     1
290
     0
176
     1
 40
1.0
176
     1
 40
1.0
176
     1
  0
VISUALSTYLE
  5
15E9
102
{ACAD_REACTORS
330
15E7
102
}
330
15E7
100
AcDbVisualStyle
  2
FlatWithEdges
 70
     1
177
     3
291
     1
 70
    58
 90
        2
176
     1
 90
        1
176
     1
 90
        1
176
     1
 90
        2
176
     1
 40
0.6
176
     1
 40
30.0
176
     1
 62
     7
420
 16777215
176
     1
 90
        1
176
     1
 90
        0
176
     1
 62
     7
176
     1
 62
   257
176
     1
 90
        1
176
     1
 90
        1
176
     1
 40
1.0
176
     1
 90
        0
176
     1
 62
   257
176
     1
 40
1.0
176
     1
 90
        1
176
     1
 90
        6
176
     1
 90
        2
176
     1
 62
     7
176
     1
 90
        5
176
     1
 90
        0
176
     1
 90
        0
176
     1
290
     0
176
     1
 90
       13
176
     1
 40
0.0
176
     1
 90
        0
176
     1
290
     0
176
     1
290
     1
176
     1
290
     1
176
     1
290
     0
176
     1
290
     0
176
     1
290
     0
176
     1
290
     0
176
     1
290
     0
176
     1
290
     0
176
     1
 90
       50
176
     1
 40
0.0
176
     1
 40
1.0
176
     1
 90
        0
176
     1
 62
   178
420
        0
176
     1
 90
       50
176
     1
 90
        3
176
     1
 62
     5
420
      255
176
     1
290
     0
176
     1
 90
       50
176
     1
 90
       50
176
     1
 90
       50
176
     1
290
     0
176
     1
 90
       50
176
     1
 62
   256
176
     0
 40
1.0
176
     0
 90
        2
176
     1
  1
strokes_ogs.tif
176
     1
290
     0
176
     1
 40
1.0
176
     1
 40
1.0
176
     1
  0
VISUALSTYLE
  5
15EA
102
{ACAD_REACTORS
330
15E7
102
}
330
15E7
100
AcDbVisualStyle
  2
Gouraud
 70
     2
177
     3
291
     1
 70
    58
 90
        2
176
     1
 90
        2
176
     1
 90
        1
176
     1
 90
        2
176
     1
 40
0.6
176
     1
 40
30.0
176
     1
 62
     7
420
 16777215
176
     1
 90
        0
176
     1
 90
        0
176
     1
 62
     7
176
     1
 62
   257
176
     1
 90
        1
176
     1
 90
        1
176
     1
 40
1.0
176
     1
 90
        0
176
     1
 62
     7
176
     1
 40
1.0
176
     1
 90
        1
176
     1
 90
        6
176
     1
 90
        2
176
     1
 62
     7
176
     1
 90
        5
176
     1
 90
        0
176
     1
 90
        0
176
     1
290
     0
176
     1
 90
       13
176
     1
 40
0.0
176
     1
 90
        0
176
     1
290
     0
176
     1
290
     1
176
     1
290
     1
176
     1
290
     0
176
     1
290
     0
176
     1
290
     0
176
     1
290
     0
176
     1
290
     0
176
     1
290
     0
176
     1
 90
       50
176
     1
 40
0.0
176
     1
 40
1.0
176
     1
 90
        0
176
     1
 62
   178
420
        0
176
     1
 90
       50
176
     1
 90
        3
176
     1
 62
     5
420
      255
176
     1
290
     0
176
     1
 90
       50
176
     1
 90
       50
176
     1
 90
       50
176
     1
290
     0
176
     1
 90
       50
176
     1
 62
   256
176
     0
 40
1.0
176
     0
 90
        2
176
     1
  1
strokes_ogs.tif
176
     1
290
     0
176
     1
 40
1.0
176
     1
 40
1.0
176
     1
  0
VISUALSTYLE
  5
15EB
102
{ACAD_REACTORS
330
15E7
102
}
330
15E7
100
AcDbVisualStyle
  2
GouraudWithEdges
 70
     3
177
     3
291
     1
 70
    58
 90
        2
176
     1
 90
        2
176
     1
 90
        1
176
     1
 90
        2
176
     1
 40
0.6
176
     1
 40
30.0
176
     1
 62
     7
420
 16777215
176
     1
 90
        1
176
     1
 90
        0
176
     1
 62
     7
176
     1
 62
   257
176
     1
 90
        1
176
     1
 90
        1
176
     1
 40
1.0
176
     1
 90
        0
176
     1
 62
   257
176
     1
 40
1.0
176
     1
 90
        1
176
     1
 90
        6
176
     1
 90
        2
176
     1
 62
     7
176
     1
 90
        5
176
     1
 90
        0
176
     1
 90
        0
176
     1
290
     0
176
     1
 90
       13
176
     1
 40
0.0
176
     1
 90
        0
176
     1
290
     0
176
     1
290
     1
176
     1
290
     1
176
     1
290
     0
176
     1
290
     0
176
     1
290
     0
176
     1
290
     0
176
     1
290
     0
176
     1
290
     0
176
     1
 90
       50
176
     1
 40
0.0
176
     1
 40
1.0
176
     1
 90
        0
176
     1
 62
   178
420
        0
176
     1
 90
       50
176
     1
 90
        3
176
     1
 62
     5
420
      255
176
     1
290
     0
176
     1
 90
       50
176
     1
 90
       50
176
     1
 90
       50
176
     1
290
     0
176
     1
 90
       50
176
     1
 62
   256
176
     0
 40
1.0
176
     0
 90
        2
176
     1
  1
strokes_ogs.tif
176
     1
290
     0
176
     1
 40
1.0
176
     1
 40
1.0
176
     1
  0
VISUALSTYLE
  5
15EE
102
{ACAD_REACTORS
330
15E7
102
}
330
15E7
100
AcDbVisualStyle
  2
Hidden
 70
     6
177
     3
291
     0
 70
    58
 90
        1
176
     1
 90
        2
176
     1
 90
        2
176
     1
 90
        0
176
     1
 40
0.6
176
     1
 40
30.0
176
     1
 62
     7
420
 16777215
176
     1
 90
        2
176
     1
 90
        2
176
     1
 62
     7
176
     1
 62
   257
176
     1
 90
        2
176
     1
 90
        1
176
     1
 40
40.0
176
     1
 90
        0
176
     1
 62
   257
176
     1
 40
1.0
176
     1
 90
        1
176
     1
 90
        6
176
     1
 90
        2
176
     1
 62
     7
176
     1
 90
        3
176
     1
 90
        0
176
     1
 90
        0
176
     1
290
     0
176
     1
 90
        1
176
     1
 40
0.0
176
     1
 90
        0
176
     1
290
     0
176
     1
290
     1
176
     1
290
     1
176
     1
290
     0
176
     1
290
     0
176
     1
290
     0
176
     1
290
     0
176
     1
290
     0
176
     1
290
     0
176
     1
 90
       50
176
     1
 40
0.0
176
     1
 40
1.0
176
     1
 90
        0
176
     1
 62
   178
420
        0
176
     1
 90
       50
176
     1
 90
        3
176
     1
 62
     5
420
      255
176
     1
290
     0
176
     1
 90
       50
176
     1
 90
       50
176
     1
 90
       50
176
     1
290
     0
176
     1
 90
       50
176
     1
 62
   256
176
     0
 40
1.0
176
     0
 90
        2
176
     1
  1
strokes_ogs.tif
176
     1
290
     0
176
     1
 40
1.0
176
     1
 40
1.0
176
     1
  0
VISUALSTYLE
  5
15F8
102
{ACAD_REACTORS
330
15E7
102
}
330
15E7
100
AcDbVisualStyle
  2
JitterOff
 70
    20
177
     3
291
     1
 70
    58
 90
        2
176
     0
 90
        2
176
     0
 90
        0
176
     0
 90
        0
176
     0
 40
0.6
176
     0
 40
30.0
176
     0
 62
     7
420
 16777215
176
     0
 90
        1
176
     0
 90
        4
176
     0
 62
     7
176
     0
 62
   257
176
     0
 90
        1
176
     0
 90
        1
176
     0
 40
1.0
176
     0
 90
       10
176
     2
 62
     7
176
     0
 40
1.0
176
     0
 90
        1
176
     0
 90
        6
176
     0
 90
        2
176
     0
 62
     7
176
     0
 90
        5
176
     0
 90
        0
176
     0
 90
        0
176
     0
290
     0
176
     0
 90
        1
176
     0
 40
0.0
176
     0
 90
        0
176
     0
290
     0
176
     0
290
     1
176
     0
290
     1
176
     0
290
     0
176
     0
290
     0
176
     0
290
     0
176
     0
290
     0
176
     0
290
     0
176
     0
290
     0
176
     0
 90
       50
176
     0
 40
0.0
176
     0
 40
1.0
176
     0
 90
        0
176
     0
 62
   178
420
        0
176
     0
 90
       50
176
     0
 90
        3
176
     0
 62
     5
420
      255
176
     0
290
     0
176
     0
 90
       50
176
     0
 90
       50
176
     0
 90
       50
176
     0
290
     0
176
     0
 90
       50
176
     0
 62
   256
176
     0
 40
1.0
176
     0
 90
        2
176
     0
  1
strokes_ogs.tif
176
     0
290
     0
176
     0
 40
1.0
176
     0
 40
1.0
176
     0
  0
VISUALSTYLE
  5
15F5
102
{ACAD_REACTORS
330
15E7
102
}
330
15E7
100
AcDbVisualStyle
  2
Linepattern
 70
    14
177
     3
291
     1
 70
    58
 90
        2
176
     1
 90
        2
176
     1
 90
        0
176
     1
 90
        0
176
     1
 40
0.6
176
     1
 40
30.0
176
     1
 62
     7
420
 16777215
176
     1
 90
        1
176
     1
 90
        4
176
     1
 62
     7
176
     1
 62
   257
176
     1
 90
        7
176
     1
 90
        7
176
     1
 40
1.0
176
     1
 90
        8
176
     1
 62
     7
176
     1
 40
1.0
176
     1
 90
        1
176
     1
 90
        6
176
     1
 90
        2
176
     1
 62
     7
176
     1
 90
        5
176
     1
 90
        0
176
     1
 90
        0
176
     1
290
     0
176
     1
 90
        1
176
     1
 40
0.0
176
     1
 90
        0
176
     1
290
     0
176
     1
290
     1
176
     1
290
     1
176
     1
290
     0
176
     1
290
     0
176
     1
290
     0
176
     1
290
     0
176
     1
290
     0
176
     1
290
     0
176
     1
 90
       50
176
     1
 40
0.0
176
     1
 40
1.0
176
     1
 90
        0
176
     1
 62
   178
420
        0
176
     1
 90
       50
176
     1
 90
        3
176
     1
 62
     5
420
      255
176
     1
290
     0
176
     1
 90
       50
176
     1
 90
       50
176
     1
 90
       50
176
     1
290
     0
176
     1
 90
       50
176
     1
 62
   256
176
     0
 40
1.0
176
     0
 90
        2
176
     1
  1
strokes_ogs.tif
176
     1
290
     0
176
     1
 40
1.0
176
     1
 40
1.0
176
     1
  0
VISUALSTYLE
  5
15F9
102
{ACAD_REACTORS
330
15E7
102
}
330
15E7
100
AcDbVisualStyle
  2
OverhangOff
 70
    21
177
     3
291
     1
 70
    58
 90
        2
176
     0
 90
        2
176
     0
 90
        0
176
     0
 90
        0
176
     0
 40
0.6
176
     0
 40
30.0
176
     0
 62
     7
420
 16777215
176
     0
 90
        1
176
     0
 90
        4
176
     0
 62
     7
176
     0
 62
   257
176
     0
 90
        1
176
     0
 90
        1
176
     0
 40
1.0
176
     0
 90
        9
176
     2
 62
     7
176
     0
 40
1.0
176
     0
 90
        1
176
     0
 90
        6
176
     0
 90
        2
176
     0
 62
     7
176
     0
 90
        5
176
     0
 90
        0
176
     0
 90
        0
176
     0
290
     0
176
     0
 90
        1
176
     0
 40
0.0
176
     0
 90
        0
176
     0
290
     0
176
     0
290
     1
176
     0
290
     1
176
     0
290
     0
176
     0
290
     0
176
     0
290
     0
176
     0
290
     0
176
     0
290
     0
176
     0
290
     0
176
     0
 90
       50
176
     0
 40
0.0
176
     0
 40
1.0
176
     0
 90
        0
176
     0
 62
   178
420
        0
176
     0
 90
       50
176
     0
 90
        3
176
     0
 62
     5
420
      255
176
     0
290
     0
176
     0
 90
       50
176
     0
 90
       50
176
     0
 90
       50
176
     0
290
     0
176
     0
 90
       50
176
     0
 62
   256
176
     0
 40
1.0
176
     0
 90
        2
176
     0
  1
strokes_ogs.tif
176
     0
290
     0
176
     0
 40
1.0
176
     0
 40
1.0
176
     0
  0
VISUALSTYLE
  5
15F0
102
{ACAD_REACTORS
330
15E7
102
}
330
15E7
100
AcDbVisualStyle
  2
Realistic
 70
     8
177
     3
291
     0
 70
    58
 90
        2
176
     1
 90
        3
176
     1
 90
        0
176
     1
 90
        2
176
     1
 40
0.6
176
     1
 40
30.0
176
     1
 62
     7
420
 16777215
176
     1
 90
        0
176
     1
 90
        0
176
     1
 62
     7
176
     1
 62
   257
176
     1
 90
        1
176
     1
 90
        1
176
     1
 40
1.0
176
     1
 90
        8
176
     1
 62
   257
176
     1
 40
1.0
176
     1
 90
        1
176
     1
 90
        6
176
     1
 90
        2
176
     1
 62
     7
176
     1
 90
        3
176
     1
 90
        0
176
     1
 90
        0
176
     1
290
     0
176
     1
 90
       13
176
     1
 40
0.0
176
     1
 90
        0
176
     1
290
     0
176
     1
290
     1
176
     1
290
     1
176
     1
290
     0
176
     1
290
     0
176
     1
290
     0
176
     1
290
     0
176
     1
290
     0
176
     1
290
     0
176
     1
 90
       50
176
     1
 40
0.0
176
     1
 40
1.0
176
     1
 90
        0
176
     1
 62
   178
420
        0
176
     1
 90
       50
176
     1
 90
        3
176
     1
 62
     5
420
      255
176
     1
290
     0
176
     1
 90
       50
176
     1
 90
       50
176
     1
 90
       50
176
     1
290
     0
176
     1
 90
       50
176
     1
 62
   256
176
     0
 40
1.0
176
     0
 90
        2
176
     1
  1
strokes_ogs.tif
176
     1
290
     0
176
     1
 40
1.0
176
     1
 40
1.0
176
     1
  0
VISUALSTYLE
  5
15FF
102
{ACAD_REACTORS
330
15E7
102
}
330
15E7
100
AcDbVisualStyle
  2
Shaded
 70
    27
177
     3
291
     0
 70
    58
 90
        2
176
     1
 90
        2
176
     1
 90
        1
176
     1
 90
        2
176
     1
 40
0.6
176
     1
 40
30.0
176
     1
 62
     7
420
 16777215
176
     1
 90
        0
176
     1
 90
        4
176
     1
 62
     7
176
     1
 62
   257
176
     1
 90
        1
176
     1
 90
        1
176
     1
 40
1.0
176
     1
 90
        8
176
     1
 62
   257
176
     1
 40
1.0
176
     1
 90
        1
176
     1
 90
        6
176
     1
 90
        2
176
     1
 62
     8
420
  7895160
176
     1
 90
        3
176
     1
 90
        0
176
     1
 90
        0
176
     1
290
     0
176
     1
 90
        5
176
     1
 40
0.0
176
     1
 90
        0
176
     1
290
     0
176
     1
290
     1
176
     1
290
     1
176
     1
290
     0
176
     1
290
     0
176
     1
290
     0
176
     1
290
     0
176
     1
290
     0
176
     1
290
     0
176
     1
 90
       50
176
     1
 40
0.0
176
     1
 40
1.0
176
     1
 90
        0
176
     1
 62
   178
420
        0
176
     1
 90
       50
176
     1
 90
        3
176
     1
 62
     5
420
      255
176
     1
290
     0
176
     1
 90
       50
176
     1
 90
       50
176
     1
 90
       50
176
     1
290
     0
176
     1
 90
       50
176
     1
 62
   256
176
     0
 40
1.0
176
     0
 90
        2
176
     1
  1
strokes_ogs.tif
176
     1
290
     0
176
     1
 40
1.0
176
     1
 40
1.0
176
     1
  0
VISUALSTYLE
  5
15FE
102
{ACAD_REACTORS
330
15E7
102
}
330
15E7
100
AcDbVisualStyle
  2
Shaded with edges
 70
    26
177
     3
291
     0
 70
    58
 90
        2
176
     1
 90
        2
176
     1
 90
        1
176
     1
 90
        2
176
     1
 40
0.6
176
     1
 40
30.0
176
     1
 62
     7
420
 16777215
176
     1
 90
        1
176
     1
 90
       10
176
     1
 62
     7
176
     1
 62
   257
176
     1
 90
        2
176
     1
 90
        1
176
     1
 40
1.0
176
     1
 90
        8
176
     1
 62
   257
176
     1
 40
1.0
176
     1
 90
        1
176
     1
 90
        6
176
     1
 90
        2
176
     1
 62
     7
176
     1
 90
        3
176
     1
 90
        0
176
     1
 90
        0
176
     1
290
     0
176
     1
 90
        5
176
     1
 40
0.0
176
     1
 90
        0
176
     1
290
     0
176
     1
290
     1
176
     1
290
     1
176
     1
290
     0
176
     1
290
     0
176
     1
290
     0
176
     1
290
     0
176
     1
290
     0
176
     1
290
     0
176
     1
 90
       50
176
     1
 40
0.0
176
     1
 40
1.0
176
     1
 90
        0
176
     1
 62
   178
420
        0
176
     1
 90
       50
176
     1
 90
        3
176
     1
 62
     5
420
      255
176
     1
290
     0
176
     1
 90
       50
176
     1
 90
       50
176
     1
 90
       50
176
     1
290
     0
176
     1
 90
       50
176
     1
 62
   256
176
     0
 40
1.0
176
     0
 90
        2
176
     1
  1
strokes_ogs.tif
176
     1
290
     0
176
     1
 40
1.0
176
     1
 40
1.0
176
     1
  0
VISUALSTYLE
  5
15FB
102
{ACAD_REACTORS
330
15E7
102
}
330
15E7
100
AcDbVisualStyle
  2
Shades of Gray
 70
    23
177
     3
291
     0
 70
    58
 90
        2
176
     1
 90
        2
176
     1
 90
        3
176
     1
 90
        0
176
     1
 40
0.6
176
     1
 40
30.0
176
     1
 62
     7
420
 16777215
176
     1
 90
        2
176
     1
 90
        2
176
     1
 62
     7
176
     1
 62
     7
176
     1
 90
        1
176
     1
 90
        1
176
     1
 40
40.0
176
     1
 90
        8
176
     1
 62
     7
176
     1
 40
1.0
176
     1
 90
        1
176
     1
 90
        6
176
     1
 90
        2
176
     1
 62
     7
176
     1
 90
        3
176
     1
 90
        0
176
     1
 90
        0
176
     1
290
     0
176
     1
 90
        1
176
     1
 40
0.0
176
     1
 90
        0
176
     1
290
     0
176
     1
290
     1
176
     1
290
     1
176
     1
290
     0
176
     1
290
     0
176
     1
290
     0
176
     1
290
     0
176
     1
290
     0
176
     1
290
     0
176
     1
 90
       50
176
     1
 40
0.0
176
     1
 40
1.0
176
     1
 90
        0
176
     1
 62
   178
420
        0
176
     1
 90
       50
176
     1
 90
        3
176
     1
 62
     5
420
      255
176
     1
290
     0
176
     1
 90
       50
176
     1
 90
       50
176
     1
 90
       50
176
     1
290
     0
176
     1
 90
       50
176
     1
 62
   256
176
     0
 40
1.0
176
     0
 90
        2
176
     1
  1
strokes_ogs.tif
176
     1
290
     0
176
     1
 40
1.0
176
     1
 40
1.0
176
     1
  0
VISUALSTYLE
  5
15FC
102
{ACAD_REACTORS
330
15E7
102
}
330
15E7
100
AcDbVisualStyle
  2
Sketchy
 70
    24
177
     3
291
     0
 70
    58
 90
        1
176
     1
 90
        2
176
     1
 90
        2
176
     1
 90
        0
176
     1
 40
0.6
176
     1
 40
30.0
176
     1
 62
     7
420
 16777215
176
     1
 90
        2
176
     1
 90
        2
176
     1
 62
     7
176
     1
 62
     7
176
     1
 90
        1
176
     1
 90
        1
176
     1
 40
40.0
176
     1
 90
       11
176
     1
 62
     7
176
     1
 40
1.0
176
     1
 90
        1
176
     1
 90
        6
176
     1
 90
        2
176
     1
 62
     7
176
     1
 90
        6
176
     1
 90
        0
176
     1
 90
        0
176
     1
290
     0
176
     1
 90
        1
176
     1
 40
0.0
176
     1
 90
        0
176
     1
290
     0
176
     1
290
     1
176
     1
290
     1
176
     1
290
     0
176
     1
290
     0
176
     1
290
     0
176
     1
290
     0
176
     1
290
     0
176
     1
290
     0
176
     1
 90
       50
176
     1
 40
0.0
176
     1
 40
1.0
176
     1
 90
        0
176
     1
 62
   178
420
        0
176
     1
 90
       50
176
     1
 90
        3
176
     1
 62
     5
420
      255
176
     1
290
     0
176
     1
 90
       50
176
     1
 90
       50
176
     1
 90
       50
176
     1
290
     0
176
     1
 90
       50
176
     1
 62
   256
176
     0
 40
1.0
176
     0
 90
        2
176
     1
  1
strokes_ogs.tif
176
     1
290
     0
176
     1
 40
1.0
176
     1
 40
1.0
176
     1
  0
VISUALSTYLE
  5
15F4
102
{ACAD_REACTORS
330
15E7
102
}
330
15E7
100
AcDbVisualStyle
  2
Thicken
 70
    13
177
     3
291
     1
 70
    58
 90
        2
176
     1
 90
        2
176
     1
 90
        0
176
     1
 90
        0
176
     1
 40
0.6
176
     1
 40
30.0
176
     1
 62
     7
420
 16777215
176
     1
 90
        1
176
     1
 90
        4
176
     1
 62
     7
176
     1
 62
   257
176
     1
 90
        1
176
     1
 90
        1
176
     1
 40
1.0
176
     1
 90
       12
176
     1
 62
     7
176
     1
 40
1.0
176
     1
 90
        1
176
     1
 90
        6
176
     1
 90
        2
176
     1
 62
     7
176
     1
 90
        5
176
     1
 90
        0
176
     1
 90
        0
176
     1
290
     0
176
     1
 90
        1
176
     1
 40
0.0
176
     1
 90
        0
176
     1
290
     0
176
     1
290
     1
176
     1
290
     1
176
     1
290
     0
176
     1
290
     0
176
     1
290
     0
176
     1
290
     0
176
     1
290
     0
176
     1
290
     0
176
     1
 90
       50
176
     1
 40
0.0
176
     1
 40
1.0
176
     1
 90
        0
176
     1
 62
   178
420
        0
176
     1
 90
       50
176
     1
 90
        3
176
     1
 62
     5
420
      255
176
     1
290
     0
176
     1
 90
       50
176
     1
 90
       50
176
     1
 90
       50
176
     1
290
     0
176
     1
 90
       50
176
     1
 62
   256
176
     0
 40
1.0
176
     0
 90
        2
176
     1
  1
strokes_ogs.tif
176
     1
290
     0
176
     1
 40
1.0
176
     1
 40
1.0
176
     1
  0
VISUALSTYLE
  5
15ED
102
{ACAD_REACTORS
330
15E7
102
}
330
15E7
100
AcDbVisualStyle
  2
Wireframe
 70
     5
177
     3
291
     0
 70
    58
 90
        0
176
     1
 90
        2
176
     1
 90
        0
176
     1
 90
        0
176
     1
 40
0.6
176
     1
 40
30.0
176
     1
 62
     7
420
 16777215
176
     1
 90
        1
176
     1
 90
        4
176
     1
 62
     7
176
     1
 62
   257
176
     1
 90
        1
176
     1
 90
        1
176
     1
 40
1.0
176
     1
 90
        0
176
     1
 62
   257
176
     1
 40
1.0
176
     1
 90
        1
176
     1
 90
        6
176
     1
 90
        2
176
     1
 62
     7
176
     1
 90
        3
176
     1
 90
        0
176
     1
 90
        0
176
     1
290
     0
176
     1
 90
        1
176
     1
 40
0.0
176
     1
 90
        0
176
     1
290
     0
176
     1
290
     1
176
     1
290
     1
176
     1
290
     0
176
     1
290
     0
176
     1
290
     0
176
     1
290
     0
176
     1
290
     0
176
     1
290
     0
176
     1
 90
       50
176
     1
 40
0.0
176
     1
 40
1.0
176
     1
 90
        0
176
     1
 62
   178
420
        0
176
     1
 90
       50
176
     1
 90
        3
176
     1
 62
     5
420
      255
176
     1
290
     0
176
     1
 90
       50
176
     1
 90
       50
176
     1
 90
       50
176
     1
290
     0
176
     1
 90
       50
176
     1
 62
   256
176
     0
 40
1.0
176
     0
 90
        2
176
     1
  1
strokes_ogs.tif
176
     1
290
     0
176
     1
 40
1.0
176
     1
 40
1.0
176
     1
  0
VISUALSTYLE
  5
15FD
102
{ACAD_REACTORS
330
15E7
102
}
330
15E7
100
AcDbVisualStyle
  2
X-Ray
 70
    25
177
     3
291
     0
 70
    58
 90
        2
176
     1
 90
        2
176
     1
 90
        1
176
     1
 90
        1
176
     1
 40
0.5
176
     1
 40
30.0
176
     1
 62
     7
420
 16777215
176
     1
 90
        1
176
     1
 90
        0
176
     1
 62
     7
176
     1
 62
   257
176
     1
 90
        1
176
     1
 90
        1
176
     1
 40
1.0
176
     1
 90
        8
176
     1
 62
     7
176
     1
 40
1.0
176
     1
 90
        1
176
     1
 90
        6
176
     1
 90
        2
176
     1
 62
     7
176
     1
 90
        3
176
     1
 90
        0
176
     1
 90
        0
176
     1
290
     0
176
     1
 90
       13
176
     1
 40
0.0
176
     1
 90
        0
176
     1
290
     0
176
     1
290
     1
176
     1
290
     1
176
     1
290
     0
176
     1
290
     0
176
     1
290
     0
176
     1
290
     0
176
     1
290
     0
176
     1
290
     0
176
     1
 90
       50
176
     1
 40
0.0
176
     1
 40
1.0
176
     1
 90
        0
176
     1
 62
   178
420
        0
176
     1
 90
       50
176
     1
 90
        3
176
     1
 62
     5
420
      255
176
     1
290
     0
176
     1
 90
       50
176
     1
 90
       50
176
     1
 90
       50
176
     1
290
     0
176
     1
 90
       50
176
     1
 62
   256
176
     0
 40
1.0
176
     0
 90
        2
176
     1
  1
strokes_ogs.tif
176
     1
290
     0
176
     1
 40
1.0
176
     1
 40
1.0
176
     1
  0
DICTIONARYVAR
  5
1669
102
{ACAD_REACTORS
330
1668
102
}
330
1668
100
DictionaryVariables
280
     0
  1
1:1
  0
XRECORD
  5
1629
102
{ACAD_REACTORS
330
1628
102
}
330
1628
100
AcDbXrecord
280
     1
290
     1
  0
XRECORD
  5
162A
102
{ACAD_REACTORS
330
1628
102
}
330
1628
100
AcDbXrecord
280
     1
290
     1
  0
XRECORD
  5
162B
102
{ACAD_REACTORS
330
1628
102
}
330
1628
100
AcDbXrecord
280
     1
290
     1
  0
XRECORD
  5
162C
102
{ACAD_REACTORS
330
1628
102
}
330
1628
100
AcDbXrecord
280
     1
290
     1
  0
XRECORD
  5
162D
102
{ACAD_REACTORS
330
1628
102
}
330
1628
100
AcDbXrecord
280
     1
1000
auto
  0
XRECORD
  5
162E
102
{ACAD_REACTORS
330
1628
102
}
330
1628
100
AcDbXrecord
280
     1
1000
auto
  0
XRECORD
  5
162F
102
{ACAD_REACTORS
330
1628
102
}
330
1628
100
AcDbXrecord
280
     1
1000
auto
  0
XRECORD
  5
1630
102
{ACAD_REACTORS
330
1628
102
}
330
1628
100
AcDbXrecord
280
     1
1000
auto
  0
XRECORD
  5
1631
102
{ACAD_REACTORS
330
1628
102
}
330
1628
100
AcDbXrecord
280
     1
1000
auto
  0
XRECORD
  5
1632
102
{ACAD_REACTORS
330
1628
102
}
330
1628
100
AcDbXrecord
280
     1
1000
auto
  0
XRECORD
  5
1633
102
{ACAD_REACTORS
330
1628
102
}
330
1628
100
AcDbXrecord
280
     1
1000
auto
  0
XRECORD
  5
1634
102
{ACAD_REACTORS
330
1628
102
}
330
1628
100
AcDbXrecord
280
     1
1000
auto
  0
XRECORD
  5
1635
102
{ACAD_REACTORS
330
1628
102
}
330
1628
100
AcDbXrecord
280
     1
290
     0
  0
XRECORD
  5
1636
102
{ACAD_REACTORS
330
1628
102
}
330
1628
100
AcDbXrecord
280
     1
290
     0
  0
XRECORD
  5
1637
102
{ACAD_REACTORS
330
1628
102
}
330
1628
100
AcDbXrecord
280
     1
290
     0
  0
XRECORD
  5
1638
102
{ACAD_REACTORS
330
1628
102
}
330
1628
100
AcDbXrecord
280
     1
290
     0
  0
XRECORD
  5
1639
102
{ACAD_REACTORS
330
1628
102
}
330
1628
100
AcDbXrecord
280
     1
 90
        0
  0
XRECORD
  5
163A
102
{ACAD_REACTORS
330
1628
102
}
330
1628
100
AcDbXrecord
280
     1
 90
        0
  0
XRECORD
  5
163B
102
{ACAD_REACTORS
330
1628
102
}
330
1628
100
AcDbXrecord
280
     1
 90
        0
  0
XRECORD
  5
163C
102
{ACAD_REACTORS
330
1628
102
}
330
1628
100
AcDbXrecord
280
     1
 90
        0
  0
XRECORD
  5
163D
102
{ACAD_REACTORS
330
1628
102
}
330
1628
100
AcDbXrecord
280
     1
1000
auto
  0
XRECORD
  5
163E
102
{ACAD_REACTORS
330
1628
102
}
330
1628
100
AcDbXrecord
280
     1
1000
auto
  0
XRECORD
  5
163F
102
{ACAD_REACTORS
330
1628
102
}
330
1628
100
AcDbXrecord
280
     1
1000
auto
  0
XRECORD
  5
1640
102
{ACAD_REACTORS
330
1628
102
}
330
1628
100
AcDbXrecord
280
     1
1000
auto
  0
XRECORD
  5
1641
102
{ACAD_REACTORS
330
1628
102
}
330
1628
100
AcDbXrecord
280
     1
1000
auto
  0
XRECORD
  5
1642
102
{ACAD_REACTORS
330
1628
102
}
330
1628
100
AcDbXrecord
280
     1
1000
auto
  0
XRECORD
  5
1643
102
{ACAD_REACTORS
330
1628
102
}
330
1628
100
AcDbXrecord
280
     1
1000
auto
  0
XRECORD
  5
1644
102
{ACAD_REACTORS
330
1628
102
}
330
1628
100
AcDbXrecord
280
     1
1000
auto
  0
XRECORD
  5
1645
102
{ACAD_REACTORS
330
1628
102
}
330
1628
100
AcDbXrecord
280
     1
 90
        1
  0
XRECORD
  5
1646
102
{ACAD_REACTORS
330
1628
102
}
330
1628
100
AcDbXrecord
280
     1
 40
10.0
  0
XRECORD
  5
1647
102
{ACAD_REACTORS
330
1628
102
}
330
1628
100
AcDbXrecord
280
     1
 40
10.0
  0
XRECORD
  5
1648
102
{ACAD_REACTORS
330
1628
102
}
330
1628
100
AcDbXrecord
280
     1
 40
10.0
  0
XRECORD
  5
1649
102
{ACAD_REACTORS
330
1628
102
}
330
1628
100
AcDbXrecord
280
     1
 40
10.0
  0
XRECORD
  5
164A
102
{ACAD_REACTORS
330
1628
102
}
330
1628
100
AcDbXrecord
280
     1
290
     0
  0
XRECORD
  5
164B
102
{ACAD_REACTORS
330
1628
102
}
330
1628
100
AcDbXrecord
280
     1
 90
        1
  0
XRECORD
  5
164C
102
{ACAD_REACTORS
330
1628
102
}
330
1628
100
AcDbXrecord
280
     1
 40
0.0
  0
XRECORD
  5
164D
102
{ACAD_REACTORS
330
1628
102
}
330
1628
100
AcDbXrecord
280
     1
 40
0.0
  0
XRECORD
  5
164E
102
{ACAD_REACTORS
330
1628
102
}
330
1628
100
AcDbXrecord
280
     1
1000
Portrait
  0
XRECORD
  5
164F
102
{ACAD_REACTORS
330
1628
102
}
330
1628
100
AcDbXrecord
280
     1
 40
297.0
  0
XRECORD
  5
1650
102
{ACAD_REACTORS
330
1628
102
}
330
1628
100
AcDbXrecord
280
     1
 40
210.0
  0
XRECORD
  5
1651
102
{ACAD_REACTORS
330
1628
102
}
330
1628
100
AcDbXrecord
280
     1
1000
1:1
  0
XRECORD
  5
1652
102
{ACAD_REACTORS
330
1628
102
}
330
1628
100
AcDbXrecord
280
     1
290
     1
  0
XRECORD
  5
1653
102
{ACAD_REACTORS
330
1628
102
}
330
1628
100
AcDbXrecord
280
     1
 90
        4
  0
ENDSEC
  0
EOF
