999
dxflib 3.1.5.0
  0
SECTION
  2
HEADER
  9
$ACADVER
  1
AC1015
  9
$HANDSEED
  5
FFFF
  9
$DIMADEC
 70
0
  9
$DIMASZ
 40
2.5
  9
$DIMAUNIT
 70
0
  9
$DIMAZIN
 70
2
  9
$DIMDEC
 70
4
  9
$DIMEXE
 40
1.25
  9
$DIMEXO
 40
0.625
  9
$DIMGAP
 40
0.625
  9
$DIMLUNIT
 70
2
  9
$DIMTSZ
 40
0.0
  9
$DIMTXT
 40
2.5
  9
$DIMZIN
 70
8
  9
$INSUNITS
 70
4
  9
$LTSCALE
 40
1.0
  0
SECTION
  2
TABLES
  0
TABLE
  2
VPORT
  5
8
100
AcDbSymbolTable
 70
1
  0
VPORT
  5
30
100
AcDbSymbolTableRecord
100
AcDbViewportTableRecord
  2
*Active
 70
0
 10
0.0
 20
0.0
 11
1.0
 21
1.0
 12
286.30555555555549
 22
148.5
 13
0.0
 23
0.0
 14
10.0
 24
10.0
 15
10.0
 25
10.0
 16
0.0
 26
0.0
 36
1.0
 17
0.0
 27
0.0
 37
0.0
 40
297.0
 41
1.92798353909465
 42
50.0
 43
0.0
 44
0.0
 50
0.0
 51
0.0
 71
0
 72
100
 73
1
 74
3
 75
1
 76
1
 77
0
 78
0
281
0
 65
1
110
0.0
120
0.0
130
0.0
111
1.0
121
0.0
131
0.0
112
0.0
122
1.0
132
0.0
 79
0
146
0.0
  0
ENDTAB
  0
TABLE
  2
LTYPE
  5
5
100
AcDbSymbolTable
 70
21
  0
LTYPE
  5
31
100
AcDbSymbolTableRecord
100
AcDbLinetypeTableRecord
  2
CENTER2
 70
0
  3
Center (.5x) ___ _ ___ _ ___ _ ___ _ ___ _ ___
 72
65
 73
4
 40
28.574999999999999
 49
19.050000000000001
 74
0
 49
-3.1749999999999998
 74
0
 49
3.1749999999999998
 74
0
 49
-3.1749999999999998
 74
0
  0
LTYPE
  5
32
100
AcDbSymbolTableRecord
100
AcDbLinetypeTableRecord
  2
DIVIDEX2
 70
0
  3
Divide (2x) ________  .  .  ________  .  .  _
 72
65
 73
6
 40
63.5
 49
25.399999999999999
 74
0
 49
-12.699999999999999
 74
0
 49
0.0
 74
0
 49
-12.699999999999999
 74
0
 49
0.0
 74
0
 49
-12.699999999999999
 74
0
  0
LTYPE
  5
33
100
AcDbSymbolTableRecord
100
AcDbLinetypeTableRecord
  2
DOT2
 70
0
  3
Dot (.5x) .....................................
 72
65
 73
2
 40
3.1749999999999998
 49
0.0
 74
0
 49
-3.1749999999999998
 74
0
  0
LTYPE
  5
34
100
AcDbSymbolTableRecord
100
AcDbLinetypeTableRecord
  2
DASHDOT2
 70
0
  3
Dash dot (.5x) _._._._._._._._._._._._._._._.
 72
65
 73
4
 40
12.699999999999999
 49
6.3499999999999996
 74
0
 49
-3.1749999999999998
 74
0
 49
0.0
 74
0
 49
-3.1749999999999998
 74
0
  0
LTYPE
  5
35
100
AcDbSymbolTableRecord
100
AcDbLinetypeTableRecord
  2
DIVIDE
 70
0
  3
Divide ____ . . ____ . . ____ . . ____ . . ____
 72
65
 73
6
 40
31.75
 49
12.699999999999999
 74
0
 49
-6.3499999999999996
 74
0
 49
0.0
 74
0
 49
-6.3499999999999996
 74
0
 49
0.0
 74
0
 49
-6.3499999999999996
 74
0
  0
LTYPE
  5
36
100
AcDbSymbolTableRecord
100
AcDbLinetypeTableRecord
  2
DASHDOT
 70
0
  3
Dash dot __ . __ . __ . __ . __ . __ . __ . __
 72
65
 73
4
 40
25.399999999999999
 49
12.699999999999999
 74
0
 49
-6.3499999999999996
 74
0
 49
0.0
 74
0
 49
-6.3499999999999996
 74
0
  0
LTYPE
  5
37
100
AcDbSymbolTableRecord
100
AcDbLinetypeTableRecord
  2
BORDER
 70
0
  3
Border __ __ . __ __ . __ __ . __ __ . __ __ .
 72
65
 73
6
 40
44.450000000000003
 49
12.699999999999999
 74
0
 49
-6.3499999999999996
 74
0
 49
12.699999999999999
 74
0
 49
-6.3499999999999996
 74
0
 49
0.0
 74
0
 49
-6.3499999999999996
 74
0
  0
LTYPE
  5
38
100
AcDbSymbolTableRecord
100
AcDbLinetypeTableRecord
  2
DASHDOTX2
 70
0
  3
Dash dot (2x) ____  .  ____  .  ____  .  ___
 72
65
 73
4
 40
50.799999999999997
 49
25.399999999999999
 74
0
 49
-12.699999999999999
 74
0
 49
0.0
 74
0
 49
-12.699999999999999
 74
0
  0
LTYPE
  5
39
100
AcDbSymbolTableRecord
100
AcDbLinetypeTableRecord
  2
CENTERX2
 70
0
  3
Center (2x) ________  __  ________  __  _____
 72
65
 73
4
 40
101.59999999999999
 49
63.5
 74
0
 49
-12.699999999999999
 74
0
 49
12.699999999999999
 74
0
 49
-12.699999999999999
 74
0
  0
LTYPE
  5
3A
100
AcDbSymbolTableRecord
100
AcDbLinetypeTableRecord
  2
BORDER2
 70
0
  3
Border (.5x) __.__.__.__.__.__.__.__.__.__.__.
 72
65
 73
6
 40
22.225000000000001
 49
6.3499999999999996
 74
0
 49
-3.1749999999999998
 74
0
 49
6.3499999999999996
 74
0
 49
-3.1749999999999998
 74
0
 49
0.0
 74
0
 49
-3.1749999999999998
 74
0
  0
LTYPE
  5
3B
100
AcDbSymbolTableRecord
100
AcDbLinetypeTableRecord
  2
BORDERX2
 70
0
  3
Border (2x) ____  ____  .  ____  ____  .  ___
 72
65
 73
6
 40
88.900000000000006
 49
25.399999999999999
 74
0
 49
-12.699999999999999
 74
0
 49
25.399999999999999
 74
0
 49
-12.699999999999999
 74
0
 49
0.0
 74
0
 49
-12.699999999999999
 74
0
  0
LTYPE
  5
16
100
AcDbSymbolTableRecord
100
AcDbLinetypeTableRecord
  2
CONTINUOUS
 70
0
  3
Solid line
 72
65
 73
0
 40
0.0
  0
LTYPE
  5
14
100
AcDbSymbolTableRecord
100
AcDbLinetypeTableRecord
  2
BYBLOCK
 70
0
  3

 72
65
 73
0
 40
0.0
  0
LTYPE
  5
15
100
AcDbSymbolTableRecord
100
AcDbLinetypeTableRecord
  2
BYLAYER
 70
0
  3

 72
65
 73
0
 40
0.0
  0
LTYPE
  5
3C
100
AcDbSymbolTableRecord
100
AcDbLinetypeTableRecord
  2
DASHED2
 70
0
  3
Dashed (.5x) _ _ _ _ _ _ _ _ _ _ _ _ _ _ _ _ _
 72
65
 73
2
 40
9.5250000000000004
 49
6.3499999999999996
 74
0
 49
-3.1749999999999998
 74
0
  0
LTYPE
  5
3D
100
AcDbSymbolTableRecord
100
AcDbLinetypeTableRecord
  2
CENTER
 70
0
  3
Center ____ _ ____ _ ____ _ ____ _ ____ _ ____
 72
65
 73
4
 40
50.799999999999997
 49
31.75
 74
0
 49
-6.3499999999999996
 74
0
 49
6.3499999999999996
 74
0
 49
-6.3499999999999996
 74
0
  0
LTYPE
  5
3E
100
AcDbSymbolTableRecord
100
AcDbLinetypeTableRecord
  2
DIVIDE2
 70
0
  3
Divide (.5x) __..__..__..__..__..__..__..__.._
 72
65
 73
6
 40
15.875
 49
6.3499999999999996
 74
0
 49
-3.1749999999999998
 74
0
 49
0.0
 74
0
 49
-3.1749999999999998
 74
0
 49
0.0
 74
0
 49
-3.1749999999999998
 74
0
  0
LTYPE
  5
3F
100
AcDbSymbolTableRecord
100
AcDbLinetypeTableRecord
  2
DASHED
 70
0
  3
Dashed __ __ __ __ __ __ __ __ __ __ __ __ __ _
 72
65
 73
2
 40
19.050000000000001
 49
12.699999999999999
 74
0
 49
-6.3499999999999996
 74
0
  0
LTYPE
  5
40
100
AcDbSymbolTableRecord
100
AcDbLinetypeTableRecord
  2
DOTX2
 70
0
  3
Dot (2x) .  .  .  .  .  .  .  .  .  .  .  .  .
 72
65
 73
2
 40
12.699999999999999
 49
0.0
 74
0
 49
-12.699999999999999
 74
0
  0
LTYPE
  5
41
100
AcDbSymbolTableRecord
100
AcDbLinetypeTableRecord
  2
DASHEDX2
 70
0
  3
Dashed (2x) ____  ____  ____  ____  ____  ___
 72
65
 73
2
 40
38.100000000000001
 49
25.399999999999999
 74
0
 49
-12.699999999999999
 74
0
  0
LTYPE
  5
42
100
AcDbSymbolTableRecord
100
AcDbLinetypeTableRecord
  2
DOT
 70
0
  3
Dot . . . . . . . . . . . . . . . . . . . . . .
 72
65
 73
2
 40
6.3499999999999996
 49
0.0
 74
0
 49
-6.3499999999999996
 74
0
  0
ENDTAB
  0
TABLE
  2
LAYER
  5
2
100
AcDbSymbolTable
 70
1
  0
LAYER
  5
10
100
AcDbSymbolTableRecord
100
AcDbLayerTableRecord
  2
0
 70
0
 62
7
420
16777215
  6
CONTINUOUS
370
25
390
F
  0
ENDTAB
  0
TABLE
  2
STYLE
  5
3
100
AcDbSymbolTable
 70
0
  0
ENDTAB
  0
TABLE
  2
VIEW
  5
6
100
AcDbSymbolTable
 70
0
  0
ENDTAB
  0
TABLE
  2
UCS
  5
7
100
AcDbSymbolTable
 70
0
  0
ENDTAB
  0
TABLE
  2
APPID
  5
9
100
AcDbSymbolTable
 70
1
  0
APPID
  5
43
100
AcDbSymbolTableRecord
100
AcDbRegAppTableRecord
  2
QCAD
 70
0
  0
ENDTAB
  0
TABLE
  2
DIMSTYLE
  5
A
100
AcDbSymbolTable
 70
1
100
AcDbDimStyleTable
 71
0
  0
DIMSTYLE
105
27
100
AcDbSymbolTableRecord
100
AcDbDimStyleTableRecord
  2
Standard
 41
2.5
 42
0.625
 43
3.75
 44
1.25
 70
0
 73
0
 74
0
 77
1
 78
8
140
2.5
141
2.5
143
0.03937007874016
147
0.625
171
3
172
1
271
2
272
2
274
3
278
44
283
0
284
8
340
11
  0
ENDTAB
  0
TABLE
  2
BLOCK_RECORD
  5
1
100
AcDbSymbolTable
 70
1
  0
BLOCK_RECORD
  5
1F
100
AcDbSymbolTableRecord
100
AcDbBlockTableRecord
  2
*Model_Space
340
22
  0
BLOCK_RECORD
  5
1B
100
AcDbSymbolTableRecord
100
AcDbBlockTableRecord
  2
*Paper_Space
340
1E
  0
BLOCK_RECORD
  5
23
100
AcDbSymbolTableRecord
100
AcDbBlockTableRecord
  2
*Paper_Space0
340
26
  0
BLOCK_RECORD
  5
44
100
AcDbSymbolTableRecord
100
AcDbBlockTableRecord
  2
*Model_Space
340
0
  0
ENDTAB
  0
ENDSEC
  0
SECTION
  2
BLOCKS
  0
BLOCK
  5
20
100
AcDbEntity
  8
0
100
AcDbBlockBegin
  2
*Model_Space
 70
0
 10
0.0
 20
0.0
 30
0.0
  3
*Model_Space
  1

  0
ENDSEC
  0
SECTION
  2
ENTITIES
  0
LINE
  5
45
100
AcDbEntity
100
AcDbLine
  8
0
 62
41
420
15591832
370
-1
  6
BYLAYER
 10
2.9701001049999967
 20
2.1719228849999972
 30
0.0
 11
2.3319041499999962
 21
3.4703499300000011
 31
0.0
  0
LINE
  5
46
100
AcDbEntity
100
AcDbLine
  8
0
 62
41
420
15591832
370
-1
  6
BYLAYER
 10
2.3319041499999962
 20
3.4703499300000011
 30
0.0
 11
1.1579453599999958
 21
3.4739243450000004
 31
0.0
  0
LINE
  5
47
100
AcDbEntity
100
AcDbLine
  8
0
 62
41
420
15591832
370
-1
  6
BYLAYER
 10
1.1579453599999958
 20
3.4739243450000004
 30
0.0
 11
1.4501342599999951
 21
1.9971092900000009
 31
0.0
  0
LINE
  5
48
100
AcDbEntity
100
AcDbLine
  8
0
 62
41
420
15591832
370
-1
  6
BYLAYER
 10
1.4501342599999951
 20
1.9971092900000009
 30
0.0
 11
1.4501342599999951
 21
1.9971092900000009
 31
0.0
  0
LINE
  5
49
100
AcDbEntity
100
AcDbLine
  8
0
 62
256
370
-1
  6
BYLAYER
 10
-4.7724764850000021
 20
7.8439695799999996
 30
0.0
 11
4.8955013849999993
 21
7.8439695799999996
 31
0.0
  0
LINE
  5
4A
100
AcDbEntity
100
AcDbLine
  8
0
 62
256
370
-1
  6
BYLAYER
 10
4.8955013849999993
 20
7.8439695799999996
 30
0.0
 11
4.8955013849999993
 21
1.2889026799999996
 31
0.0
  0
LINE
  5
4B
100
AcDbEntity
100
AcDbLine
  8
0
 62
256
370
-1
  6
BYLAYER
 10
4.8955013849999993
 20
1.2889026799999996
 30
0.0
 11
-4.7724764850000021
 21
1.2889026799999996
 31
0.0
  0
LINE
  5
4C
100
AcDbEntity
100
AcDbLine
  8
0
 62
256
370
-1
  6
BYLAYER
 10
-4.7724764850000021
 20
1.2889026799999996
 30
0.0
 11
-4.7724764850000021
 21
7.8439695799999996
 31
0.0
  0
LINE
  5
4D
100
AcDbEntity
100
AcDbLine
  8
0
 62
254
420
15592687
370
-1
  6
BYLAYER
 10
4.668953069999997
 20
1.3563396800000014
 30
0.0
 11
3.4986575949999938
 21
1.2430855250000015
 31
0.0
  0
LINE
  5
4E
100
AcDbEntity
100
AcDbLine
  8
0
 62
254
420
15592687
370
-1
  6
BYLAYER
 10
-2.9002145450000079
 20
4.6029651400000002
 30
0.0
 11
3.0078889550000021
 21
4.6029651400000002
 31
0.0
  0
LINE
  5
4F
100
AcDbEntity
100
AcDbLine
  8
0
 62
254
420
15592687
370
-1
  6
BYLAYER
 10
3.0078889550000021
 20
4.6029651400000002
 30
0.0
 11
3.0078889550000021
 21
7.9817207650000004
 31
0.0
  0
LINE
  5
50
100
AcDbEntity
100
AcDbLine
  8
0
 62
254
420
15592687
370
-1
  6
BYLAYER
 10
-2.8813391700000075
 20
4.6784685450000012
 30
0.0
 11
-2.8813391700000075
 21
7.9062179950000004
 31
0.0
  0
LINE
  5
51
100
AcDbEntity
100
AcDbLine
  8
0
 62
256
370
-1
  6
BYLAYER
 10
-3.3360455250000065
 20
10.223922275
 30
0.0
 11
3.4695168099999982
 21
10.223922275
 31
0.0
  0
SPLINE
  5
52
  8
0
 62
256
370
-1
  6
BYLAYER
100
AcDbEntity
100
AcDbSpline
 70
8
 71
3
 72
8
 73
4
 74
0
 40
0.0
 40
0.0
 40
0.0
 40
0.0
 40
1.0
 40
1.0
 40
1.0
 40
1.0
 10
3.4695168099999982
 20
10.223922275
 30
0.0
 10
3.4695168099999982
 20
10.223922275
 30
0.0
 10
5.9127904349999945
 20
7.8586228400000007
 30
0.0
 10
5.9127904349999945
 20
7.6063919500000008
 30
0.0
  0
LINE
  5
53
100
AcDbEntity
100
AcDbLine
  8
0
 62
256
370
-1
  6
BYLAYER
 10
5.9127904349999945
 20
7.6063919500000008
 30
0.0
 11
5.9127904349999945
 21
0.4552911900000005
 31
0.0
  0
ARC
  5
54
100
AcDbEntity
  8
0
 62
256
370
-1
  6
BYLAYER
100
AcDbCircle
 10
5.458496723483524
 20
0.4542937115164776
 30
0.0
 40
0.4542948065813002
100
AcDbArc
 50
269.87419765237456
 51
0.1258023476231899
  0
LINE
  5
55
100
AcDbEntity
100
AcDbLine
  8
0
 62
256
370
-1
  6
BYLAYER
 10
5.4574992449999904
 20
0.0
 30
0.0
 11
-5.4574992450000046
 21
0.0
 31
0.0
  0
ARC
  5
56
100
AcDbEntity
  8
0
 62
256
370
-1
  6
BYLAYER
100
AcDbCircle
 10
-5.4584967234835737
 20
0.4542937115164207
 30
0.0
 40
0.4542948065812534
100
AcDbArc
 50
179.87419765236811
 51
270.12580234763044
  0
LINE
  5
57
100
AcDbEntity
100
AcDbLine
  8
0
 62
256
370
-1
  6
BYLAYER
 10
-5.9127904350000051
 20
0.4552911900000005
 30
0.0
 11
-5.9127904350000051
 21
7.6063919500000008
 31
0.0
  0
LINE
  5
58
100
AcDbEntity
100
AcDbLine
  8
0
 62
256
370
-1
  6
BYLAYER
 10
-5.9127904350000051
 20
7.6063919500000008
 30
0.0
 11
-3.3360455250000065
 21
10.223922275
 31
0.0
  0
LINE
  5
59
100
AcDbEntity
100
AcDbLine
  8
0
 62
256
370
-1
  6
BYLAYER
 10
-3.3360455250000065
 20
10.223922275
 30
0.0
 11
-3.3360455250000065
 21
10.223922275
 31
0.0
  0
LINE
  5
5A
100
AcDbEntity
100
AcDbLine
  8
0
 62
256
370
-1
  6
BYLAYER
 10
-4.7991687100000071
 20
7.8620683499999995
 30
0.0
 11
4.8821454299999907
 21
7.8620683499999995
 31
0.0
  0
LINE
  5
5B
100
AcDbEntity
100
AcDbLine
  8
0
 62
256
370
-1
  6
BYLAYER
 10
4.8821454299999907
 20
7.8620683499999995
 30
0.0
 11
4.8821454299999907
 21
1.2979520650000005
 31
0.0
  0
LINE
  5
5C
100
AcDbEntity
100
AcDbLine
  8
0
 62
256
370
-1
  6
BYLAYER
 10
4.8821454299999907
 20
1.2979520650000005
 30
0.0
 11
-4.7991687100000071
 21
1.2979520650000005
 31
0.0
  0
LINE
  5
5D
100
AcDbEntity
100
AcDbLine
  8
0
 62
256
370
-1
  6
BYLAYER
 10
-4.7991687100000071
 20
1.2979520650000005
 30
0.0
 11
-4.7991687100000071
 21
7.8620683499999995
 31
0.0
  0
LINE
  5
5E
100
AcDbEntity
100
AcDbLine
  8
0
 62
256
370
-1
  6
BYLAYER
 10
-2.7114569850000017
 20
5.0748590399999998
 30
0.0
 11
2.8568827799999958
 21
4.9804802600000002
 31
0.0
  0
LINE
  5
5F
100
AcDbEntity
100
AcDbLine
  8
0
 62
256
370
-1
  6
BYLAYER
 10
4.8010832349999895
 20
1.4507184600000009
 30
0.0
 11
4.6123256749999975
 21
1.3185882950000014
 31
0.0
  0
LINE
  5
60
100
AcDbEntity
100
AcDbLine
  8
0
 62
256
370
-1
  6
BYLAYER
 10
4.6123256749999975
 20
1.3185882950000014
 30
0.0
 11
-4.2970189650000101
 21
1.2619608999999983
 31
0.0
  0
LINE
  5
61
100
AcDbEntity
100
AcDbLine
  8
0
 62
256
370
-1
  6
BYLAYER
 10
-4.2970189650000101
 20
1.2619608999999983
 30
0.0
 11
-4.5990306800000091
 21
1.412967075000001
 31
0.0
  0
LINE
  5
62
100
AcDbEntity
100
AcDbLine
  8
0
 62
256
370
-1
  6
BYLAYER
 10
-4.5990306800000091
 20
1.412967075000001
 30
0.0
 11
-4.5990306800000091
 21
1.412967075000001
 31
0.0
  0
LINE
  5
63
100
AcDbEntity
100
AcDbLine
  8
0
 62
256
370
-1
  6
BYLAYER
 10
-2.9190899200000011
 20
7.9062179950000004
 30
0.0
 11
2.9890135800000017
 21
7.9062179950000004
 31
0.0
  0
LINE
  5
64
100
AcDbEntity
100
AcDbLine
  8
0
 62
256
370
-1
  6
BYLAYER
 10
2.9890135800000017
 20
7.9062179950000004
 30
0.0
 11
2.9890135800000017
 21
4.6595925349999998
 31
0.0
  0
LINE
  5
65
100
AcDbEntity
100
AcDbLine
  8
0
 62
256
370
-1
  6
BYLAYER
 10
2.9890135800000017
 20
4.6595925349999998
 30
0.0
 11
-2.9190899200000011
 21
4.6595925349999998
 31
0.0
  0
LINE
  5
66
100
AcDbEntity
100
AcDbLine
  8
0
 62
256
370
-1
  6
BYLAYER
 10
-2.9190899200000011
 20
4.6595925349999998
 30
0.0
 11
-2.9190899200000011
 21
7.9062179950000004
 31
0.0
  0
LINE
  5
67
100
AcDbEntity
100
AcDbLine
  8
0
 62
41
420
15591832
370
-1
  6
BYLAYER
 10
-2.9647203850000032
 20
7.6209613900000015
 30
0.0
 11
-2.9552823800000034
 21
7.3929519400000014
 31
0.0
  0
LINE
  5
68
100
AcDbEntity
100
AcDbLine
  8
0
 62
41
420
15591832
370
-1
  6
BYLAYER
 10
-2.9552823800000034
 20
7.3929519400000014
 30
0.0
 11
-1.4776875449999984
 21
7.4006024200000002
 31
0.0
  0
LINE
  5
69
100
AcDbEntity
100
AcDbLine
  8
0
 62
41
420
15591832
370
-1
  6
BYLAYER
 10
-1.4776875449999984
 20
7.4006024200000002
 30
0.0
 11
-1.2392259950000089
 21
7.7812690450000002
 31
0.0
  0
LINE
  5
6A
100
AcDbEntity
100
AcDbLine
  8
0
 62
41
420
15591832
370
-1
  6
BYLAYER
 10
-1.2392259950000089
 20
7.7812690450000002
 30
0.0
 11
-2.9647203850000032
 21
7.6209613900000015
 31
0.0
  0
LINE
  5
6B
100
AcDbEntity
100
AcDbLine
  8
0
 62
41
420
15591832
370
-1
  6
BYLAYER
 10
-2.9647203850000032
 20
7.6209613900000015
 30
0.0
 11
-2.9647203850000032
 21
7.6209613900000015
 31
0.0
  0
LINE
  5
6C
100
AcDbEntity
100
AcDbLine
  8
0
 62
41
420
15591832
370
-1
  6
BYLAYER
 10
1.3337228849999967
 20
7.7762411150000013
 30
0.0
 11
1.5939922399999951
 21
7.3957408600000001
 31
0.0
  0
LINE
  5
6D
100
AcDbEntity
100
AcDbLine
  8
0
 62
41
420
15591832
370
-1
  6
BYLAYER
 10
1.5939922399999951
 20
7.3957408600000001
 30
0.0
 11
3.0911063399999925
 21
7.3957408600000001
 31
0.0
  0
LINE
  5
6E
100
AcDbEntity
100
AcDbLine
  8
0
 62
41
420
15591832
370
-1
  6
BYLAYER
 10
3.0911063399999925
 20
7.3957408600000001
 30
0.0
 11
3.0963254049999982
 21
7.6233921700000007
 31
0.0
  0
LINE
  5
6F
100
AcDbEntity
100
AcDbLine
  8
0
 62
41
420
15591832
370
-1
  6
BYLAYER
 10
3.0963254049999982
 20
7.6233921700000007
 30
0.0
 11
1.3337228849999967
 21
7.7762411150000013
 31
0.0
  0
LINE
  5
70
100
AcDbEntity
100
AcDbLine
  8
0
 62
41
420
15591832
370
-1
  6
BYLAYER
 10
1.3337228849999967
 20
7.7762411150000013
 30
0.0
 11
1.3337228849999967
 21
7.7762411150000013
 31
0.0
  0
LINE
  5
71
100
AcDbEntity
100
AcDbLine
  8
0
 62
41
420
15591832
370
-1
  6
BYLAYER
 10
-3.0962365050000038
 20
1.5258256249999995
 30
0.0
 11
-3.1029103550000023
 21
1.718873245000001
 31
0.0
  0
LINE
  5
72
100
AcDbEntity
100
AcDbLine
  8
0
 62
41
420
15591832
370
-1
  6
BYLAYER
 10
-3.1029103550000023
 20
1.718873245000001
 30
0.0
 11
-2.3611916200000032
 21
3.4159875799999995
 31
0.0
  0
LINE
  5
73
100
AcDbEntity
100
AcDbLine
  8
0
 62
41
420
15591832
370
-1
  6
BYLAYER
 10
-2.3611916200000032
 20
3.4159875799999995
 30
0.0
 11
-1.2081211550000042
 21
3.419944264999998
 31
0.0
  0
LINE
  5
74
100
AcDbEntity
100
AcDbLine
  8
0
 62
41
420
15591832
370
-1
  6
BYLAYER
 10
-1.2081211550000042
 20
3.419944264999998
 30
0.0
 11
-1.5514339050000068
 21
1.5121445500000021
 31
0.0
  0
LINE
  5
75
100
AcDbEntity
100
AcDbLine
  8
0
 62
41
420
15591832
370
-1
  6
BYLAYER
 10
-1.5514339050000068
 20
1.5121445500000021
 30
0.0
 11
-3.0962365050000038
 21
1.5258256249999995
 31
0.0
  0
LINE
  5
76
100
AcDbEntity
100
AcDbLine
  8
0
 62
41
420
15591832
370
-1
  6
BYLAYER
 10
-3.0962365050000038
 20
1.5258256249999995
 30
0.0
 11
-3.0962365050000038
 21
1.5258256249999995
 31
0.0
  0
LINE
  5
77
100
AcDbEntity
100
AcDbLine
  8
0
 62
41
420
15591832
370
-1
  6
BYLAYER
 10
1.4501342599999951
 20
1.9971092900000009
 30
0.0
 11
2.9748187899999969
 21
1.9982529249999992
 31
0.0
  0
LINE
  5
78
100
AcDbEntity
100
AcDbLine
  8
0
 62
41
420
15591832
370
-1
  6
BYLAYER
 10
2.9748187899999969
 20
1.9982529249999992
 30
0.0
 11
2.9701001049999967
 21
2.1719228849999972
 31
0.0
  0
ENDSEC
  0
SECTION
  2
OBJECTS
  0
DICTIONARY
  5
C
100
AcDbDictionary
280
0
281
1
  3
ACAD_GROUP
350
D
  3
ACAD_LAYOUT
350
1A
  3
ACAD_MLINESTYLE
350
17
  3
ACAD_PLOTSETTINGS
350
19
  3
ACAD_PLOTSTYLENAME
350
E
  3
AcDbVariableDictionary
350
79
  3
QCAD_OBJECTS
350
7A
  0
DICTIONARY
  5
D
100
AcDbDictionary
280
0
281
1
  0
ACDBDICTIONARYWDFLT
  5
E
100
AcDbDictionary
281
1
  3
Normal
350
F
100
AcDbDictionaryWithDefault
340
F
  0
ACDBPLACEHOLDER
  5
F
  0
DICTIONARY
  5
17
100
AcDbDictionary
280
0
281
1
  3
Standard
350
18
  0
MLINESTYLE
  5
18
100
AcDbMlineStyle
  2
STANDARD
 70
0
  3

 62
256
 51
90.0
 52
90.0
 71
2
 49
0.5
 62
256
  6
BYLAYER
 49
-0.5
 62
256
  6
BYLAYER
  0
DICTIONARY
  5
19
100
AcDbDictionary
280
0
281
1
  0
DICTIONARY
  5
1A
100
AcDbDictionary
281
1
  3
Layout1
350
1E
  3
Layout2
350
26
  3
Model
350
22
  0
LAYOUT
  5
1E
100
AcDbPlotSettings
  1

  2
C:\Program Files\AutoCAD 2002\plotters\DWF ePlot (optimized for plotting).pc3
  4

  6

 40
0.0
 41
0.0
 42
0.0
 43
0.0
 44
0.0
 45
0.0
 46
0.0
 47
0.0
 48
0.0
 49
0.0
140
0.0
141
0.0
142
1.0
143
1.0
 70
688
 72
0
 73
0
 74
5
  7

 75
16
147
1.0
148
0.0
149
0.0
100
AcDbLayout
  1
Layout1
 70
1
 71
1
 10
0.0
 20
0.0
 11
420.0
 21
297.0
 12
0.0
 22
0.0
 32
0.0
 14
100000000000000000000.0
 24
100000000000000000000.0
 34
100000000000000000000.0
 15
-100000000000000000000.0
 25
-100000000000000000000.0
 35
-100000000000000000000.0
146
0.0
 13
0.0
 23
0.0
 33
0.0
 16
1.0
 26
0.0
 36
0.0
 17
0.0
 27
1.0
 37
0.0
 76
0
330
1B
  0
LAYOUT
  5
22
100
AcDbPlotSettings
  1

  2
C:\Program Files\AutoCAD 2002\plotters\DWF ePlot (optimized for plotting).pc3
  4

  6

 40
0.0
 41
0.0
 42
0.0
 43
0.0
 44
0.0
 45
0.0
 46
0.0
 47
0.0
 48
0.0
 49
0.0
140
0.0
141
0.0
142
1.0
143
1.0
 70
1712
 72
0
 73
0
 74
0
  7

 75
0
147
1.0
148
0.0
149
0.0
100
AcDbLayout
  1
Model
 70
1
 71
0
 10
0.0
 20
0.0
 11
12.0
 21
9.0
 12
0.0
 22
0.0
 32
0.0
 14
0.0
 24
0.0
 34
0.0
 15
0.0
 25
0.0
 35
0.0
146
0.0
 13
0.0
 23
0.0
 33
0.0
 16
1.0
 26
0.0
 36
0.0
 17
0.0
 27
1.0
 37
0.0
 76
0
330
1F
  0
LAYOUT
  5
26
100
AcDbPlotSettings
  1

  2
C:\Program Files\AutoCAD 2002\plotters\DWF ePlot (optimized for plotting).pc3
  4

  6

 40
0.0
 41
0.0
 42
0.0
 43
0.0
 44
0.0
 45
0.0
 46
0.0
 47
0.0
 48
0.0
 49
0.0
140
0.0
141
0.0
142
1.0
143
1.0
 70
688
 72
0
 73
0
 74
5
  7

 75
16
147
1.0
148
0.0
149
0.0
100
AcDbLayout
  1
Layout2
 70
1
 71
2
 10
0.0
 20
0.0
 11
12.0
 21
9.0
 12
0.0
 22
0.0
 32
0.0
 14
0.0
 24
0.0
 34
0.0
 15
0.0
 25
0.0
 35
0.0
146
0.0
 13
0.0
 23
0.0
 33
0.0
 16
1.0
 26
0.0
 36
0.0
 17
0.0
 27
1.0
 37
0.0
 76
0
330
23
  0
DICTIONARY
  5
79
100
AcDbDictionary
281
1
  3
DIMASSOC
350
7C
  3
HIDETEXT
350
7B
  0
DICTIONARYVAR
  5
7B
100
DictionaryVariables
280
0
  1
2
  0
DICTIONARYVAR
  5
7C
100
DictionaryVariables
280
0
  1
1
  0
DICTIONARY
  5
7A
100
AcDbDictionary
281
1
  3
Grid/DisplayGrid00
350
7D
  3
Grid/DisplayGrid01
350
7E
  3
Grid/DisplayGrid02
350
7F
  3
Grid/DisplayGrid03
350
80
  3
Grid/GridSpacingX00
350
81
  3
Grid/GridSpacingX01
350
82
  3
Grid/GridSpacingX02
350
83
  3
Grid/GridSpacingX03
350
84
  3
Grid/GridSpacingY00
350
85
  3
Grid/GridSpacingY01
350
86
  3
Grid/GridSpacingY02
350
87
  3
Grid/GridSpacingY03
350
88
  3
Grid/IsometricGrid00
350
89
  3
Grid/IsometricGrid01
350
8A
  3
Grid/IsometricGrid02
350
8B
  3
Grid/IsometricGrid03
350
8C
  3
Grid/IsometricProjection00
350
8D
  3
Grid/IsometricProjection01
350
8E
  3
Grid/IsometricProjection02
350
8F
  3
Grid/IsometricProjection03
350
90
  3
Grid/MetaGridSpacingX00
350
91
  3
Grid/MetaGridSpacingX01
350
92
  3
Grid/MetaGridSpacingX02
350
93
  3
Grid/MetaGridSpacingX03
350
94
  3
Grid/MetaGridSpacingY00
350
95
  3
Grid/MetaGridSpacingY01
350
96
  3
Grid/MetaGridSpacingY02
350
97
  3
Grid/MetaGridSpacingY03
350
98
  3
MultiPageSettings/Columns
350
99
  3
MultiPageSettings/GlueMarginsBottom
350
9A
  3
MultiPageSettings/GlueMarginsLeft
350
9B
  3
MultiPageSettings/GlueMarginsRight
350
9C
  3
MultiPageSettings/GlueMarginsTop
350
9D
  3
MultiPageSettings/PrintCropMarks
350
9E
  3
MultiPageSettings/Rows
350
9F
  3
PageSettings/OffsetX
350
A0
  3
PageSettings/OffsetY
350
A1
  3
PageSettings/PageOrientation
350
A2
  3
PageSettings/PaperHeight
350
A3
  3
PageSettings/PaperWidth
350
A4
  3
PageSettings/Scale
350
A5
  3
PageSettings/ShowPaperBorders
350
A6
  3
UnitSettings/PaperUnit
350
A7
  0
XRECORD
  5
7D
330
7A
100
AcDbXrecord
280
1
290
1
  0
XRECORD
  5
7E
330
7A
100
AcDbXrecord
280
1
290
1
  0
XRECORD
  5
7F
330
7A
100
AcDbXrecord
280
1
290
1
  0
XRECORD
  5
80
330
7A
100
AcDbXrecord
280
1
290
1
  0
XRECORD
  5
81
330
7A
100
AcDbXrecord
280
1
1000
auto
  0
XRECORD
  5
82
330
7A
100
AcDbXrecord
280
1
1000
auto
  0
XRECORD
  5
83
330
7A
100
AcDbXrecord
280
1
1000
auto
  0
XRECORD
  5
84
330
7A
100
AcDbXrecord
280
1
1000
auto
  0
XRECORD
  5
85
330
7A
100
AcDbXrecord
280
1
1000
auto
  0
XRECORD
  5
86
330
7A
100
AcDbXrecord
280
1
1000
auto
  0
XRECORD
  5
87
330
7A
100
AcDbXrecord
280
1
1000
auto
  0
XRECORD
  5
88
330
7A
100
AcDbXrecord
280
1
1000
auto
  0
XRECORD
  5
89
330
7A
100
AcDbXrecord
280
1
290
0
  0
XRECORD
  5
8A
330
7A
100
AcDbXrecord
280
1
290
0
  0
XRECORD
  5
8B
330
7A
100
AcDbXrecord
280
1
290
0
  0
XRECORD
  5
8C
330
7A
100
AcDbXrecord
280
1
290
0
  0
XRECORD
  5
8D
330
7A
100
AcDbXrecord
280
1
 90
0
  0
XRECORD
  5
8E
330
7A
100
AcDbXrecord
280
1
 90
0
  0
XRECORD
  5
8F
330
7A
100
AcDbXrecord
280
1
 90
0
  0
XRECORD
  5
90
330
7A
100
AcDbXrecord
280
1
 90
0
  0
XRECORD
  5
91
330
7A
100
AcDbXrecord
280
1
1000
auto
  0
XRECORD
  5
92
330
7A
100
AcDbXrecord
280
1
1000
auto
  0
XRECORD
  5
93
330
7A
100
AcDbXrecord
280
1
1000
auto
  0
XRECORD
  5
94
330
7A
100
AcDbXrecord
280
1
1000
auto
  0
XRECORD
  5
95
330
7A
100
AcDbXrecord
280
1
1000
auto
  0
XRECORD
  5
96
330
7A
100
AcDbXrecord
280
1
1000
auto
  0
XRECORD
  5
97
330
7A
100
AcDbXrecord
280
1
1000
auto
  0
XRECORD
  5
98
330
7A
100
AcDbXrecord
280
1
1000
auto
  0
XRECORD
  5
99
330
7A
100
AcDbXrecord
280
1
 90
1
  0
XRECORD
  5
9A
330
7A
100
AcDbXrecord
280
1
 40
10.0
  0
XRECORD
  5
9B
330
7A
100
AcDbXrecord
280
1
 40
10.0
  0
XRECORD
  5
9C
330
7A
100
AcDbXrecord
280
1
 40
10.0
  0
XRECORD
  5
9D
330
7A
100
AcDbXrecord
280
1
 40
10.0
  0
XRECORD
  5
9E
330
7A
100
AcDbXrecord
280
1
290
0
  0
XRECORD
  5
9F
330
7A
100
AcDbXrecord
280
1
 90
1
  0
XRECORD
  5
A0
330
7A
100
AcDbXrecord
280
1
 40
0.0
  0
XRECORD
  5
A1
330
7A
100
AcDbXrecord
280
1
 40
0.0
  0
XRECORD
  5
A2
330
7A
100
AcDbXrecord
280
1
1000
Portrait
  0
XRECORD
  5
A3
330
7A
100
AcDbXrecord
280
1
 40
297.0
  0
XRECORD
  5
A4
330
7A
100
AcDbXrecord
280
1
 40
210.0
  0
XRECORD
  5
A5
330
7A
100
AcDbXrecord
280
1
1000
1:1
  0
XRECORD
  5
A6
330
7A
100
AcDbXrecord
280
1
290
1
  0
XRECORD
  5
A7
330
7A
100
AcDbXrecord
280
1
 90
4
  0
ENDSEC
  0
EOF
